<?xml version="1.0" encoding="UTF-8" standalone="no"?>
<svg
   xmlns:dc="http://purl.org/dc/elements/1.1/"
   xmlns:cc="http://creativecommons.org/ns#"
   xmlns:rdf="http://www.w3.org/1999/02/22-rdf-syntax-ns#"
   xmlns:svg="http://www.w3.org/2000/svg"
   xmlns="http://www.w3.org/2000/svg"
   xmlns:sodipodi="http://sodipodi.sourceforge.net/DTD/sodipodi-0.dtd"
   xmlns:inkscape="http://www.inkscape.org/namespaces/inkscape"
   viewBox="0 0 304 304"
   width="304"
   height="304"
   version="1.1"
   id="svg4"
   sodipodi:docname="circuitBoard2.svg"
   inkscape:version="0.92.1 r15371">
  <metadata
     id="metadata10">
    <rdf:RDF>
      <cc:Work
         rdf:about="">
        <dc:format>image/svg+xml</dc:format>
        <dc:type
           rdf:resource="http://purl.org/dc/dcmitype/StillImage" />
        <dc:title></dc:title>
      </cc:Work>
    </rdf:RDF>
  </metadata>
  <defs
     id="defs8" />
  <sodipodi:namedview
     pagecolor="#ffffff"
     bordercolor="#666666"
     borderopacity="1"
     objecttolerance="10"
     gridtolerance="10"
     guidetolerance="10"
     inkscape:pageopacity="0"
     inkscape:pageshadow="2"
     inkscape:window-width="1280"
     inkscape:window-height="656"
     id="namedview6"
     showgrid="false"
     inkscape:zoom="0.77631579"
     inkscape:cx="171.9661"
     inkscape:cy="262.77966"
     inkscape:window-x="0"
     inkscape:window-y="27"
     inkscape:window-maximized="1"
     inkscape:current-layer="svg4"
     fit-margin-top="0"
     fit-margin-left="0"
     fit-margin-right="0"
     fit-margin-bottom="0" />
  <path
     d="m 44.1,224 a 5,5 0 1 1 0,2 H 0 v -2 z m 160,48 a 5,5 0 1 1 0,2 H 82 v -2 z m 57.8,-46 a 5,5 0 1 1 0,-2 H 304 v 2 z m 0,16 a 5,5 0 1 1 0,-2 H 304 v 2 z m 6.2,-114 a 5,5 0 1 1 0,2 h -86.2 a 5,5 0 1 1 0,-2 z M 12.1,80 a 5,5 0 1 1 0,2 H 0 v -2 z m 185.8,34 a 5,5 0 1 1 0,-2 h 86.2 a 5,5 0 1 1 0,2 z M 258,12.1 a 5,5 0 1 1 -2,0 V 0 h 2 z m -64,208 a 5,5 0 1 1 -2,0 v -54.2 a 5,5 0 1 1 2,0 z M 242,21.9 V 80 h 62 v 2 H 240 V 21.9 a 5,5 0 1 1 2,0 z m 16,16 V 64 h 46 v 2 H 256 V 37.9 a 5,5 0 1 1 2,0 z m -128,96 V 208 h 16 v 12.1 a 5,5 0 1 1 -2,0 V 210 h -16 v -76.1 a 5,5 0 1 1 2,0 z M 124.1,112 a 5,5 0 1 1 0,2 H 114 v 48 H 85.9 a 5,5 0 1 1 0,-2 H 112 v -48 z m -6.2,130 a 5,5 0 1 1 0,-2 H 176 v -74.1 a 5,5 0 1 1 2,0 V 242 Z m -16,-64 a 5,5 0 1 1 0,-2 H 114 v 48 h 10.1 a 5,5 0 1 1 0,2 H 112 V 178 Z M 66,284.1 a 5,5 0 1 1 -2,0 V 274 H 50 v 30 H 48 V 272 H 66 Z M 236.1,176 a 5,5 0 1 1 0,2 H 226 v 94 h 48 v 32 h -2 v -30 h -48 v -98 z m 25.8,-30 a 5,5 0 1 1 0,-2 H 274 v 44.1 a 5,5 0 1 1 -2,0 V 146 Z m -64,96 a 5,5 0 1 1 0,-2 H 208 v -80 h 16 v -14 h -42.1 a 5,5 0 1 1 0,-2 H 226 v 18 h -16 v 80 z M 284.1,32 a 5,5 0 1 1 0,2 H 272 V 0 h 2 V 32 Z M 98,101.9 V 146 H 53.9 a 5,5 0 1 1 0,-2 H 96 v -42.1 a 5,5 0 1 1 2,0 z M 53.9,34 a 5,5 0 1 1 0,-2 H 80 V 0 h 2 V 34 Z M 114,37.9 V 66 H 82 v 64 H 69.9 a 5,5 0 1 1 0,-2 H 80 V 64 h 32 V 37.9 a 5,5 0 1 1 2,0 z M 101.9,82 a 5,5 0 1 1 0,-2 H 128 V 37.9 a 5,5 0 1 1 2,0 V 82 Z m 16,-64 a 5,5 0 1 1 0,-2 H 146 v 44.1 a 5,5 0 1 1 -2,0 V 18 Z m 102.2,270 a 5,5 0 1 1 0,2 H 98 v 14 H 96 V 288 Z M 242,149.9 V 160 h 16 v 34 h -16 v 62 h 48 v 48 h -2 v -46 h -48 v -66 h 16 v -30 h -16 v -12.1 a 5,5 0 1 1 2,0 z M 53.9,18 a 5,5 0 1 1 0,-2 H 64 V 2 H 48 V 0 h 18 v 18 z m 112,32 a 5,5 0 1 1 0,-2 H 192 V 0 h 50 v 2 h -48 v 48 z m -48,-48 a 5.0009999,5.0009999 0 0 1 -9.8,-2 h 2.07 a 3,3 0 1 0 5.66,0 H 178 V 34 H 160 V 21.9 a 5,5 0 1 1 2,0 V 32 h 14 V 2 Z m 0,96 a 5,5 0 1 1 0,-2 H 137 l 32,-32 h 39 V 21.9 a 5,5 0 1 1 2,0 V 66 h -40.17 l -32,32 z m 28.1,90.1 a 5,5 0 1 1 -2,0 V 111.59 L 175.59,80 H 224 V 21.9 a 5,5 0 1 1 2,0 V 82 H 176.41 L 146,112.41 Z m 16,32 a 5,5 0 1 1 -2,0 V 120.59 L 184.59,96 H 300.1 a 5,5 0 0 1 3.9,-3.9 v 2.07 a 3,3 0 0 0 0,5.66 v 2.07 A 5,5 0 0 1 300.1,98 H 185.41 L 162,121.41 Z m -144,-64 a 5,5 0 1 1 -2,0 v -3.51 l 48,-48 V 48 H 96 V 0 h 2 V 50 H 66 v 55.41 l -48,48 z M 50,53.9 v 43.51 l -48,48 V 208 h 26.1 a 5,5 0 1 1 0,2 H 0 v -65.41 l 48,-48 V 53.9 a 5,5 0 1 1 2,0 z m -16,16 v 19.51 l -34,34 v -2.82 l 32,-32 V 69.9 a 5,5 0 1 1 2,0 z M 12.1,32 a 5,5 0 1 1 0,2 H 9.41 L 0,43.41 V 40.6 L 8.59,32 Z m 265.8,18 a 5,5 0 1 1 0,-2 h 18.69 L 304,40.59 v 2.82 L 297.41,50 Z m -16,160 a 5,5 0 1 1 0,-2 H 288 v -71.41 l 16,-16 v 2.82 l -14,14 V 210 Z m -208,32 a 5,5 0 1 1 0,-2 H 64 V 217.41 L 40.59,194 H 21.9 a 5,5 0 1 1 0,-2 H 41.41 L 66,216.59 V 242 Z m 150.2,14 a 5,5 0 1 1 0,2 H 96 V 201.4 L 56.6,162 H 37.9 a 5,5 0 1 1 0,-2 H 57.4 L 98,200.6 V 256 Z m -150.2,2 a 5,5 0 1 1 0,-2 H 80 V 209.41 L 48.59,178 H 21.9 a 5,5 0 1 1 0,-2 H 49.41 L 82,208.59 V 258 Z M 34,39.8 v 1.61 L 9.41,66 H 0 V 64 H 8.59 L 32,40.59 V 0 h 2 z M 2,300.1 A 5,5 0 0 1 5.9,304 H 3.83 A 3,3 0 0 0 0,302.17 V 256 h 18 v 48 H 16 V 258 H 2 Z M 34,241 v 63 H 32 V 242 H 0 v -2 H 34 Z M 17,18 H 0 V 16 H 16 V 0 h 2 v 18 z m 273,-2 h 14 v 2 H 288 V 0 h 2 z m -32,273 v 15 h -2 v -14 h -14 v 14 h -2 v -16 h 18 z M 0,92.1 A 5.02,5.02 0 0 1 6,97 5,5 0 0 1 0,101.9 V 99.83 A 3,3 0 1 0 0,94.17 Z M 80,272 h 2 v 32 h -2 z m 37.9,32 h -2.07 a 3,3 0 0 0 -5.66,0 h -2.07 a 5,5 0 0 1 9.8,0 z M 5.9,0 A 5.02,5.02 0 0 1 0,5.9 V 3.83 A 3,3 0 0 0 3.83,0 Z m 294.2,0 h 2.07 A 3,3 0 0 0 304,3.83 V 5.9 A 5,5 0 0 1 300.1,0 Z m 3.9,300.1 v 2.07 a 3,3 0 0 0 -1.83,1.83 h -2.07 a 5,5 0 0 1 3.9,-3.9 z M 97,100 a 3,3 0 1 0 0,-6 3,3 0 0 0 0,6 z m 0,-16 a 3,3 0 1 0 0,-6 3,3 0 0 0 0,6 z m 16,16 a 3,3 0 1 0 0,-6 3,3 0 0 0 0,6 z m 16,16 a 3,3 0 1 0 0,-6 3,3 0 0 0 0,6 z m 0,16 a 3,3 0 1 0 0,-6 3,3 0 0 0 0,6 z m -48,32 a 3,3 0 1 0 0,-6 3,3 0 0 0 0,6 z m 16,16 a 3,3 0 1 0 0,-6 3,3 0 0 0 0,6 z m 32,48 a 3,3 0 1 0 0,-6 3,3 0 0 0 0,6 z m -16,16 a 3,3 0 1 0 0,-6 3,3 0 0 0 0,6 z m 32,-16 a 3,3 0 1 0 0,-6 3,3 0 0 0 0,6 z m 0,-32 a 3,3 0 1 0 0,-6 3,3 0 0 0 0,6 z m 16,32 a 3,3 0 1 0 0,-6 3,3 0 0 0 0,6 z m 32,16 a 3,3 0 1 0 0,-6 3,3 0 0 0 0,6 z m 0,-16 a 3,3 0 1 0 0,-6 3,3 0 0 0 0,6 z m -16,-64 a 3,3 0 1 0 0,-6 3,3 0 0 0 0,6 z m 16,0 a 3,3 0 1 0 0,-6 3,3 0 0 0 0,6 z m 16,96 a 3,3 0 1 0 0,-6 3,3 0 0 0 0,6 z m 0,16 a 3,3 0 1 0 0,-6 3,3 0 0 0 0,6 z m 16,16 a 3,3 0 1 0 0,-6 3,3 0 0 0 0,6 z m 16,-144 a 3,3 0 1 0 0,-6 3,3 0 0 0 0,6 z m 0,32 a 3,3 0 1 0 0,-6 3,3 0 0 0 0,6 z m 16,-32 a 3,3 0 1 0 0,-6 3,3 0 0 0 0,6 z m 16,-16 a 3,3 0 1 0 0,-6 3,3 0 0 0 0,6 z m -96,0 a 3,3 0 1 0 0,-6 3,3 0 0 0 0,6 z m 0,16 a 3,3 0 1 0 0,-6 3,3 0 0 0 0,6 z m 16,-32 a 3,3 0 1 0 0,-6 3,3 0 0 0 0,6 z m 96,0 a 3,3 0 1 0 0,-6 3,3 0 0 0 0,6 z M 273,52 a 3,3 0 1 0 0,-6 3,3 0 0 0 0,6 z m 16,-16 a 3,3 0 1 0 0,-6 3,3 0 0 0 0,6 z m -32,0 a 3,3 0 1 0 0,-6 3,3 0 0 0 0,6 z m 0,-16 a 3,3 0 1 0 0,-6 3,3 0 0 0 0,6 z m -16,0 a 3,3 0 1 0 0,-6 3,3 0 0 0 0,6 z m -16,0 a 3,3 0 1 0 0,-6 3,3 0 0 0 0,6 z m -16,0 a 3,3 0 1 0 0,-6 3,3 0 0 0 0,6 z M 49,36 a 3,3 0 1 0 0,-6 3,3 0 0 0 0,6 z m -32,0 a 3,3 0 1 0 0,-6 3,3 0 0 0 0,6 z m 32,16 a 3,3 0 1 0 0,-6 3,3 0 0 0 0,6 z M 33,68 a 3,3 0 1 0 0,-6 3,3 0 0 0 0,6 z M 49,20 a 3,3 0 1 0 0,-6 3,3 0 0 0 0,6 z m 0,240 a 3,3 0 1 0 0,-6 3,3 0 0 0 0,6 z m 16,32 a 3,3 0 1 0 0,-6 3,3 0 0 0 0,6 z M 49,228 a 3,3 0 1 0 0,-6 3,3 0 0 0 0,6 z m 0,16 a 3,3 0 1 0 0,-6 3,3 0 0 0 0,6 z M 33,212 a 3,3 0 1 0 0,-6 3,3 0 0 0 0,6 z M 113,36 a 3,3 0 1 0 0,-6 3,3 0 0 0 0,6 z m 16,0 a 3,3 0 1 0 0,-6 3,3 0 0 0 0,6 z M 113,20 a 3,3 0 1 0 0,-6 3,3 0 0 0 0,6 z m 32,48 a 3,3 0 1 0 0,-6 3,3 0 0 0 0,6 z m 16,-16 a 3,3 0 1 0 0,-6 3,3 0 0 0 0,6 z m 0,-32 a 3,3 0 1 0 0,-6 3,3 0 0 0 0,6 z m 112,176 a 3,3 0 1 0 0,-6 3,3 0 0 0 0,6 z m -16,16 a 3,3 0 1 0 0,-6 3,3 0 0 0 0,6 z m 0,16 a 3,3 0 1 0 0,-6 3,3 0 0 0 0,6 z m 0,16 a 3,3 0 1 0 0,-6 3,3 0 0 0 0,6 z M 17,180 a 3,3 0 1 0 0,-6 3,3 0 0 0 0,6 z m 0,16 a 3,3 0 1 0 0,-6 3,3 0 0 0 0,6 z m 0,-32 a 3,3 0 1 0 0,-6 3,3 0 0 0 0,6 z m 16,0 a 3,3 0 1 0 0,-6 3,3 0 0 0 0,6 z M 17,84 a 3,3 0 1 0 0,-6 3,3 0 0 0 0,6 z m 32,64 a 3,3 0 1 0 0,-6 3,3 0 0 0 0,6 z m 16,-16 a 3,3 0 1 0 0,-6 3,3 0 0 0 0,6 z"
     id="path2"
     inkscape:connector-curvature="0"
     style="fill:#000000" />
</svg>
