<?xml version="1.0" encoding="UTF-8" standalone="no"?>
<!-- Created with Inkscape (http://www.inkscape.org/) -->

<svg
   xmlns:dc="http://purl.org/dc/elements/1.1/"
   xmlns:cc="http://creativecommons.org/ns#"
   xmlns:rdf="http://www.w3.org/1999/02/22-rdf-syntax-ns#"
   xmlns:svg="http://www.w3.org/2000/svg"
   xmlns="http://www.w3.org/2000/svg"
   xmlns:sodipodi="http://sodipodi.sourceforge.net/DTD/sodipodi-0.dtd"
   xmlns:inkscape="http://www.inkscape.org/namespaces/inkscape"
   width="63.22282mm"
   height="106.99246mm"
   viewBox="0 0 63.22282 106.99246"
   version="1.1"
   id="svg8"
   inkscape:version="0.92.1 r15371"
   sodipodi:docname="phone.svg">
  <defs
     id="defs2" />
  <sodipodi:namedview
     id="base"
     pagecolor="#ffffff"
     bordercolor="#666666"
     borderopacity="1.0"
     inkscape:pageopacity="0.0"
     inkscape:pageshadow="2"
     inkscape:zoom="0.62004635"
     inkscape:cx="524.82427"
     inkscape:cy="26.24483"
     inkscape:document-units="mm"
     inkscape:current-layer="layer1"
     showgrid="false"
     showguides="true"
     inkscape:guide-bbox="true"
     fit-margin-top="0"
     fit-margin-left="0"
     fit-margin-right="0"
     fit-margin-bottom="0"
     inkscape:window-width="1280"
     inkscape:window-height="656"
     inkscape:window-x="0"
     inkscape:window-y="27"
     inkscape:window-maximized="1" />
  <metadata
     id="metadata5">
    <rdf:RDF>
      <cc:Work
         rdf:about="">
        <dc:format>image/svg+xml</dc:format>
        <dc:type
           rdf:resource="http://purl.org/dc/dcmitype/StillImage" />
        <dc:title></dc:title>
      </cc:Work>
    </rdf:RDF>
  </metadata>
  <g
     inkscape:label="Layer 1"
     inkscape:groupmode="layer"
     id="layer1"
     transform="translate(-46.176789,-46.617939)">
    <path
       id="🔹-Icon-Color"
       d="M 97.241367,46.617939 H 58.335015 c -6.711336,0 -12.158226,5.44689 -12.158226,12.15823 v 82.675991 c 0,6.71135 5.44689,12.15824 12.158226,12.15824 h 38.906352 c 6.711353,0 12.158243,-5.44689 12.158243,-12.15824 V 58.776169 c 0,-6.71134 -5.44689,-12.15823 -12.158243,-12.15823 z M 77.788197,148.7471 c -4.036532,0 -7.294942,-3.2584 -7.294942,-7.29494 0,-4.03653 3.25841,-7.29494 7.294942,-7.29494 4.03653,0 7.29494,3.25841 7.29494,7.29494 0,4.03654 -3.25841,7.29494 -7.29494,7.29494 z m 21.88482,-19.45317 H 55.903375 V 61.207819 h 43.769642 z"
       inkscape:connector-curvature="0"
       style="fill:#1d1d1d;fill-rule:evenodd;stroke:none;stroke-width:0.26458329" />
  </g>
</svg>
