<?xml version="1.0" encoding="UTF-8" standalone="no"?>
<svg
   xmlns:dc="http://purl.org/dc/elements/1.1/"
   xmlns:cc="http://creativecommons.org/ns#"
   xmlns:rdf="http://www.w3.org/1999/02/22-rdf-syntax-ns#"
   xmlns:svg="http://www.w3.org/2000/svg"
   xmlns="http://www.w3.org/2000/svg"
   xmlns:sodipodi="http://sodipodi.sourceforge.net/DTD/sodipodi-0.dtd"
   xmlns:inkscape="http://www.inkscape.org/namespaces/inkscape"
   width="224.00002"
   height="134.00002"
   viewBox="0 0 224.00002 134.00002"
   version="1.1"
   id="svg11"
   sodipodi:docname="rain2.svg"
   inkscape:version="0.92.1 r15371">
  <metadata
     id="metadata15">
    <rdf:RDF>
      <cc:Work
         rdf:about="">
        <dc:format>image/svg+xml</dc:format>
        <dc:type
           rdf:resource="http://purl.org/dc/dcmitype/StillImage" />
        <dc:title>rain</dc:title>
      </cc:Work>
    </rdf:RDF>
  </metadata>
  <sodipodi:namedview
     pagecolor="#ffffff"
     bordercolor="#666666"
     borderopacity="1"
     objecttolerance="10"
     gridtolerance="10"
     guidetolerance="10"
     inkscape:pageopacity="0"
     inkscape:pageshadow="2"
     inkscape:window-width="1280"
     inkscape:window-height="656"
     id="namedview13"
     showgrid="false"
     inkscape:snap-global="true"
     inkscape:snap-bbox="false"
     inkscape:bbox-nodes="true"
     inkscape:snap-page="true"
     inkscape:zoom="1.6472528"
     inkscape:cx="122.22502"
     inkscape:cy="87.894235"
     inkscape:window-x="0"
     inkscape:window-y="27"
     inkscape:window-maximized="1"
     inkscape:current-layer="svg11"
     fit-margin-top="0"
     fit-margin-left="0"
     fit-margin-right="0"
     fit-margin-bottom="0" />
  <!-- Generator: Sketch 40.1 (33804) - http://www.bohemiancoding.com/sketch -->
  <title
     id="title2">rain</title>
  <desc
     id="desc4">Created with Sketch.</desc>
  <defs
     id="defs6" />
  <path
     id="path22320"
     style="fill:#000000;fill-rule:evenodd;stroke:none;stroke-width:1"
     d="M 6,8.990778 C 6,8.443586 6.443865,8 7,8 7.552285,8 8,8.450975 8,8.990778 v 4.018444 C 8,13.556414 7.556135,14 7,14 6.447715,14 6,13.549025 6,13.009222 Z m -6,-8 C 0,0.443586 0.443865,0 1,0 1.552285,0 2,0.450975 2,0.990778 V 5.009222 C 2,5.556414 1.556135,6 1,6 0.447715,6 0,5.549025 0,5.009222 Z m 6,24.000001 c 0,-0.547192 0.443865,-0.990778 1,-0.990778 0.552285,0 1,0.450975 1,0.990778 v 4.018444 c 0,0.547192 -0.443865,0.990778 -1,0.990778 -0.552285,0 -1,-0.450975 -1,-0.990778 z m -6,-8 c 0,-0.547192 0.443865,-0.990778 1,-0.990778 0.552285,0 1,0.450975 1,0.990778 v 4.018444 c 0,0.547192 -0.443865,0.990778 -1,0.990778 -0.552285,0 -1,-0.450975 -1,-0.990778 z m 6,24.000002 c 0,-0.547192 0.443865,-0.990778 1,-0.990778 0.552285,0 1,0.450975 1,0.990778 v 4.018444 c 0,0.547192 -0.443865,0.990778 -1,0.990778 -0.552285,0 -1,-0.450975 -1,-0.990778 z m -6,-8 c 0,-0.547192 0.443865,-0.990778 1,-0.990778 0.552285,0 1,0.450975 1,0.990778 v 4.018444 c 0,0.547192 -0.443865,0.990778 -1,0.990778 -0.552285,0 -1,-0.450975 -1,-0.990778 z m 6,24.000001 c 0,-0.547192 0.443865,-0.990778 1,-0.990778 0.552285,0 1,0.450975 1,0.990778 v 4.018444 c 0,0.547192 -0.443865,0.990778 -1,0.990778 -0.552285,0 -1,-0.450975 -1,-0.990778 z m -6,-8 c 0,-0.547192 0.443865,-0.990778 1,-0.990778 0.552285,0 1,0.450975 1,0.990778 v 4.018444 c 0,0.547192 -0.443865,0.990778 -1,0.990778 -0.552285,0 -1,-0.450975 -1,-0.990778 z m 6,24.000002 c 0,-0.547192 0.443865,-0.990778 1,-0.990778 0.552285,0 1,0.450975 1,0.990778 v 4.018447 c 0,0.54719 -0.443865,0.99078 -1,0.99078 -0.552285,0 -1,-0.45098 -1,-0.99078 z m -6,-8 c 0,-0.547192 0.443865,-0.990778 1,-0.990778 0.552285,0 1,0.450975 1,0.990778 v 4.018444 c 0,0.547192 -0.443865,0.990778 -1,0.990778 -0.552285,0 -1,-0.450975 -1,-0.990778 z m 6,24.000007 c 0,-0.54719 0.443865,-0.99078 1,-0.99078 0.552285,0 1,0.45098 1,0.99078 v 4.01844 c 0,0.54719 -0.443865,0.99078 -1,0.99078 -0.552285,0 -1,-0.45097 -1,-0.99078 z m -6,-8 c 0,-0.54719 0.443865,-0.99078 1,-0.99078 0.552285,0 1,0.45098 1,0.99078 v 4.01844 c 0,0.54719 -0.443865,0.99078 -1,0.99078 -0.552285,0 -1,-0.45098 -1,-0.99078 z m 6,23.999999 c 0,-0.54719 0.443865,-0.99078 1,-0.99078 0.552285,0 1,0.45098 1,0.99078 v 4.01844 c 0,0.54719 -0.443865,0.99078 -1,0.99078 -0.552285,0 -1,-0.45098 -1,-0.99078 z M 0,96.990791 c 0,-0.54719 0.443865,-0.99078 1,-0.99078 0.552285,0 1,0.45098 1,0.99078 v 4.018439 c 0,0.54719 -0.443865,0.99078 -1,0.99078 -0.552285,0 -1,-0.45098 -1,-0.99078 z m 6,23.999999 c 0,-0.54719 0.443865,-0.99078 1,-0.99078 0.552285,0 1,0.45098 1,0.99078 v 4.01844 c 0,0.54719 -0.443865,0.99078 -1,0.99078 -0.552285,0 -1,-0.45098 -1,-0.99078 z m -6,-8 c 0,-0.54719 0.443865,-0.99078 1,-0.99078 0.552285,0 1,0.45098 1,0.99078 v 4.01844 c 0,0.54719 -0.443865,0.99078 -1,0.99078 -0.552285,0 -1,-0.45098 -1,-0.99078 z m 0,16 c 0,-0.54719 0.443865,-0.99078 1,-0.99078 0.552285,0 1,0.45098 1,0.99078 v 4.01844 c 0,0.54719 -0.443865,0.99078 -1,0.99078 -0.552285,0 -1,-0.45098 -1,-0.99078 z M 18,8.990778 C 18,8.443586 18.443865,8 19,8 c 0.552285,0 1,0.450975 1,0.990778 v 4.018444 C 20,13.556414 19.556135,14 19,14 18.447715,14 18,13.549025 18,13.009222 Z m -6,-8 C 12,0.443586 12.443865,0 13,0 c 0.552285,0 1,0.450975 1,0.990778 V 5.009222 C 14,5.556414 13.556135,6 13,6 12.447715,6 12,5.549025 12,5.009222 Z m 6,24.000001 c 0,-0.547192 0.443865,-0.990778 1,-0.990778 0.552285,0 1,0.450975 1,0.990778 v 4.018444 c 0,0.547192 -0.443865,0.990778 -1,0.990778 -0.552285,0 -1,-0.450975 -1,-0.990778 z m -6,-8 c 0,-0.547192 0.443865,-0.990778 1,-0.990778 0.552285,0 1,0.450975 1,0.990778 v 4.018444 c 0,0.547192 -0.443865,0.990778 -1,0.990778 -0.552285,0 -1,-0.450975 -1,-0.990778 z m 6,24.000002 c 0,-0.547192 0.443865,-0.990778 1,-0.990778 0.552285,0 1,0.450975 1,0.990778 v 4.018444 c 0,0.547192 -0.443865,0.990778 -1,0.990778 -0.552285,0 -1,-0.450975 -1,-0.990778 z m -6,-8 c 0,-0.547192 0.443865,-0.990778 1,-0.990778 0.552285,0 1,0.450975 1,0.990778 v 4.018444 c 0,0.547192 -0.443865,0.990778 -1,0.990778 -0.552285,0 -1,-0.450975 -1,-0.990778 z m 6,24.000001 c 0,-0.547192 0.443865,-0.990778 1,-0.990778 0.552285,0 1,0.450975 1,0.990778 v 4.018444 c 0,0.547192 -0.443865,0.990778 -1,0.990778 -0.552285,0 -1,-0.450975 -1,-0.990778 z m -6,-8 c 0,-0.547192 0.443865,-0.990778 1,-0.990778 0.552285,0 1,0.450975 1,0.990778 v 4.018444 c 0,0.547192 -0.443865,0.990778 -1,0.990778 -0.552285,0 -1,-0.450975 -1,-0.990778 z m 6,24.000002 c 0,-0.547192 0.443865,-0.990778 1,-0.990778 0.552285,0 1,0.450975 1,0.990778 v 4.018447 c 0,0.54719 -0.443865,0.99078 -1,0.99078 -0.552285,0 -1,-0.45098 -1,-0.99078 z m -6,-8 c 0,-0.547192 0.443865,-0.990778 1,-0.990778 0.552285,0 1,0.450975 1,0.990778 v 4.018444 c 0,0.547192 -0.443865,0.990778 -1,0.990778 -0.552285,0 -1,-0.450975 -1,-0.990778 z m 6,24.000007 c 0,-0.54719 0.443865,-0.99078 1,-0.99078 0.552285,0 1,0.45098 1,0.99078 v 4.01844 c 0,0.54719 -0.443865,0.99078 -1,0.99078 -0.552285,0 -1,-0.45097 -1,-0.99078 z m -6,-8 c 0,-0.54719 0.443865,-0.99078 1,-0.99078 0.552285,0 1,0.45098 1,0.99078 v 4.01844 c 0,0.54719 -0.443865,0.99078 -1,0.99078 -0.552285,0 -1,-0.45098 -1,-0.99078 z m 6,23.999999 c 0,-0.54719 0.443865,-0.99078 1,-0.99078 0.552285,0 1,0.45098 1,0.99078 v 4.01844 c 0,0.54719 -0.443865,0.99078 -1,0.99078 -0.552285,0 -1,-0.45098 -1,-0.99078 z m -6,-7.999999 c 0,-0.54719 0.443865,-0.99078 1,-0.99078 0.552285,0 1,0.45098 1,0.99078 v 4.018439 c 0,0.54719 -0.443865,0.99078 -1,0.99078 -0.552285,0 -1,-0.45098 -1,-0.99078 z m 6,23.999999 c 0,-0.54719 0.443865,-0.99078 1,-0.99078 0.552285,0 1,0.45098 1,0.99078 v 4.01844 c 0,0.54719 -0.443865,0.99078 -1,0.99078 -0.552285,0 -1,-0.45098 -1,-0.99078 z m -6,-8 c 0,-0.54719 0.443865,-0.99078 1,-0.99078 0.552285,0 1,0.45098 1,0.99078 v 4.01844 c 0,0.54719 -0.443865,0.99078 -1,0.99078 -0.552285,0 -1,-0.45098 -1,-0.99078 z m 0,16 c 0,-0.54719 0.443865,-0.99078 1,-0.99078 0.552285,0 1,0.45098 1,0.99078 v 4.01844 c 0,0.54719 -0.443865,0.99078 -1,0.99078 -0.552285,0 -1,-0.45098 -1,-0.99078 z M 30.000001,8.990778 c 0,-0.547192 0.443865,-0.990778 1,-0.990778 0.552285,0 1,0.450975 1,0.990778 v 4.018444 c 0,0.547192 -0.443865,0.990778 -1,0.990778 -0.552285,0 -1,-0.450975 -1,-0.990778 z m -6,-8 c 0,-0.547192 0.443865,-0.990778 1,-0.990778 0.552285,0 1,0.450975 1,0.990778 v 4.018444 c 0,0.547192 -0.443865,0.990778 -1,0.990778 -0.552285,0 -1,-0.450975 -1,-0.990778 z m 6,24.000001 c 0,-0.547192 0.443865,-0.990778 1,-0.990778 0.552285,0 1,0.450975 1,0.990778 v 4.018444 c 0,0.547192 -0.443865,0.990778 -1,0.990778 -0.552285,0 -1,-0.450975 -1,-0.990778 z m -6,-8 c 0,-0.547192 0.443865,-0.990778 1,-0.990778 0.552285,0 1,0.450975 1,0.990778 v 4.018444 c 0,0.547192 -0.443865,0.990778 -1,0.990778 -0.552285,0 -1,-0.450975 -1,-0.990778 z m 6,24.000002 c 0,-0.547192 0.443865,-0.990778 1,-0.990778 0.552285,0 1,0.450975 1,0.990778 v 4.018444 c 0,0.547192 -0.443865,0.990778 -1,0.990778 -0.552285,0 -1,-0.450975 -1,-0.990778 z m -6,-8 c 0,-0.547192 0.443865,-0.990778 1,-0.990778 0.552285,0 1,0.450975 1,0.990778 v 4.018444 c 0,0.547192 -0.443865,0.990778 -1,0.990778 -0.552285,0 -1,-0.450975 -1,-0.990778 z m 6,24.000001 c 0,-0.547192 0.443865,-0.990778 1,-0.990778 0.552285,0 1,0.450975 1,0.990778 v 4.018444 c 0,0.547192 -0.443865,0.990778 -1,0.990778 -0.552285,0 -1,-0.450975 -1,-0.990778 z m -6,-8 c 0,-0.547192 0.443865,-0.990778 1,-0.990778 0.552285,0 1,0.450975 1,0.990778 v 4.018444 c 0,0.547192 -0.443865,0.990778 -1,0.990778 -0.552285,0 -1,-0.450975 -1,-0.990778 z m 6,24.000002 c 0,-0.547192 0.443865,-0.990778 1,-0.990778 0.552285,0 1,0.450975 1,0.990778 v 4.018447 c 0,0.54719 -0.443865,0.99078 -1,0.99078 -0.552285,0 -1,-0.45098 -1,-0.99078 z m -6,-8 c 0,-0.547192 0.443865,-0.990778 1,-0.990778 0.552285,0 1,0.450975 1,0.990778 v 4.018444 c 0,0.547192 -0.443865,0.990778 -1,0.990778 -0.552285,0 -1,-0.450975 -1,-0.990778 z m 6,24.000007 c 0,-0.54719 0.443865,-0.99078 1,-0.99078 0.552285,0 1,0.45098 1,0.99078 v 4.01844 c 0,0.54719 -0.443865,0.99078 -1,0.99078 -0.552285,0 -1,-0.45097 -1,-0.99078 z m -6,-8 c 0,-0.54719 0.443865,-0.99078 1,-0.99078 0.552285,0 1,0.45098 1,0.99078 v 4.01844 c 0,0.54719 -0.443865,0.99078 -1,0.99078 -0.552285,0 -1,-0.45098 -1,-0.99078 z m 6,23.999999 c 0,-0.54719 0.443865,-0.99078 1,-0.99078 0.552285,0 1,0.45098 1,0.99078 v 4.01844 c 0,0.54719 -0.443865,0.99078 -1,0.99078 -0.552285,0 -1,-0.45098 -1,-0.99078 z m -6,-7.999999 c 0,-0.54719 0.443865,-0.99078 1,-0.99078 0.552285,0 1,0.45098 1,0.99078 v 4.018439 c 0,0.54719 -0.443865,0.99078 -1,0.99078 -0.552285,0 -1,-0.45098 -1,-0.99078 z m 6,23.999999 c 0,-0.54719 0.443865,-0.99078 1,-0.99078 0.552285,0 1,0.45098 1,0.99078 v 4.01844 c 0,0.54719 -0.443865,0.99078 -1,0.99078 -0.552285,0 -1,-0.45098 -1,-0.99078 z m -6,-8 c 0,-0.54719 0.443865,-0.99078 1,-0.99078 0.552285,0 1,0.45098 1,0.99078 v 4.01844 c 0,0.54719 -0.443865,0.99078 -1,0.99078 -0.552285,0 -1,-0.45098 -1,-0.99078 z m 0,16 c 0,-0.54719 0.443865,-0.99078 1,-0.99078 0.552285,0 1,0.45098 1,0.99078 v 4.01844 c 0,0.54719 -0.443865,0.99078 -1,0.99078 -0.552285,0 -1,-0.45098 -1,-0.99078 z m 18,-120.000012 c 0,-0.547192 0.443865,-0.990778 1,-0.990778 0.552285,0 1,0.450975 1,0.990778 v 4.018444 c 0,0.547192 -0.443865,0.990778 -1,0.990778 -0.552285,0 -1,-0.450975 -1,-0.990778 z m -6,-8 c 0,-0.547192 0.443865,-0.990778 1,-0.990778 0.552285,0 1,0.450975 1,0.990778 v 4.018444 c 0,0.547192 -0.443865,0.990778 -1,0.990778 -0.552285,0 -1,-0.450975 -1,-0.990778 z m 6,24.000001 c 0,-0.547192 0.443865,-0.990778 1,-0.990778 0.552285,0 1,0.450975 1,0.990778 v 4.018444 c 0,0.547192 -0.443865,0.990778 -1,0.990778 -0.552285,0 -1,-0.450975 -1,-0.990778 z m -6,-8 c 0,-0.547192 0.443865,-0.990778 1,-0.990778 0.552285,0 1,0.450975 1,0.990778 v 4.018444 c 0,0.547192 -0.443865,0.990778 -1,0.990778 -0.552285,0 -1,-0.450975 -1,-0.990778 z m 6,24.000002 c 0,-0.547192 0.443865,-0.990778 1,-0.990778 0.552285,0 1,0.450975 1,0.990778 v 4.018444 c 0,0.547192 -0.443865,0.990778 -1,0.990778 -0.552285,0 -1,-0.450975 -1,-0.990778 z m -6,-8 c 0,-0.547192 0.443865,-0.990778 1,-0.990778 0.552285,0 1,0.450975 1,0.990778 v 4.018444 c 0,0.547192 -0.443865,0.990778 -1,0.990778 -0.552285,0 -1,-0.450975 -1,-0.990778 z m 6,24.000001 c 0,-0.547192 0.443865,-0.990778 1,-0.990778 0.552285,0 1,0.450975 1,0.990778 v 4.018444 c 0,0.547192 -0.443865,0.990778 -1,0.990778 -0.552285,0 -1,-0.450975 -1,-0.990778 z m -6,-8 c 0,-0.547192 0.443865,-0.990778 1,-0.990778 0.552285,0 1,0.450975 1,0.990778 v 4.018444 c 0,0.547192 -0.443865,0.990778 -1,0.990778 -0.552285,0 -1,-0.450975 -1,-0.990778 z m 6,24.000002 c 0,-0.547192 0.443865,-0.990778 1,-0.990778 0.552285,0 1,0.450975 1,0.990778 v 4.018447 c 0,0.54719 -0.443865,0.99078 -1,0.99078 -0.552285,0 -1,-0.45098 -1,-0.99078 z m -6,-8 c 0,-0.547192 0.443865,-0.990778 1,-0.990778 0.552285,0 1,0.450975 1,0.990778 v 4.018444 c 0,0.547192 -0.443865,0.990778 -1,0.990778 -0.552285,0 -1,-0.450975 -1,-0.990778 z m 6,24.000007 c 0,-0.54719 0.443865,-0.99078 1,-0.99078 0.552285,0 1,0.45098 1,0.99078 v 4.01844 c 0,0.54719 -0.443865,0.99078 -1,0.99078 -0.552285,0 -1,-0.45097 -1,-0.99078 z m -6,-8 c 0,-0.54719 0.443865,-0.99078 1,-0.99078 0.552285,0 1,0.45098 1,0.99078 v 4.01844 c 0,0.54719 -0.443865,0.99078 -1,0.99078 -0.552285,0 -1,-0.45098 -1,-0.99078 z m 6,23.999999 c 0,-0.54719 0.443865,-0.99078 1,-0.99078 0.552285,0 1,0.45098 1,0.99078 v 4.01844 c 0,0.54719 -0.443865,0.99078 -1,0.99078 -0.552285,0 -1,-0.45098 -1,-0.99078 z m -6,-7.999999 c 0,-0.54719 0.443865,-0.99078 1,-0.99078 0.552285,0 1,0.45098 1,0.99078 v 4.018439 c 0,0.54719 -0.443865,0.99078 -1,0.99078 -0.552285,0 -1,-0.45098 -1,-0.99078 z m 6,23.999999 c 0,-0.54719 0.443865,-0.99078 1,-0.99078 0.552285,0 1,0.45098 1,0.99078 v 4.01844 c 0,0.54719 -0.443865,0.99078 -1,0.99078 -0.552285,0 -1,-0.45098 -1,-0.99078 z m -6,-8 c 0,-0.54719 0.443865,-0.99078 1,-0.99078 0.552285,0 1,0.45098 1,0.99078 v 4.01844 c 0,0.54719 -0.443865,0.99078 -1,0.99078 -0.552285,0 -1,-0.45098 -1,-0.99078 z m 0,16 c 0,-0.54719 0.443865,-0.99078 1,-0.99078 0.552285,0 1,0.45098 1,0.99078 v 4.01844 c 0,0.54719 -0.443865,0.99078 -1,0.99078 -0.552285,0 -1,-0.45098 -1,-0.99078 z M 54.000002,8.990778 c 0,-0.547192 0.443865,-0.990778 1,-0.990778 0.552285,0 1,0.450975 1,0.990778 v 4.018444 c 0,0.547192 -0.443865,0.990778 -1,0.990778 -0.552285,0 -1,-0.450975 -1,-0.990778 z m -6,-8 c 0,-0.547192 0.443865,-0.990778 1,-0.990778 0.552285,0 1,0.450975 1,0.990778 v 4.018444 c 0,0.547192 -0.443865,0.990778 -1,0.990778 -0.552285,0 -1,-0.450975 -1,-0.990778 z m 6,24.000001 c 0,-0.547192 0.443865,-0.990778 1,-0.990778 0.552285,0 1,0.450975 1,0.990778 v 4.018444 c 0,0.547192 -0.443865,0.990778 -1,0.990778 -0.552285,0 -1,-0.450975 -1,-0.990778 z m -6,-8 c 0,-0.547192 0.443865,-0.990778 1,-0.990778 0.552285,0 1,0.450975 1,0.990778 v 4.018444 c 0,0.547192 -0.443865,0.990778 -1,0.990778 -0.552285,0 -1,-0.450975 -1,-0.990778 z m 6,24.000002 c 0,-0.547192 0.443865,-0.990778 1,-0.990778 0.552285,0 1,0.450975 1,0.990778 v 4.018444 c 0,0.547192 -0.443865,0.990778 -1,0.990778 -0.552285,0 -1,-0.450975 -1,-0.990778 z m -6,-8 c 0,-0.547192 0.443865,-0.990778 1,-0.990778 0.552285,0 1,0.450975 1,0.990778 v 4.018444 c 0,0.547192 -0.443865,0.990778 -1,0.990778 -0.552285,0 -1,-0.450975 -1,-0.990778 z m 6,24.000001 c 0,-0.547192 0.443865,-0.990778 1,-0.990778 0.552285,0 1,0.450975 1,0.990778 v 4.018444 c 0,0.547192 -0.443865,0.990778 -1,0.990778 -0.552285,0 -1,-0.450975 -1,-0.990778 z m -6,-8 c 0,-0.547192 0.443865,-0.990778 1,-0.990778 0.552285,0 1,0.450975 1,0.990778 v 4.018444 c 0,0.547192 -0.443865,0.990778 -1,0.990778 -0.552285,0 -1,-0.450975 -1,-0.990778 z m 6,24.000002 c 0,-0.547192 0.443865,-0.990778 1,-0.990778 0.552285,0 1,0.450975 1,0.990778 v 4.018447 c 0,0.54719 -0.443865,0.99078 -1,0.99078 -0.552285,0 -1,-0.45098 -1,-0.99078 z m -6,-8 c 0,-0.547192 0.443865,-0.990778 1,-0.990778 0.552285,0 1,0.450975 1,0.990778 v 4.018444 c 0,0.547192 -0.443865,0.990778 -1,0.990778 -0.552285,0 -1,-0.450975 -1,-0.990778 z m 6,24.000007 c 0,-0.54719 0.443865,-0.99078 1,-0.99078 0.552285,0 1,0.45098 1,0.99078 v 4.01844 c 0,0.54719 -0.443865,0.99078 -1,0.99078 -0.552285,0 -1,-0.45097 -1,-0.99078 z m -6,-8 c 0,-0.54719 0.443865,-0.99078 1,-0.99078 0.552285,0 1,0.45098 1,0.99078 v 4.01844 c 0,0.54719 -0.443865,0.99078 -1,0.99078 -0.552285,0 -1,-0.45098 -1,-0.99078 z m 6,23.999999 c 0,-0.54719 0.443865,-0.99078 1,-0.99078 0.552285,0 1,0.45098 1,0.99078 v 4.01844 c 0,0.54719 -0.443865,0.99078 -1,0.99078 -0.552285,0 -1,-0.45098 -1,-0.99078 z m -6,-7.999999 c 0,-0.54719 0.443865,-0.99078 1,-0.99078 0.552285,0 1,0.45098 1,0.99078 v 4.018439 c 0,0.54719 -0.443865,0.99078 -1,0.99078 -0.552285,0 -1,-0.45098 -1,-0.99078 z m 6,23.999999 c 0,-0.54719 0.443865,-0.99078 1,-0.99078 0.552285,0 1,0.45098 1,0.99078 v 4.01844 c 0,0.54719 -0.443865,0.99078 -1,0.99078 -0.552285,0 -1,-0.45098 -1,-0.99078 z m -6,-8 c 0,-0.54719 0.443865,-0.99078 1,-0.99078 0.552285,0 1,0.45098 1,0.99078 v 4.01844 c 0,0.54719 -0.443865,0.99078 -1,0.99078 -0.552285,0 -1,-0.45098 -1,-0.99078 z m 0,16 c 0,-0.54719 0.443865,-0.99078 1,-0.99078 0.552285,0 1,0.45098 1,0.99078 v 4.01844 c 0,0.54719 -0.443865,0.99078 -1,0.99078 -0.552285,0 -1,-0.45098 -1,-0.99078 z m 18,-120.000012 c 0,-0.547192 0.443865,-0.990778 1,-0.990778 0.552285,0 1,0.450975 1,0.990778 v 4.018444 c 0,0.547192 -0.443865,0.990778 -1,0.990778 -0.552285,0 -1,-0.450975 -1,-0.990778 z m -6,-8 c 0,-0.547192 0.443865,-0.990778 1,-0.990778 0.552285,0 1,0.450975 1,0.990778 v 4.018444 c 0,0.547192 -0.443865,0.990778 -1,0.990778 -0.552285,0 -1,-0.450975 -1,-0.990778 z m 6,24.000001 c 0,-0.547192 0.443865,-0.990778 1,-0.990778 0.552285,0 1,0.450975 1,0.990778 v 4.018444 c 0,0.547192 -0.443865,0.990778 -1,0.990778 -0.552285,0 -1,-0.450975 -1,-0.990778 z m -6,-8 c 0,-0.547192 0.443865,-0.990778 1,-0.990778 0.552285,0 1,0.450975 1,0.990778 v 4.018444 c 0,0.547192 -0.443865,0.990778 -1,0.990778 -0.552285,0 -1,-0.450975 -1,-0.990778 z m 6,24.000002 c 0,-0.547192 0.443865,-0.990778 1,-0.990778 0.552285,0 1,0.450975 1,0.990778 v 4.018444 c 0,0.547192 -0.443865,0.990778 -1,0.990778 -0.552285,0 -1,-0.450975 -1,-0.990778 z m -6,-8 c 0,-0.547192 0.443865,-0.990778 1,-0.990778 0.552285,0 1,0.450975 1,0.990778 v 4.018444 c 0,0.547192 -0.443865,0.990778 -1,0.990778 -0.552285,0 -1,-0.450975 -1,-0.990778 z m 6,24.000001 c 0,-0.547192 0.443865,-0.990778 1,-0.990778 0.552285,0 1,0.450975 1,0.990778 v 4.018444 c 0,0.547192 -0.443865,0.990778 -1,0.990778 -0.552285,0 -1,-0.450975 -1,-0.990778 z m -6,-8 c 0,-0.547192 0.443865,-0.990778 1,-0.990778 0.552285,0 1,0.450975 1,0.990778 v 4.018444 c 0,0.547192 -0.443865,0.990778 -1,0.990778 -0.552285,0 -1,-0.450975 -1,-0.990778 z m 6,24.000002 c 0,-0.547192 0.443865,-0.990778 1,-0.990778 0.552285,0 1,0.450975 1,0.990778 v 4.018447 c 0,0.54719 -0.443865,0.99078 -1,0.99078 -0.552285,0 -1,-0.45098 -1,-0.99078 z m -6,-8 c 0,-0.547192 0.443865,-0.990778 1,-0.990778 0.552285,0 1,0.450975 1,0.990778 v 4.018444 c 0,0.547192 -0.443865,0.990778 -1,0.990778 -0.552285,0 -1,-0.450975 -1,-0.990778 z m 6,24.000007 c 0,-0.54719 0.443865,-0.99078 1,-0.99078 0.552285,0 1,0.45098 1,0.99078 v 4.01844 c 0,0.54719 -0.443865,0.99078 -1,0.99078 -0.552285,0 -1,-0.45097 -1,-0.99078 z m -6,-8 c 0,-0.54719 0.443865,-0.99078 1,-0.99078 0.552285,0 1,0.45098 1,0.99078 v 4.01844 c 0,0.54719 -0.443865,0.99078 -1,0.99078 -0.552285,0 -1,-0.45098 -1,-0.99078 z m 6,23.999999 c 0,-0.54719 0.443865,-0.99078 1,-0.99078 0.552285,0 1,0.45098 1,0.99078 v 4.01844 c 0,0.54719 -0.443865,0.99078 -1,0.99078 -0.552285,0 -1,-0.45098 -1,-0.99078 z m -6,-7.999999 c 0,-0.54719 0.443865,-0.99078 1,-0.99078 0.552285,0 1,0.45098 1,0.99078 v 4.018439 c 0,0.54719 -0.443865,0.99078 -1,0.99078 -0.552285,0 -1,-0.45098 -1,-0.99078 z m 6,23.999999 c 0,-0.54719 0.443865,-0.99078 1,-0.99078 0.552285,0 1,0.45098 1,0.99078 v 4.01844 c 0,0.54719 -0.443865,0.99078 -1,0.99078 -0.552285,0 -1,-0.45098 -1,-0.99078 z m -6,-8 c 0,-0.54719 0.443865,-0.99078 1,-0.99078 0.552285,0 1,0.45098 1,0.99078 v 4.01844 c 0,0.54719 -0.443865,0.99078 -1,0.99078 -0.552285,0 -1,-0.45098 -1,-0.99078 z m 0,16 c 0,-0.54719 0.443865,-0.99078 1,-0.99078 0.552285,0 1,0.45098 1,0.99078 v 4.01844 c 0,0.54719 -0.443865,0.99078 -1,0.99078 -0.552285,0 -1,-0.45098 -1,-0.99078 z M 77.999999,8.990778 c 0,-0.547192 0.44387,-0.990778 1,-0.990778 0.55229,0 1,0.450975 1,0.990778 v 4.018444 c 0,0.547192 -0.44386,0.990778 -1,0.990778 -0.55228,0 -1,-0.450975 -1,-0.990778 z m -5.999996,-8 c 0,-0.547192 0.443865,-0.990778 1,-0.990778 0.552285,0 1,0.450975 1,0.990778 v 4.018444 c 0,0.547192 -0.443865,0.990778 -1,0.990778 -0.552285,0 -1,-0.450975 -1,-0.990778 z m 5.999996,24.000001 c 0,-0.547192 0.44387,-0.990778 1,-0.990778 0.55229,0 1,0.450975 1,0.990778 v 4.018444 c 0,0.547192 -0.44386,0.990778 -1,0.990778 -0.55228,0 -1,-0.450975 -1,-0.990778 z m -5.999996,-8 c 0,-0.547192 0.443865,-0.990778 1,-0.990778 0.552285,0 1,0.450975 1,0.990778 v 4.018444 c 0,0.547192 -0.443865,0.990778 -1,0.990778 -0.552285,0 -1,-0.450975 -1,-0.990778 z m 5.999996,24.000002 c 0,-0.547192 0.44387,-0.990778 1,-0.990778 0.55229,0 1,0.450975 1,0.990778 v 4.018444 c 0,0.547192 -0.44386,0.990778 -1,0.990778 -0.55228,0 -1,-0.450975 -1,-0.990778 z m -5.999996,-8 c 0,-0.547192 0.443865,-0.990778 1,-0.990778 0.552285,0 1,0.450975 1,0.990778 v 4.018444 c 0,0.547192 -0.443865,0.990778 -1,0.990778 -0.552285,0 -1,-0.450975 -1,-0.990778 z m 5.999996,24.000001 c 0,-0.547192 0.44387,-0.990778 1,-0.990778 0.55229,0 1,0.450975 1,0.990778 v 4.018444 c 0,0.547192 -0.44386,0.990778 -1,0.990778 -0.55228,0 -1,-0.450975 -1,-0.990778 z m -5.999996,-8 c 0,-0.547192 0.443865,-0.990778 1,-0.990778 0.552285,0 1,0.450975 1,0.990778 v 4.018444 c 0,0.547192 -0.443865,0.990778 -1,0.990778 -0.552285,0 -1,-0.450975 -1,-0.990778 z m 5.999996,24.000002 c 0,-0.547192 0.44387,-0.990778 1,-0.990778 0.55229,0 1,0.450975 1,0.990778 v 4.018447 c 0,0.54719 -0.44386,0.99078 -1,0.99078 -0.55228,0 -1,-0.45098 -1,-0.99078 z m -5.999996,-8 c 0,-0.547192 0.443865,-0.990778 1,-0.990778 0.552285,0 1,0.450975 1,0.990778 v 4.018444 c 0,0.547192 -0.443865,0.990778 -1,0.990778 -0.552285,0 -1,-0.450975 -1,-0.990778 z m 5.999996,24.000007 c 0,-0.54719 0.44387,-0.99078 1,-0.99078 0.55229,0 1,0.45098 1,0.99078 v 4.01844 c 0,0.54719 -0.44386,0.99078 -1,0.99078 -0.55228,0 -1,-0.45097 -1,-0.99078 z m -5.999996,-8 c 0,-0.54719 0.443865,-0.99078 1,-0.99078 0.552285,0 1,0.45098 1,0.99078 v 4.01844 c 0,0.54719 -0.443865,0.99078 -1,0.99078 -0.552285,0 -1,-0.45098 -1,-0.99078 z m 5.999996,23.999999 c 0,-0.54719 0.44387,-0.99078 1,-0.99078 0.55229,0 1,0.45098 1,0.99078 v 4.01844 c 0,0.54719 -0.44386,0.99078 -1,0.99078 -0.55228,0 -1,-0.45098 -1,-0.99078 z m -5.999996,-7.999999 c 0,-0.54719 0.443865,-0.99078 1,-0.99078 0.552285,0 1,0.45098 1,0.99078 v 4.018439 c 0,0.54719 -0.443865,0.99078 -1,0.99078 -0.552285,0 -1,-0.45098 -1,-0.99078 z m 5.999996,23.999999 c 0,-0.54719 0.44387,-0.99078 1,-0.99078 0.55229,0 1,0.45098 1,0.99078 v 4.01844 c 0,0.54719 -0.44386,0.99078 -1,0.99078 -0.55228,0 -1,-0.45098 -1,-0.99078 z m -5.999996,-8 c 0,-0.54719 0.443865,-0.99078 1,-0.99078 0.552285,0 1,0.45098 1,0.99078 v 4.01844 c 0,0.54719 -0.443865,0.99078 -1,0.99078 -0.552285,0 -1,-0.45098 -1,-0.99078 z m 0,16 c 0,-0.54719 0.443865,-0.99078 1,-0.99078 0.552285,0 1,0.45098 1,0.99078 v 4.01844 c 0,0.54719 -0.443865,0.99078 -1,0.99078 -0.552285,0 -1,-0.45098 -1,-0.99078 z M 89.999999,8.990778 c 0,-0.547192 0.44387,-0.990778 1,-0.990778 0.55229,0 1,0.450975 1,0.990778 v 4.018444 c 0,0.547192 -0.44386,0.990778 -1,0.990778 -0.55228,0 -1,-0.450975 -1,-0.990778 z m -6,-8 c 0,-0.547192 0.44386,-0.990778 1,-0.990778 0.55228,0 1,0.450975 1,0.990778 v 4.018444 c 0,0.547192 -0.44386,0.990778 -1,0.990778 -0.55228,0 -1,-0.450975 -1,-0.990778 z m 6,24.000001 c 0,-0.547192 0.44387,-0.990778 1,-0.990778 0.55229,0 1,0.450975 1,0.990778 v 4.018444 c 0,0.547192 -0.44386,0.990778 -1,0.990778 -0.55228,0 -1,-0.450975 -1,-0.990778 z m -6,-8 c 0,-0.547192 0.44386,-0.990778 1,-0.990778 0.55228,0 1,0.450975 1,0.990778 v 4.018444 c 0,0.547192 -0.44386,0.990778 -1,0.990778 -0.55228,0 -1,-0.450975 -1,-0.990778 z m 6,24.000002 c 0,-0.547192 0.44387,-0.990778 1,-0.990778 0.55229,0 1,0.450975 1,0.990778 v 4.018444 c 0,0.547192 -0.44386,0.990778 -1,0.990778 -0.55228,0 -1,-0.450975 -1,-0.990778 z m -6,-8 c 0,-0.547192 0.44386,-0.990778 1,-0.990778 0.55228,0 1,0.450975 1,0.990778 v 4.018444 c 0,0.547192 -0.44386,0.990778 -1,0.990778 -0.55228,0 -1,-0.450975 -1,-0.990778 z m 6,24.000001 c 0,-0.547192 0.44387,-0.990778 1,-0.990778 0.55229,0 1,0.450975 1,0.990778 v 4.018444 c 0,0.547192 -0.44386,0.990778 -1,0.990778 -0.55228,0 -1,-0.450975 -1,-0.990778 z m -6,-8 c 0,-0.547192 0.44386,-0.990778 1,-0.990778 0.55228,0 1,0.450975 1,0.990778 v 4.018444 c 0,0.547192 -0.44386,0.990778 -1,0.990778 -0.55228,0 -1,-0.450975 -1,-0.990778 z m 6,24.000002 c 0,-0.547192 0.44387,-0.990778 1,-0.990778 0.55229,0 1,0.450975 1,0.990778 v 4.018447 c 0,0.54719 -0.44386,0.99078 -1,0.99078 -0.55228,0 -1,-0.45098 -1,-0.99078 z m -6,-8 c 0,-0.547192 0.44386,-0.990778 1,-0.990778 0.55228,0 1,0.450975 1,0.990778 v 4.018444 c 0,0.547192 -0.44386,0.990778 -1,0.990778 -0.55228,0 -1,-0.450975 -1,-0.990778 z m 6,24.000007 c 0,-0.54719 0.44387,-0.99078 1,-0.99078 0.55229,0 1,0.45098 1,0.99078 v 4.01844 c 0,0.54719 -0.44386,0.99078 -1,0.99078 -0.55228,0 -1,-0.45097 -1,-0.99078 z m -6,-8 c 0,-0.54719 0.44386,-0.99078 1,-0.99078 0.55228,0 1,0.45098 1,0.99078 v 4.01844 c 0,0.54719 -0.44386,0.99078 -1,0.99078 -0.55228,0 -1,-0.45098 -1,-0.99078 z m 6,23.999999 c 0,-0.54719 0.44387,-0.99078 1,-0.99078 0.55229,0 1,0.45098 1,0.99078 v 4.01844 c 0,0.54719 -0.44386,0.99078 -1,0.99078 -0.55228,0 -1,-0.45098 -1,-0.99078 z m -6,-7.999999 c 0,-0.54719 0.44386,-0.99078 1,-0.99078 0.55228,0 1,0.45098 1,0.99078 v 4.018439 c 0,0.54719 -0.44386,0.99078 -1,0.99078 -0.55228,0 -1,-0.45098 -1,-0.99078 z m 6,23.999999 c 0,-0.54719 0.44387,-0.99078 1,-0.99078 0.55229,0 1,0.45098 1,0.99078 v 4.01844 c 0,0.54719 -0.44386,0.99078 -1,0.99078 -0.55228,0 -1,-0.45098 -1,-0.99078 z m -6,-8 c 0,-0.54719 0.44386,-0.99078 1,-0.99078 0.55228,0 1,0.45098 1,0.99078 v 4.01844 c 0,0.54719 -0.44386,0.99078 -1,0.99078 -0.55228,0 -1,-0.45098 -1,-0.99078 z m 0,16 c 0,-0.54719 0.44386,-0.99078 1,-0.99078 0.55228,0 1,0.45098 1,0.99078 v 4.01844 c 0,0.54719 -0.44386,0.99078 -1,0.99078 -0.55228,0 -1,-0.45098 -1,-0.99078 z M 102,8.990778 C 102,8.443586 102.44387,8 103,8 c 0.55229,0 1,0.450975 1,0.990778 v 4.018444 C 104,13.556414 103.55614,14 103,14 c -0.55228,0 -1,-0.450975 -1,-0.990778 z m -6.000001,-8 c 0,-0.547192 0.44386,-0.990778 1,-0.990778 0.55228,0 1,0.450975 1,0.990778 v 4.018444 c 0,0.547192 -0.44386,0.990778 -1,0.990778 -0.55228,0 -1,-0.450975 -1,-0.990778 z M 102,24.990779 c 0,-0.547192 0.44387,-0.990778 1,-0.990778 0.55229,0 1,0.450975 1,0.990778 v 4.018444 c 0,0.547192 -0.44386,0.990778 -1,0.990778 -0.55228,0 -1,-0.450975 -1,-0.990778 z m -6.000001,-8 c 0,-0.547192 0.44386,-0.990778 1,-0.990778 0.55228,0 1,0.450975 1,0.990778 v 4.018444 c 0,0.547192 -0.44386,0.990778 -1,0.990778 -0.55228,0 -1,-0.450975 -1,-0.990778 z M 102,40.990781 c 0,-0.547192 0.44387,-0.990778 1,-0.990778 0.55229,0 1,0.450975 1,0.990778 v 4.018444 c 0,0.547192 -0.44386,0.990778 -1,0.990778 -0.55228,0 -1,-0.450975 -1,-0.990778 z m -6.000001,-8 c 0,-0.547192 0.44386,-0.990778 1,-0.990778 0.55228,0 1,0.450975 1,0.990778 v 4.018444 c 0,0.547192 -0.44386,0.990778 -1,0.990778 -0.55228,0 -1,-0.450975 -1,-0.990778 z M 102,56.990782 c 0,-0.547192 0.44387,-0.990778 1,-0.990778 0.55229,0 1,0.450975 1,0.990778 v 4.018444 c 0,0.547192 -0.44386,0.990778 -1,0.990778 -0.55228,0 -1,-0.450975 -1,-0.990778 z m -6.000001,-8 c 0,-0.547192 0.44386,-0.990778 1,-0.990778 0.55228,0 1,0.450975 1,0.990778 v 4.018444 c 0,0.547192 -0.44386,0.990778 -1,0.990778 -0.55228,0 -1,-0.450975 -1,-0.990778 z M 102,72.990784 c 0,-0.547192 0.44387,-0.990778 1,-0.990778 0.55229,0 1,0.450975 1,0.990778 v 4.018447 c 0,0.54719 -0.44386,0.99078 -1,0.99078 -0.55228,0 -1,-0.45098 -1,-0.99078 z m -6.000001,-8 c 0,-0.547192 0.44386,-0.990778 1,-0.990778 0.55228,0 1,0.450975 1,0.990778 v 4.018444 c 0,0.547192 -0.44386,0.990778 -1,0.990778 -0.55228,0 -1,-0.450975 -1,-0.990778 z M 102,88.990791 c 0,-0.54719 0.44387,-0.99078 1,-0.99078 0.55229,0 1,0.45098 1,0.99078 v 4.01844 c 0,0.54719 -0.44386,0.99078 -1,0.99078 -0.55228,0 -1,-0.45097 -1,-0.99078 z m -6.000001,-8 c 0,-0.54719 0.44386,-0.99078 1,-0.99078 0.55228,0 1,0.45098 1,0.99078 v 4.01844 c 0,0.54719 -0.44386,0.99078 -1,0.99078 -0.55228,0 -1,-0.45098 -1,-0.99078 z M 102,104.99079 c 0,-0.54719 0.44387,-0.99078 1,-0.99078 0.55229,0 1,0.45098 1,0.99078 v 4.01844 c 0,0.54719 -0.44386,0.99078 -1,0.99078 -0.55228,0 -1,-0.45098 -1,-0.99078 z m -6.000001,-7.999999 c 0,-0.54719 0.44386,-0.99078 1,-0.99078 0.55228,0 1,0.45098 1,0.99078 v 4.018439 c 0,0.54719 -0.44386,0.99078 -1,0.99078 -0.55228,0 -1,-0.45098 -1,-0.99078 z M 102,120.99079 c 0,-0.54719 0.44387,-0.99078 1,-0.99078 0.55229,0 1,0.45098 1,0.99078 v 4.01844 c 0,0.54719 -0.44386,0.99078 -1,0.99078 -0.55228,0 -1,-0.45098 -1,-0.99078 z m -6.000001,-8 c 0,-0.54719 0.44386,-0.99078 1,-0.99078 0.55228,0 1,0.45098 1,0.99078 v 4.01844 c 0,0.54719 -0.44386,0.99078 -1,0.99078 -0.55228,0 -1,-0.45098 -1,-0.99078 z m 0,16 c 0,-0.54719 0.44386,-0.99078 1,-0.99078 0.55228,0 1,0.45098 1,0.99078 v 4.01844 c 0,0.54719 -0.44386,0.99078 -1,0.99078 -0.55228,0 -1,-0.45098 -1,-0.99078 z M 114,8.990778 C 114,8.443586 114.44386,8 115,8 c 0.55228,0 1,0.450975 1,0.990778 v 4.018444 C 116,13.556414 115.55613,14 115,14 c -0.55229,0 -1,-0.450975 -1,-0.990778 z m -6,-8 C 108,0.443586 108.44386,0 109,0 c 0.55228,0 1,0.450975 1,0.990778 V 5.009222 C 110,5.556414 109.55614,6 109,6 108.44772,6 108,5.549025 108,5.009222 Z m 6,24.000001 c 0,-0.547192 0.44386,-0.990778 1,-0.990778 0.55228,0 1,0.450975 1,0.990778 v 4.018444 c 0,0.547192 -0.44387,0.990778 -1,0.990778 -0.55229,0 -1,-0.450975 -1,-0.990778 z m -6,-8 c 0,-0.547192 0.44386,-0.990778 1,-0.990778 0.55228,0 1,0.450975 1,0.990778 v 4.018444 c 0,0.547192 -0.44386,0.990778 -1,0.990778 -0.55228,0 -1,-0.450975 -1,-0.990778 z m 6,24.000002 c 0,-0.547192 0.44386,-0.990778 1,-0.990778 0.55228,0 1,0.450975 1,0.990778 v 4.018444 c 0,0.547192 -0.44387,0.990778 -1,0.990778 -0.55229,0 -1,-0.450975 -1,-0.990778 z m -6,-8 c 0,-0.547192 0.44386,-0.990778 1,-0.990778 0.55228,0 1,0.450975 1,0.990778 v 4.018444 c 0,0.547192 -0.44386,0.990778 -1,0.990778 -0.55228,0 -1,-0.450975 -1,-0.990778 z m 6,24.000001 c 0,-0.547192 0.44386,-0.990778 1,-0.990778 0.55228,0 1,0.450975 1,0.990778 v 4.018444 c 0,0.547192 -0.44387,0.990778 -1,0.990778 -0.55229,0 -1,-0.450975 -1,-0.990778 z m -6,-8 c 0,-0.547192 0.44386,-0.990778 1,-0.990778 0.55228,0 1,0.450975 1,0.990778 v 4.018444 c 0,0.547192 -0.44386,0.990778 -1,0.990778 -0.55228,0 -1,-0.450975 -1,-0.990778 z m 6,24.000002 c 0,-0.547192 0.44386,-0.990778 1,-0.990778 0.55228,0 1,0.450975 1,0.990778 v 4.018447 c 0,0.54719 -0.44387,0.99078 -1,0.99078 -0.55229,0 -1,-0.45098 -1,-0.99078 z m -6,-8 c 0,-0.547192 0.44386,-0.990778 1,-0.990778 0.55228,0 1,0.450975 1,0.990778 v 4.018444 c 0,0.547192 -0.44386,0.990778 -1,0.990778 -0.55228,0 -1,-0.450975 -1,-0.990778 z m 6,24.000007 c 0,-0.54719 0.44386,-0.99078 1,-0.99078 0.55228,0 1,0.45098 1,0.99078 v 4.01844 c 0,0.54719 -0.44387,0.99078 -1,0.99078 -0.55229,0 -1,-0.45097 -1,-0.99078 z m -6,-8 c 0,-0.54719 0.44386,-0.99078 1,-0.99078 0.55228,0 1,0.45098 1,0.99078 v 4.01844 c 0,0.54719 -0.44386,0.99078 -1,0.99078 -0.55228,0 -1,-0.45098 -1,-0.99078 z m 6,23.999999 c 0,-0.54719 0.44386,-0.99078 1,-0.99078 0.55228,0 1,0.45098 1,0.99078 v 4.01844 c 0,0.54719 -0.44387,0.99078 -1,0.99078 -0.55229,0 -1,-0.45098 -1,-0.99078 z m -6,-7.999999 c 0,-0.54719 0.44386,-0.99078 1,-0.99078 0.55228,0 1,0.45098 1,0.99078 v 4.018439 c 0,0.54719 -0.44386,0.99078 -1,0.99078 -0.55228,0 -1,-0.45098 -1,-0.99078 z m 6,23.999999 c 0,-0.54719 0.44386,-0.99078 1,-0.99078 0.55228,0 1,0.45098 1,0.99078 v 4.01844 c 0,0.54719 -0.44387,0.99078 -1,0.99078 -0.55229,0 -1,-0.45098 -1,-0.99078 z m -6,-8 c 0,-0.54719 0.44386,-0.99078 1,-0.99078 0.55228,0 1,0.45098 1,0.99078 v 4.01844 c 0,0.54719 -0.44386,0.99078 -1,0.99078 -0.55228,0 -1,-0.45098 -1,-0.99078 z m 0,16 c 0,-0.54719 0.44386,-0.99078 1,-0.99078 0.55228,0 1,0.45098 1,0.99078 v 4.01844 c 0,0.54719 -0.44386,0.99078 -1,0.99078 -0.55228,0 -1,-0.45098 -1,-0.99078 z M 126,8.990778 C 126,8.443586 126.44386,8 127,8 c 0.55228,0 1,0.450975 1,0.990778 v 4.018444 C 128,13.556414 127.55613,14 127,14 c -0.55229,0 -1,-0.450975 -1,-0.990778 z m -6,-8 C 120,0.443586 120.44386,0 121,0 c 0.55228,0 1,0.450975 1,0.990778 V 5.009222 C 122,5.556414 121.55614,6 121,6 120.44772,6 120,5.549025 120,5.009222 Z m 6,24.000001 c 0,-0.547192 0.44386,-0.990778 1,-0.990778 0.55228,0 1,0.450975 1,0.990778 v 4.018444 c 0,0.547192 -0.44387,0.990778 -1,0.990778 -0.55229,0 -1,-0.450975 -1,-0.990778 z m -6,-8 c 0,-0.547192 0.44386,-0.990778 1,-0.990778 0.55228,0 1,0.450975 1,0.990778 v 4.018444 c 0,0.547192 -0.44386,0.990778 -1,0.990778 -0.55228,0 -1,-0.450975 -1,-0.990778 z m 6,24.000002 c 0,-0.547192 0.44386,-0.990778 1,-0.990778 0.55228,0 1,0.450975 1,0.990778 v 4.018444 c 0,0.547192 -0.44387,0.990778 -1,0.990778 -0.55229,0 -1,-0.450975 -1,-0.990778 z m -6,-8 c 0,-0.547192 0.44386,-0.990778 1,-0.990778 0.55228,0 1,0.450975 1,0.990778 v 4.018444 c 0,0.547192 -0.44386,0.990778 -1,0.990778 -0.55228,0 -1,-0.450975 -1,-0.990778 z m 6,24.000001 c 0,-0.547192 0.44386,-0.990778 1,-0.990778 0.55228,0 1,0.450975 1,0.990778 v 4.018444 c 0,0.547192 -0.44387,0.990778 -1,0.990778 -0.55229,0 -1,-0.450975 -1,-0.990778 z m -6,-8 c 0,-0.547192 0.44386,-0.990778 1,-0.990778 0.55228,0 1,0.450975 1,0.990778 v 4.018444 c 0,0.547192 -0.44386,0.990778 -1,0.990778 -0.55228,0 -1,-0.450975 -1,-0.990778 z m 6,24.000002 c 0,-0.547192 0.44386,-0.990778 1,-0.990778 0.55228,0 1,0.450975 1,0.990778 v 4.018447 c 0,0.54719 -0.44387,0.99078 -1,0.99078 -0.55229,0 -1,-0.45098 -1,-0.99078 z m -6,-8 c 0,-0.547192 0.44386,-0.990778 1,-0.990778 0.55228,0 1,0.450975 1,0.990778 v 4.018444 c 0,0.547192 -0.44386,0.990778 -1,0.990778 -0.55228,0 -1,-0.450975 -1,-0.990778 z m 6,24.000007 c 0,-0.54719 0.44386,-0.99078 1,-0.99078 0.55228,0 1,0.45098 1,0.99078 v 4.01844 c 0,0.54719 -0.44387,0.99078 -1,0.99078 -0.55229,0 -1,-0.45097 -1,-0.99078 z m -6,-8 c 0,-0.54719 0.44386,-0.99078 1,-0.99078 0.55228,0 1,0.45098 1,0.99078 v 4.01844 c 0,0.54719 -0.44386,0.99078 -1,0.99078 -0.55228,0 -1,-0.45098 -1,-0.99078 z m 6,23.999999 c 0,-0.54719 0.44386,-0.99078 1,-0.99078 0.55228,0 1,0.45098 1,0.99078 v 4.01844 c 0,0.54719 -0.44387,0.99078 -1,0.99078 -0.55229,0 -1,-0.45098 -1,-0.99078 z m -6,-7.999999 c 0,-0.54719 0.44386,-0.99078 1,-0.99078 0.55228,0 1,0.45098 1,0.99078 v 4.018439 c 0,0.54719 -0.44386,0.99078 -1,0.99078 -0.55228,0 -1,-0.45098 -1,-0.99078 z m 6,23.999999 c 0,-0.54719 0.44386,-0.99078 1,-0.99078 0.55228,0 1,0.45098 1,0.99078 v 4.01844 c 0,0.54719 -0.44387,0.99078 -1,0.99078 -0.55229,0 -1,-0.45098 -1,-0.99078 z m -6,-8 c 0,-0.54719 0.44386,-0.99078 1,-0.99078 0.55228,0 1,0.45098 1,0.99078 v 4.01844 c 0,0.54719 -0.44386,0.99078 -1,0.99078 -0.55228,0 -1,-0.45098 -1,-0.99078 z m 0,16 c 0,-0.54719 0.44386,-0.99078 1,-0.99078 0.55228,0 1,0.45098 1,0.99078 v 4.01844 c 0,0.54719 -0.44386,0.99078 -1,0.99078 -0.55228,0 -1,-0.45098 -1,-0.99078 z M 138,8.990778 C 138,8.443586 138.44386,8 139,8 c 0.55228,0 1,0.450975 1,0.990778 v 4.018444 C 140,13.556414 139.55613,14 139,14 c -0.55229,0 -1,-0.450975 -1,-0.990778 z m -6,-8 C 132,0.443586 132.44386,0 133,0 c 0.55228,0 1,0.450975 1,0.990778 V 5.009222 C 134,5.556414 133.55614,6 133,6 132.44772,6 132,5.549025 132,5.009222 Z m 6,24.000001 c 0,-0.547192 0.44386,-0.990778 1,-0.990778 0.55228,0 1,0.450975 1,0.990778 v 4.018444 c 0,0.547192 -0.44387,0.990778 -1,0.990778 -0.55229,0 -1,-0.450975 -1,-0.990778 z m -6,-8 c 0,-0.547192 0.44386,-0.990778 1,-0.990778 0.55228,0 1,0.450975 1,0.990778 v 4.018444 c 0,0.547192 -0.44386,0.990778 -1,0.990778 -0.55228,0 -1,-0.450975 -1,-0.990778 z m 6,24.000002 c 0,-0.547192 0.44386,-0.990778 1,-0.990778 0.55228,0 1,0.450975 1,0.990778 v 4.018444 c 0,0.547192 -0.44387,0.990778 -1,0.990778 -0.55229,0 -1,-0.450975 -1,-0.990778 z m -6,-8 c 0,-0.547192 0.44386,-0.990778 1,-0.990778 0.55228,0 1,0.450975 1,0.990778 v 4.018444 c 0,0.547192 -0.44386,0.990778 -1,0.990778 -0.55228,0 -1,-0.450975 -1,-0.990778 z m 6,24.000001 c 0,-0.547192 0.44386,-0.990778 1,-0.990778 0.55228,0 1,0.450975 1,0.990778 v 4.018444 c 0,0.547192 -0.44387,0.990778 -1,0.990778 -0.55229,0 -1,-0.450975 -1,-0.990778 z m -6,-8 c 0,-0.547192 0.44386,-0.990778 1,-0.990778 0.55228,0 1,0.450975 1,0.990778 v 4.018444 c 0,0.547192 -0.44386,0.990778 -1,0.990778 -0.55228,0 -1,-0.450975 -1,-0.990778 z m 6,24.000002 c 0,-0.547192 0.44386,-0.990778 1,-0.990778 0.55228,0 1,0.450975 1,0.990778 v 4.018447 c 0,0.54719 -0.44387,0.99078 -1,0.99078 -0.55229,0 -1,-0.45098 -1,-0.99078 z m -6,-8 c 0,-0.547192 0.44386,-0.990778 1,-0.990778 0.55228,0 1,0.450975 1,0.990778 v 4.018444 c 0,0.547192 -0.44386,0.990778 -1,0.990778 -0.55228,0 -1,-0.450975 -1,-0.990778 z m 6,24.000007 c 0,-0.54719 0.44386,-0.99078 1,-0.99078 0.55228,0 1,0.45098 1,0.99078 v 4.01844 c 0,0.54719 -0.44387,0.99078 -1,0.99078 -0.55229,0 -1,-0.45097 -1,-0.99078 z m -6,-8 c 0,-0.54719 0.44386,-0.99078 1,-0.99078 0.55228,0 1,0.45098 1,0.99078 v 4.01844 c 0,0.54719 -0.44386,0.99078 -1,0.99078 -0.55228,0 -1,-0.45098 -1,-0.99078 z m 6,23.999999 c 0,-0.54719 0.44386,-0.99078 1,-0.99078 0.55228,0 1,0.45098 1,0.99078 v 4.01844 c 0,0.54719 -0.44387,0.99078 -1,0.99078 -0.55229,0 -1,-0.45098 -1,-0.99078 z m -6,-7.999999 c 0,-0.54719 0.44386,-0.99078 1,-0.99078 0.55228,0 1,0.45098 1,0.99078 v 4.018439 c 0,0.54719 -0.44386,0.99078 -1,0.99078 -0.55228,0 -1,-0.45098 -1,-0.99078 z m 6,23.999999 c 0,-0.54719 0.44386,-0.99078 1,-0.99078 0.55228,0 1,0.45098 1,0.99078 v 4.01844 c 0,0.54719 -0.44387,0.99078 -1,0.99078 -0.55229,0 -1,-0.45098 -1,-0.99078 z m -6,-8 c 0,-0.54719 0.44386,-0.99078 1,-0.99078 0.55228,0 1,0.45098 1,0.99078 v 4.01844 c 0,0.54719 -0.44386,0.99078 -1,0.99078 -0.55228,0 -1,-0.45098 -1,-0.99078 z m 0,16 c 0,-0.54719 0.44386,-0.99078 1,-0.99078 0.55228,0 1,0.45098 1,0.99078 v 4.01844 c 0,0.54719 -0.44386,0.99078 -1,0.99078 -0.55228,0 -1,-0.45098 -1,-0.99078 z M 150.00001,8.990778 c 0,-0.547192 0.44386,-0.990778 1,-0.990778 0.55228,0 1,0.450975 1,0.990778 v 4.018444 c 0,0.547192 -0.44387,0.990778 -1,0.990778 -0.55229,0 -1,-0.450975 -1,-0.990778 z m -6,-8 c 0,-0.547192 0.44386,-0.990778 1,-0.990778 0.55228,0 1,0.450975 1,0.990778 v 4.018444 c 0,0.547192 -0.44386,0.990778 -1,0.990778 -0.55228,0 -1,-0.450975 -1,-0.990778 z m 6,24.000001 c 0,-0.547192 0.44386,-0.990778 1,-0.990778 0.55228,0 1,0.450975 1,0.990778 v 4.018444 c 0,0.547192 -0.44387,0.990778 -1,0.990778 -0.55229,0 -1,-0.450975 -1,-0.990778 z m -6,-8 c 0,-0.547192 0.44386,-0.990778 1,-0.990778 0.55228,0 1,0.450975 1,0.990778 v 4.018444 c 0,0.547192 -0.44386,0.990778 -1,0.990778 -0.55228,0 -1,-0.450975 -1,-0.990778 z m 6,24.000002 c 0,-0.547192 0.44386,-0.990778 1,-0.990778 0.55228,0 1,0.450975 1,0.990778 v 4.018444 c 0,0.547192 -0.44387,0.990778 -1,0.990778 -0.55229,0 -1,-0.450975 -1,-0.990778 z m -6,-8 c 0,-0.547192 0.44386,-0.990778 1,-0.990778 0.55228,0 1,0.450975 1,0.990778 v 4.018444 c 0,0.547192 -0.44386,0.990778 -1,0.990778 -0.55228,0 -1,-0.450975 -1,-0.990778 z m 6,24.000001 c 0,-0.547192 0.44386,-0.990778 1,-0.990778 0.55228,0 1,0.450975 1,0.990778 v 4.018444 c 0,0.547192 -0.44387,0.990778 -1,0.990778 -0.55229,0 -1,-0.450975 -1,-0.990778 z m -6,-8 c 0,-0.547192 0.44386,-0.990778 1,-0.990778 0.55228,0 1,0.450975 1,0.990778 v 4.018444 c 0,0.547192 -0.44386,0.990778 -1,0.990778 -0.55228,0 -1,-0.450975 -1,-0.990778 z m 6,24.000002 c 0,-0.547192 0.44386,-0.990778 1,-0.990778 0.55228,0 1,0.450975 1,0.990778 v 4.018447 c 0,0.54719 -0.44387,0.99078 -1,0.99078 -0.55229,0 -1,-0.45098 -1,-0.99078 z m -6,-8 c 0,-0.547192 0.44386,-0.990778 1,-0.990778 0.55228,0 1,0.450975 1,0.990778 v 4.018444 c 0,0.547192 -0.44386,0.990778 -1,0.990778 -0.55228,0 -1,-0.450975 -1,-0.990778 z m 6,24.000007 c 0,-0.54719 0.44386,-0.99078 1,-0.99078 0.55228,0 1,0.45098 1,0.99078 v 4.01844 c 0,0.54719 -0.44387,0.99078 -1,0.99078 -0.55229,0 -1,-0.45097 -1,-0.99078 z m -6,-8 c 0,-0.54719 0.44386,-0.99078 1,-0.99078 0.55228,0 1,0.45098 1,0.99078 v 4.01844 c 0,0.54719 -0.44386,0.99078 -1,0.99078 -0.55228,0 -1,-0.45098 -1,-0.99078 z m 6,23.999999 c 0,-0.54719 0.44386,-0.99078 1,-0.99078 0.55228,0 1,0.45098 1,0.99078 v 4.01844 c 0,0.54719 -0.44387,0.99078 -1,0.99078 -0.55229,0 -1,-0.45098 -1,-0.99078 z m -6,-7.999999 c 0,-0.54719 0.44386,-0.99078 1,-0.99078 0.55228,0 1,0.45098 1,0.99078 v 4.018439 c 0,0.54719 -0.44386,0.99078 -1,0.99078 -0.55228,0 -1,-0.45098 -1,-0.99078 z m 6,23.999999 c 0,-0.54719 0.44386,-0.99078 1,-0.99078 0.55228,0 1,0.45098 1,0.99078 v 4.01844 c 0,0.54719 -0.44387,0.99078 -1,0.99078 -0.55229,0 -1,-0.45098 -1,-0.99078 z m -6,-8 c 0,-0.54719 0.44386,-0.99078 1,-0.99078 0.55228,0 1,0.45098 1,0.99078 v 4.01844 c 0,0.54719 -0.44386,0.99078 -1,0.99078 -0.55228,0 -1,-0.45098 -1,-0.99078 z m 0,16 c 0,-0.54719 0.44386,-0.99078 1,-0.99078 0.55228,0 1,0.45098 1,0.99078 v 4.01844 c 0,0.54719 -0.44386,0.99078 -1,0.99078 -0.55228,0 -1,-0.45098 -1,-0.99078 z m 18,-120.000012 c 0,-0.547192 0.44386,-0.990778 1,-0.990778 0.55228,0 1,0.450975 1,0.990778 v 4.018444 c 0,0.547192 -0.44387,0.990778 -1,0.990778 -0.55229,0 -1,-0.450975 -1,-0.990778 z m -6,-8 c 0,-0.547192 0.44386,-0.990778 1,-0.990778 0.55228,0 1,0.450975 1,0.990778 v 4.018444 c 0,0.547192 -0.44386,0.990778 -1,0.990778 -0.55228,0 -1,-0.450975 -1,-0.990778 z m 6,24.000001 c 0,-0.547192 0.44386,-0.990778 1,-0.990778 0.55228,0 1,0.450975 1,0.990778 v 4.018444 c 0,0.547192 -0.44387,0.990778 -1,0.990778 -0.55229,0 -1,-0.450975 -1,-0.990778 z m -6,-8 c 0,-0.547192 0.44386,-0.990778 1,-0.990778 0.55228,0 1,0.450975 1,0.990778 v 4.018444 c 0,0.547192 -0.44386,0.990778 -1,0.990778 -0.55228,0 -1,-0.450975 -1,-0.990778 z m 6,24.000002 c 0,-0.547192 0.44386,-0.990778 1,-0.990778 0.55228,0 1,0.450975 1,0.990778 v 4.018444 c 0,0.547192 -0.44387,0.990778 -1,0.990778 -0.55229,0 -1,-0.450975 -1,-0.990778 z m -6,-8 c 0,-0.547192 0.44386,-0.990778 1,-0.990778 0.55228,0 1,0.450975 1,0.990778 v 4.018444 c 0,0.547192 -0.44386,0.990778 -1,0.990778 -0.55228,0 -1,-0.450975 -1,-0.990778 z m 6,24.000001 c 0,-0.547192 0.44386,-0.990778 1,-0.990778 0.55228,0 1,0.450975 1,0.990778 v 4.018444 c 0,0.547192 -0.44387,0.990778 -1,0.990778 -0.55229,0 -1,-0.450975 -1,-0.990778 z m -6,-8 c 0,-0.547192 0.44386,-0.990778 1,-0.990778 0.55228,0 1,0.450975 1,0.990778 v 4.018444 c 0,0.547192 -0.44386,0.990778 -1,0.990778 -0.55228,0 -1,-0.450975 -1,-0.990778 z m 6,24.000002 c 0,-0.547192 0.44386,-0.990778 1,-0.990778 0.55228,0 1,0.450975 1,0.990778 v 4.018447 c 0,0.54719 -0.44387,0.99078 -1,0.99078 -0.55229,0 -1,-0.45098 -1,-0.99078 z m -6,-8 c 0,-0.547192 0.44386,-0.990778 1,-0.990778 0.55228,0 1,0.450975 1,0.990778 v 4.018444 c 0,0.547192 -0.44386,0.990778 -1,0.990778 -0.55228,0 -1,-0.450975 -1,-0.990778 z m 6,24.000007 c 0,-0.54719 0.44386,-0.99078 1,-0.99078 0.55228,0 1,0.45098 1,0.99078 v 4.01844 c 0,0.54719 -0.44387,0.99078 -1,0.99078 -0.55229,0 -1,-0.45097 -1,-0.99078 z m -6,-8 c 0,-0.54719 0.44386,-0.99078 1,-0.99078 0.55228,0 1,0.45098 1,0.99078 v 4.01844 c 0,0.54719 -0.44386,0.99078 -1,0.99078 -0.55228,0 -1,-0.45098 -1,-0.99078 z m 6,23.999999 c 0,-0.54719 0.44386,-0.99078 1,-0.99078 0.55228,0 1,0.45098 1,0.99078 v 4.01844 c 0,0.54719 -0.44387,0.99078 -1,0.99078 -0.55229,0 -1,-0.45098 -1,-0.99078 z m -6,-7.999999 c 0,-0.54719 0.44386,-0.99078 1,-0.99078 0.55228,0 1,0.45098 1,0.99078 v 4.018439 c 0,0.54719 -0.44386,0.99078 -1,0.99078 -0.55228,0 -1,-0.45098 -1,-0.99078 z m 6,23.999999 c 0,-0.54719 0.44386,-0.99078 1,-0.99078 0.55228,0 1,0.45098 1,0.99078 v 4.01844 c 0,0.54719 -0.44387,0.99078 -1,0.99078 -0.55229,0 -1,-0.45098 -1,-0.99078 z m -6,-8 c 0,-0.54719 0.44386,-0.99078 1,-0.99078 0.55228,0 1,0.45098 1,0.99078 v 4.01844 c 0,0.54719 -0.44386,0.99078 -1,0.99078 -0.55228,0 -1,-0.45098 -1,-0.99078 z m 0,16 c 0,-0.54719 0.44386,-0.99078 1,-0.99078 0.55228,0 1,0.45098 1,0.99078 v 4.01844 c 0,0.54719 -0.44386,0.99078 -1,0.99078 -0.55228,0 -1,-0.45098 -1,-0.99078 z m 18,-120.000012 c 0,-0.547192 0.44386,-0.990778 1,-0.990778 0.55228,0 1,0.450975 1,0.990778 v 4.018444 c 0,0.547192 -0.44387,0.990778 -1,0.990778 -0.55229,0 -1,-0.450975 -1,-0.990778 z m -6,-8 c 0,-0.547192 0.44386,-0.990778 1,-0.990778 0.55228,0 1,0.450975 1,0.990778 v 4.018444 c 0,0.547192 -0.44386,0.990778 -1,0.990778 -0.55228,0 -1,-0.450975 -1,-0.990778 z m 6,24.000001 c 0,-0.547192 0.44386,-0.990778 1,-0.990778 0.55228,0 1,0.450975 1,0.990778 v 4.018444 c 0,0.547192 -0.44387,0.990778 -1,0.990778 -0.55229,0 -1,-0.450975 -1,-0.990778 z m -6,-8 c 0,-0.547192 0.44386,-0.990778 1,-0.990778 0.55228,0 1,0.450975 1,0.990778 v 4.018444 c 0,0.547192 -0.44386,0.990778 -1,0.990778 -0.55228,0 -1,-0.450975 -1,-0.990778 z m 6,24.000002 c 0,-0.547192 0.44386,-0.990778 1,-0.990778 0.55228,0 1,0.450975 1,0.990778 v 4.018444 c 0,0.547192 -0.44387,0.990778 -1,0.990778 -0.55229,0 -1,-0.450975 -1,-0.990778 z m -6,-8 c 0,-0.547192 0.44386,-0.990778 1,-0.990778 0.55228,0 1,0.450975 1,0.990778 v 4.018444 c 0,0.547192 -0.44386,0.990778 -1,0.990778 -0.55228,0 -1,-0.450975 -1,-0.990778 z m 6,24.000001 c 0,-0.547192 0.44386,-0.990778 1,-0.990778 0.55228,0 1,0.450975 1,0.990778 v 4.018444 c 0,0.547192 -0.44387,0.990778 -1,0.990778 -0.55229,0 -1,-0.450975 -1,-0.990778 z m -6,-8 c 0,-0.547192 0.44386,-0.990778 1,-0.990778 0.55228,0 1,0.450975 1,0.990778 v 4.018444 c 0,0.547192 -0.44386,0.990778 -1,0.990778 -0.55228,0 -1,-0.450975 -1,-0.990778 z m 6,24.000002 c 0,-0.547192 0.44386,-0.990778 1,-0.990778 0.55228,0 1,0.450975 1,0.990778 v 4.018447 c 0,0.54719 -0.44387,0.99078 -1,0.99078 -0.55229,0 -1,-0.45098 -1,-0.99078 z m -6,-8 c 0,-0.547192 0.44386,-0.990778 1,-0.990778 0.55228,0 1,0.450975 1,0.990778 v 4.018444 c 0,0.547192 -0.44386,0.990778 -1,0.990778 -0.55228,0 -1,-0.450975 -1,-0.990778 z m 6,24.000007 c 0,-0.54719 0.44386,-0.99078 1,-0.99078 0.55228,0 1,0.45098 1,0.99078 v 4.01844 c 0,0.54719 -0.44387,0.99078 -1,0.99078 -0.55229,0 -1,-0.45097 -1,-0.99078 z m -6,-8 c 0,-0.54719 0.44386,-0.99078 1,-0.99078 0.55228,0 1,0.45098 1,0.99078 v 4.01844 c 0,0.54719 -0.44386,0.99078 -1,0.99078 -0.55228,0 -1,-0.45098 -1,-0.99078 z m 6,23.999999 c 0,-0.54719 0.44386,-0.99078 1,-0.99078 0.55228,0 1,0.45098 1,0.99078 v 4.01844 c 0,0.54719 -0.44387,0.99078 -1,0.99078 -0.55229,0 -1,-0.45098 -1,-0.99078 z m -6,-7.999999 c 0,-0.54719 0.44386,-0.99078 1,-0.99078 0.55228,0 1,0.45098 1,0.99078 v 4.018439 c 0,0.54719 -0.44386,0.99078 -1,0.99078 -0.55228,0 -1,-0.45098 -1,-0.99078 z m 6,23.999999 c 0,-0.54719 0.44386,-0.99078 1,-0.99078 0.55228,0 1,0.45098 1,0.99078 v 4.01844 c 0,0.54719 -0.44387,0.99078 -1,0.99078 -0.55229,0 -1,-0.45098 -1,-0.99078 z m -6,-8 c 0,-0.54719 0.44386,-0.99078 1,-0.99078 0.55228,0 1,0.45098 1,0.99078 v 4.01844 c 0,0.54719 -0.44386,0.99078 -1,0.99078 -0.55228,0 -1,-0.45098 -1,-0.99078 z m 0,16 c 0,-0.54719 0.44386,-0.99078 1,-0.99078 0.55228,0 1,0.45098 1,0.99078 v 4.01844 c 0,0.54719 -0.44386,0.99078 -1,0.99078 -0.55228,0 -1,-0.45098 -1,-0.99078 z m 18,-120.000012 c 0,-0.547192 0.44386,-0.990778 1,-0.990778 0.55228,0 1,0.450975 1,0.990778 v 4.018444 c 0,0.547192 -0.44387,0.990778 -1,0.990778 -0.55229,0 -1,-0.450975 -1,-0.990778 z m -6,-8 c 0,-0.547192 0.44386,-0.990778 1,-0.990778 0.55228,0 1,0.450975 1,0.990778 v 4.018444 c 0,0.547192 -0.44386,0.990778 -1,0.990778 -0.55228,0 -1,-0.450975 -1,-0.990778 z m 6,24.000001 c 0,-0.547192 0.44386,-0.990778 1,-0.990778 0.55228,0 1,0.450975 1,0.990778 v 4.018444 c 0,0.547192 -0.44387,0.990778 -1,0.990778 -0.55229,0 -1,-0.450975 -1,-0.990778 z m -6,-8 c 0,-0.547192 0.44386,-0.990778 1,-0.990778 0.55228,0 1,0.450975 1,0.990778 v 4.018444 c 0,0.547192 -0.44386,0.990778 -1,0.990778 -0.55228,0 -1,-0.450975 -1,-0.990778 z m 6,24.000002 c 0,-0.547192 0.44386,-0.990778 1,-0.990778 0.55228,0 1,0.450975 1,0.990778 v 4.018444 c 0,0.547192 -0.44387,0.990778 -1,0.990778 -0.55229,0 -1,-0.450975 -1,-0.990778 z m -6,-8 c 0,-0.547192 0.44386,-0.990778 1,-0.990778 0.55228,0 1,0.450975 1,0.990778 v 4.018444 c 0,0.547192 -0.44386,0.990778 -1,0.990778 -0.55228,0 -1,-0.450975 -1,-0.990778 z m 6,24.000001 c 0,-0.547192 0.44386,-0.990778 1,-0.990778 0.55228,0 1,0.450975 1,0.990778 v 4.018444 c 0,0.547192 -0.44387,0.990778 -1,0.990778 -0.55229,0 -1,-0.450975 -1,-0.990778 z m -6,-8 c 0,-0.547192 0.44386,-0.990778 1,-0.990778 0.55228,0 1,0.450975 1,0.990778 v 4.018444 c 0,0.547192 -0.44386,0.990778 -1,0.990778 -0.55228,0 -1,-0.450975 -1,-0.990778 z m 6,24.000002 c 0,-0.547192 0.44386,-0.990778 1,-0.990778 0.55228,0 1,0.450975 1,0.990778 v 4.018447 c 0,0.54719 -0.44387,0.99078 -1,0.99078 -0.55229,0 -1,-0.45098 -1,-0.99078 z m -6,-8 c 0,-0.547192 0.44386,-0.990778 1,-0.990778 0.55228,0 1,0.450975 1,0.990778 v 4.018444 c 0,0.547192 -0.44386,0.990778 -1,0.990778 -0.55228,0 -1,-0.450975 -1,-0.990778 z m 6,24.000007 c 0,-0.54719 0.44386,-0.99078 1,-0.99078 0.55228,0 1,0.45098 1,0.99078 v 4.01844 c 0,0.54719 -0.44387,0.99078 -1,0.99078 -0.55229,0 -1,-0.45097 -1,-0.99078 z m -6,-8 c 0,-0.54719 0.44386,-0.99078 1,-0.99078 0.55228,0 1,0.45098 1,0.99078 v 4.01844 c 0,0.54719 -0.44386,0.99078 -1,0.99078 -0.55228,0 -1,-0.45098 -1,-0.99078 z m 6,23.999999 c 0,-0.54719 0.44386,-0.99078 1,-0.99078 0.55228,0 1,0.45098 1,0.99078 v 4.01844 c 0,0.54719 -0.44387,0.99078 -1,0.99078 -0.55229,0 -1,-0.45098 -1,-0.99078 z m -6,-7.999999 c 0,-0.54719 0.44386,-0.99078 1,-0.99078 0.55228,0 1,0.45098 1,0.99078 v 4.018439 c 0,0.54719 -0.44386,0.99078 -1,0.99078 -0.55228,0 -1,-0.45098 -1,-0.99078 z m 6,23.999999 c 0,-0.54719 0.44386,-0.99078 1,-0.99078 0.55228,0 1,0.45098 1,0.99078 v 4.01844 c 0,0.54719 -0.44387,0.99078 -1,0.99078 -0.55229,0 -1,-0.45098 -1,-0.99078 z m -6,-8 c 0,-0.54719 0.44386,-0.99078 1,-0.99078 0.55228,0 1,0.45098 1,0.99078 v 4.01844 c 0,0.54719 -0.44386,0.99078 -1,0.99078 -0.55228,0 -1,-0.45098 -1,-0.99078 z m 0,16 c 0,-0.54719 0.44386,-0.99078 1,-0.99078 0.55228,0 1,0.45098 1,0.99078 v 4.01844 c 0,0.54719 -0.44386,0.99078 -1,0.99078 -0.55228,0 -1,-0.45098 -1,-0.99078 z m 18,-120.000012 c 0,-0.547192 0.44386,-0.990778 1,-0.990778 0.55228,0 1,0.450975 1,0.990778 v 4.018444 c 0,0.547192 -0.44387,0.990778 -1,0.990778 -0.55229,0 -1,-0.450975 -1,-0.990778 z m -6,-8 c 0,-0.547192 0.44386,-0.990778 1,-0.990778 0.55228,0 1,0.450975 1,0.990778 v 4.018444 c 0,0.547192 -0.44386,0.990778 -1,0.990778 -0.55228,0 -1,-0.450975 -1,-0.990778 z m 6,24.000001 c 0,-0.547192 0.44386,-0.990778 1,-0.990778 0.55228,0 1,0.450975 1,0.990778 v 4.018444 c 0,0.547192 -0.44387,0.990778 -1,0.990778 -0.55229,0 -1,-0.450975 -1,-0.990778 z m -6,-8 c 0,-0.547192 0.44386,-0.990778 1,-0.990778 0.55228,0 1,0.450975 1,0.990778 v 4.018444 c 0,0.547192 -0.44386,0.990778 -1,0.990778 -0.55228,0 -1,-0.450975 -1,-0.990778 z m 6,24.000002 c 0,-0.547192 0.44386,-0.990778 1,-0.990778 0.55228,0 1,0.450975 1,0.990778 v 4.018444 c 0,0.547192 -0.44387,0.990778 -1,0.990778 -0.55229,0 -1,-0.450975 -1,-0.990778 z m -6,-8 c 0,-0.547192 0.44386,-0.990778 1,-0.990778 0.55228,0 1,0.450975 1,0.990778 v 4.018444 c 0,0.547192 -0.44386,0.990778 -1,0.990778 -0.55228,0 -1,-0.450975 -1,-0.990778 z m 6,24.000001 c 0,-0.547192 0.44386,-0.990778 1,-0.990778 0.55228,0 1,0.450975 1,0.990778 v 4.018444 c 0,0.547192 -0.44387,0.990778 -1,0.990778 -0.55229,0 -1,-0.450975 -1,-0.990778 z m -6,-8 c 0,-0.547192 0.44386,-0.990778 1,-0.990778 0.55228,0 1,0.450975 1,0.990778 v 4.018444 c 0,0.547192 -0.44386,0.990778 -1,0.990778 -0.55228,0 -1,-0.450975 -1,-0.990778 z m 6,24.000002 c 0,-0.547192 0.44386,-0.990778 1,-0.990778 0.55228,0 1,0.450975 1,0.990778 v 4.018447 c 0,0.54719 -0.44387,0.99078 -1,0.99078 -0.55229,0 -1,-0.45098 -1,-0.99078 z m -6,-8 c 0,-0.547192 0.44386,-0.990778 1,-0.990778 0.55228,0 1,0.450975 1,0.990778 v 4.018444 c 0,0.547192 -0.44386,0.990778 -1,0.990778 -0.55228,0 -1,-0.450975 -1,-0.990778 z m 6,24.000007 c 0,-0.54719 0.44386,-0.99078 1,-0.99078 0.55228,0 1,0.45098 1,0.99078 v 4.01844 c 0,0.54719 -0.44387,0.99078 -1,0.99078 -0.55229,0 -1,-0.45097 -1,-0.99078 z m -6,-8 c 0,-0.54719 0.44386,-0.99078 1,-0.99078 0.55228,0 1,0.45098 1,0.99078 v 4.01844 c 0,0.54719 -0.44386,0.99078 -1,0.99078 -0.55228,0 -1,-0.45098 -1,-0.99078 z m 6,23.999999 c 0,-0.54719 0.44386,-0.99078 1,-0.99078 0.55228,0 1,0.45098 1,0.99078 v 4.01844 c 0,0.54719 -0.44387,0.99078 -1,0.99078 -0.55229,0 -1,-0.45098 -1,-0.99078 z m -6,-7.999999 c 0,-0.54719 0.44386,-0.99078 1,-0.99078 0.55228,0 1,0.45098 1,0.99078 v 4.018439 c 0,0.54719 -0.44386,0.99078 -1,0.99078 -0.55228,0 -1,-0.45098 -1,-0.99078 z m 6,23.999999 c 0,-0.54719 0.44386,-0.99078 1,-0.99078 0.55228,0 1,0.45098 1,0.99078 v 4.01844 c 0,0.54719 -0.44387,0.99078 -1,0.99078 -0.55229,0 -1,-0.45098 -1,-0.99078 z m -6,-8 c 0,-0.54719 0.44386,-0.99078 1,-0.99078 0.55228,0 1,0.45098 1,0.99078 v 4.01844 c 0,0.54719 -0.44386,0.99078 -1,0.99078 -0.55228,0 -1,-0.45098 -1,-0.99078 z m 0,16 c 0,-0.54719 0.44386,-0.99078 1,-0.99078 0.55228,0 1,0.45098 1,0.99078 v 4.01844 c 0,0.54719 -0.44386,0.99078 -1,0.99078 -0.55228,0 -1,-0.45098 -1,-0.99078 z m 18,-120.000012 c 0,-0.547192 0.44386,-0.990778 1,-0.990778 0.55228,0 1,0.450975 1,0.990778 v 4.018444 c 0,0.547192 -0.44387,0.990778 -1,0.990778 -0.55229,0 -1,-0.450975 -1,-0.990778 z m -6,-8 c 0,-0.547192 0.44386,-0.990778 1,-0.990778 0.55228,0 1,0.450975 1,0.990778 v 4.018444 c 0,0.547192 -0.44386,0.990778 -1,0.990778 -0.55228,0 -1,-0.450975 -1,-0.990778 z m 6,24.000001 c 0,-0.547192 0.44386,-0.990778 1,-0.990778 0.55228,0 1,0.450975 1,0.990778 v 4.018444 c 0,0.547192 -0.44387,0.990778 -1,0.990778 -0.55229,0 -1,-0.450975 -1,-0.990778 z m -6,-8 c 0,-0.547192 0.44386,-0.990778 1,-0.990778 0.55228,0 1,0.450975 1,0.990778 v 4.018444 c 0,0.547192 -0.44386,0.990778 -1,0.990778 -0.55228,0 -1,-0.450975 -1,-0.990778 z m 6,24.000002 c 0,-0.547192 0.44386,-0.990778 1,-0.990778 0.55228,0 1,0.450975 1,0.990778 v 4.018444 c 0,0.547192 -0.44387,0.990778 -1,0.990778 -0.55229,0 -1,-0.450975 -1,-0.990778 z m -6,-8 c 0,-0.547192 0.44386,-0.990778 1,-0.990778 0.55228,0 1,0.450975 1,0.990778 v 4.018444 c 0,0.547192 -0.44386,0.990778 -1,0.990778 -0.55228,0 -1,-0.450975 -1,-0.990778 z m 6,24.000001 c 0,-0.547192 0.44386,-0.990778 1,-0.990778 0.55228,0 1,0.450975 1,0.990778 v 4.018444 c 0,0.547192 -0.44387,0.990778 -1,0.990778 -0.55229,0 -1,-0.450975 -1,-0.990778 z m -6,-8 c 0,-0.547192 0.44386,-0.990778 1,-0.990778 0.55228,0 1,0.450975 1,0.990778 v 4.018444 c 0,0.547192 -0.44386,0.990778 -1,0.990778 -0.55228,0 -1,-0.450975 -1,-0.990778 z m 6,24.000002 c 0,-0.547192 0.44386,-0.990778 1,-0.990778 0.55228,0 1,0.450975 1,0.990778 v 4.018447 c 0,0.54719 -0.44387,0.99078 -1,0.99078 -0.55229,0 -1,-0.45098 -1,-0.99078 z m -6,-8 c 0,-0.547192 0.44386,-0.990778 1,-0.990778 0.55228,0 1,0.450975 1,0.990778 v 4.018444 c 0,0.547192 -0.44386,0.990778 -1,0.990778 -0.55228,0 -1,-0.450975 -1,-0.990778 z m 6,24.000007 c 0,-0.54719 0.44386,-0.99078 1,-0.99078 0.55228,0 1,0.45098 1,0.99078 v 4.01844 c 0,0.54719 -0.44387,0.99078 -1,0.99078 -0.55229,0 -1,-0.45097 -1,-0.99078 z m -6,-8 c 0,-0.54719 0.44386,-0.99078 1,-0.99078 0.55228,0 1,0.45098 1,0.99078 v 4.01844 c 0,0.54719 -0.44386,0.99078 -1,0.99078 -0.55228,0 -1,-0.45098 -1,-0.99078 z m 6,23.999999 c 0,-0.54719 0.44386,-0.99078 1,-0.99078 0.55228,0 1,0.45098 1,0.99078 v 4.01844 c 0,0.54719 -0.44387,0.99078 -1,0.99078 -0.55229,0 -1,-0.45098 -1,-0.99078 z m -6,-7.999999 c 0,-0.54719 0.44386,-0.99078 1,-0.99078 0.55228,0 1,0.45098 1,0.99078 v 4.018439 c 0,0.54719 -0.44386,0.99078 -1,0.99078 -0.55228,0 -1,-0.45098 -1,-0.99078 z m 6,23.999999 c 0,-0.54719 0.44386,-0.99078 1,-0.99078 0.55228,0 1,0.45098 1,0.99078 v 4.01844 c 0,0.54719 -0.44387,0.99078 -1,0.99078 -0.55229,0 -1,-0.45098 -1,-0.99078 z m -6,-8 c 0,-0.54719 0.44386,-0.99078 1,-0.99078 0.55228,0 1,0.45098 1,0.99078 v 4.01844 c 0,0.54719 -0.44386,0.99078 -1,0.99078 -0.55228,0 -1,-0.45098 -1,-0.99078 z m 0,16 c 0,-0.54719 0.44386,-0.99078 1,-0.99078 0.55228,0 1,0.45098 1,0.99078 v 4.01844 c 0,0.54719 -0.44386,0.99078 -1,0.99078 -0.55228,0 -1,-0.45098 -1,-0.99078 z m 18,-120.000012 c 0,-0.547192 0.44386,-0.990778 1,-0.990778 0.55228,0 1,0.450975 1,0.990778 v 4.018444 c 0,0.547192 -0.44387,0.990778 -1,0.990778 -0.55229,0 -1,-0.450975 -1,-0.990778 z m -6,-8 c 0,-0.547192 0.44386,-0.990778 1,-0.990778 0.55228,0 1,0.450975 1,0.990778 v 4.018444 c 0,0.547192 -0.44386,0.990778 -1,0.990778 -0.55228,0 -1,-0.450975 -1,-0.990778 z m 6,24.000001 c 0,-0.547192 0.44386,-0.990778 1,-0.990778 0.55228,0 1,0.450975 1,0.990778 v 4.018444 c 0,0.547192 -0.44387,0.990778 -1,0.990778 -0.55229,0 -1,-0.450975 -1,-0.990778 z m -6,-8 c 0,-0.547192 0.44386,-0.990778 1,-0.990778 0.55228,0 1,0.450975 1,0.990778 v 4.018444 c 0,0.547192 -0.44386,0.990778 -1,0.990778 -0.55228,0 -1,-0.450975 -1,-0.990778 z m 6,24.000002 c 0,-0.547192 0.44386,-0.990778 1,-0.990778 0.55228,0 1,0.450975 1,0.990778 v 4.018444 c 0,0.547192 -0.44387,0.990778 -1,0.990778 -0.55229,0 -1,-0.450975 -1,-0.990778 z m -6,-8 c 0,-0.547192 0.44386,-0.990778 1,-0.990778 0.55228,0 1,0.450975 1,0.990778 v 4.018444 c 0,0.547192 -0.44386,0.990778 -1,0.990778 -0.55228,0 -1,-0.450975 -1,-0.990778 z m 6,24.000001 c 0,-0.547192 0.44386,-0.990778 1,-0.990778 0.55228,0 1,0.450975 1,0.990778 v 4.018444 c 0,0.547192 -0.44387,0.990778 -1,0.990778 -0.55229,0 -1,-0.450975 -1,-0.990778 z m -6,-8 c 0,-0.547192 0.44386,-0.990778 1,-0.990778 0.55228,0 1,0.450975 1,0.990778 v 4.018444 c 0,0.547192 -0.44386,0.990778 -1,0.990778 -0.55228,0 -1,-0.450975 -1,-0.990778 z m 6,24.000002 c 0,-0.547192 0.44386,-0.990778 1,-0.990778 0.55228,0 1,0.450975 1,0.990778 v 4.018447 c 0,0.54719 -0.44387,0.99078 -1,0.99078 -0.55229,0 -1,-0.45098 -1,-0.99078 z m -6,-8 c 0,-0.547192 0.44386,-0.990778 1,-0.990778 0.55228,0 1,0.450975 1,0.990778 v 4.018444 c 0,0.547192 -0.44386,0.990778 -1,0.990778 -0.55228,0 -1,-0.450975 -1,-0.990778 z m 6,24.000007 c 0,-0.54719 0.44386,-0.99078 1,-0.99078 0.55228,0 1,0.45098 1,0.99078 v 4.01844 c 0,0.54719 -0.44387,0.99078 -1,0.99078 -0.55229,0 -1,-0.45097 -1,-0.99078 z m -6,-8 c 0,-0.54719 0.44386,-0.99078 1,-0.99078 0.55228,0 1,0.45098 1,0.99078 v 4.01844 c 0,0.54719 -0.44386,0.99078 -1,0.99078 -0.55228,0 -1,-0.45098 -1,-0.99078 z m 6,23.999999 c 0,-0.54719 0.44386,-0.99078 1,-0.99078 0.55228,0 1,0.45098 1,0.99078 v 4.01844 c 0,0.54719 -0.44387,0.99078 -1,0.99078 -0.55229,0 -1,-0.45098 -1,-0.99078 z m -6,-7.999999 c 0,-0.54719 0.44386,-0.99078 1,-0.99078 0.55228,0 1,0.45098 1,0.99078 v 4.018439 c 0,0.54719 -0.44386,0.99078 -1,0.99078 -0.55228,0 -1,-0.45098 -1,-0.99078 z m 6,23.999999 c 0,-0.54719 0.44386,-0.99078 1,-0.99078 0.55228,0 1,0.45098 1,0.99078 v 4.01844 c 0,0.54719 -0.44387,0.99078 -1,0.99078 -0.55229,0 -1,-0.45098 -1,-0.99078 z m -6,-8 c 0,-0.54719 0.44386,-0.99078 1,-0.99078 0.55228,0 1,0.45098 1,0.99078 v 4.01844 c 0,0.54719 -0.44386,0.99078 -1,0.99078 -0.55228,0 -1,-0.45098 -1,-0.99078 z m 0,16 c 0,-0.54719 0.44386,-0.99078 1,-0.99078 0.55228,0 1,0.45098 1,0.99078 v 4.01844 c 0,0.54719 -0.44386,0.99078 -1,0.99078 -0.55228,0 -1,-0.45098 -1,-0.99078 z"
     inkscape:connector-curvature="0" />
</svg>
