<?xml version="1.0" encoding="UTF-8" standalone="no"?>
<!-- Created with Inkscape (http://www.inkscape.org/) -->

<svg
   xmlns:dc="http://purl.org/dc/elements/1.1/"
   xmlns:cc="http://creativecommons.org/ns#"
   xmlns:rdf="http://www.w3.org/1999/02/22-rdf-syntax-ns#"
   xmlns:svg="http://www.w3.org/2000/svg"
   xmlns="http://www.w3.org/2000/svg"
   xmlns:sodipodi="http://sodipodi.sourceforge.net/DTD/sodipodi-0.dtd"
   xmlns:inkscape="http://www.inkscape.org/namespaces/inkscape"
   width="253.99271mm"
   height="64.068611mm"
   viewBox="0 0 253.99271 64.068611"
   version="1.1"
   id="svg5790"
   inkscape:version="0.92.1 r15371"
   sodipodi:docname="drawing.svg">
  <defs
     id="defs5784" />
  <sodipodi:namedview
     id="base"
     pagecolor="#ffffff"
     bordercolor="#666666"
     borderopacity="1.0"
     inkscape:pageopacity="0.0"
     inkscape:pageshadow="2"
     inkscape:zoom="0.385"
     inkscape:cx="502.36523"
     inkscape:cy="87.129877"
     inkscape:document-units="mm"
     inkscape:current-layer="layer1"
     showgrid="false"
     fit-margin-top="0"
     fit-margin-left="0"
     fit-margin-right="0"
     fit-margin-bottom="0"
     inkscape:window-width="1280"
     inkscape:window-height="656"
     inkscape:window-x="0"
     inkscape:window-y="27"
     inkscape:window-maximized="1" />
  <metadata
     id="metadata5787">
    <rdf:RDF>
      <cc:Work
         rdf:about="">
        <dc:format>image/svg+xml</dc:format>
        <dc:type
           rdf:resource="http://purl.org/dc/dcmitype/StillImage" />
        <dc:title></dc:title>
      </cc:Work>
    </rdf:RDF>
  </metadata>
  <g
     inkscape:label="Layer 1"
     inkscape:groupmode="layer"
     id="layer1"
     transform="translate(379.6028,-278.36863)">
    <path
       inkscape:connector-curvature="0"
       id="path6457"
       d="m -329.33219,335.08901 c -0.14394,-0.37521 0.41199,-2.77596 1.40776,-6.07934 l 0.65799,-2.18281 h 2.08754 2.08755 l 0.92734,-1.08339 c 1.78857,-2.08954 2.19084,-3.32843 4.4163,-13.60099 1.16646,-5.38427 2.32837,-10.68255 2.58203,-11.77396 l 0.46119,-1.98437 4.43879,-0.22189 c 2.44134,-0.12204 4.62118,-0.15191 4.84409,-0.0664 0.28295,0.10858 0.3615,0.37525 0.26023,0.88335 -1.78508,8.95551 -5.44446,25.25339 -6.16354,27.45074 -1.32014,4.03407 -3.00243,6.48706 -5.3752,7.83771 l -1.71979,0.97895 -5.39153,0.0896 c -4.18711,0.0696 -5.4204,0.0143 -5.52075,-0.24722 z m 117.0102,-13.21167 c -2.0492,-0.27812 -5.37948,-1.21518 -6.34175,-1.78442 -2.35483,-1.39302 -3.70135,-3.41127 -4.39643,-6.58963 -0.73394,-3.35609 1.03972,-12.46177 3.34193,-17.15689 1.27354,-2.59725 3.66006,-5.4446 5.4661,-6.52159 0.59618,-0.35552 2.20721,-1.10519 3.58007,-1.66593 l 2.49612,-1.01952 h 5.29367 c 5.01723,0 5.39411,0.0357 7.21668,0.68268 1.5592,0.55352 2.20899,0.97167 3.43462,2.21023 1.33281,1.34686 1.58408,1.77678 2.12414,3.63439 0.57224,1.96829 0.59656,2.33184 0.36992,5.52883 -0.13343,1.88209 -0.5142,4.49355 -0.84617,5.80324 l -0.60357,2.38125 -2.49788,0.16882 c -1.37383,0.0929 -6.16687,0.18215 -10.6512,0.19844 -5.05578,0.0184 -8.34776,0.13367 -8.6651,0.30351 -0.36871,0.19732 -0.51178,0.55612 -0.51178,1.28343 0,1.69592 0.46647,2.59573 1.70431,3.28757 1.11063,0.62074 1.28204,0.63429 9.78046,0.77301 4.75752,0.0777 8.72222,0.21339 8.81045,0.30162 0.0882,0.0882 -0.16866,1.89073 -0.57087,4.00555 -0.56406,2.96584 -0.84181,3.90427 -1.21459,4.10377 -0.46207,0.24729 -15.56464,0.30976 -17.31913,0.0716 z m 13.04466,-22.61949 c 0.0982,-1.52412 -0.4567,-2.69214 -1.61428,-3.39795 -1.13189,-0.69016 -5.83508,-0.75101 -7.14404,-0.0924 -1.65108,0.8307 -3.88947,3.4753 -3.88947,4.5953 0,0.19096 1.99689,0.25737 6.28386,0.20898 l 6.28385,-0.0709 z m -87.26029,22.27486 c -5.13645,-0.19989 -6.81302,-0.63955 -9.60314,-2.51829 -1.98391,-1.33587 -3.1259,-2.86313 -4.42686,-5.92034 -0.65693,-1.54376 -0.78667,-2.26616 -0.93547,-5.20843 -0.14631,-2.89328 -0.0848,-3.88174 0.4017,-6.45879 0.77486,-4.10417 2.1766,-8.33906 3.76579,-11.37709 1.11778,-2.13682 1.77523,-2.97768 4.38666,-5.61039 2.95101,-2.97506 3.17132,-3.13809 5.60147,-4.1453 4.41413,-1.82948 5.82419,-2.06867 10.99631,-1.86528 4.13656,0.16267 4.65902,0.24008 6.50325,0.96359 4.41492,1.73201 7.18499,4.46161 8.85973,8.73032 l 0.95672,2.43856 -0.10345,4.04373 -0.10345,4.04373 -2.30172,6.75785 c -1.26593,3.71682 -2.3017,6.94867 -2.3017,7.18188 0,0.34528 0.38918,0.44171 2.09562,0.5192 1.15259,0.0523 2.16445,0.16399 2.24857,0.24811 0.14441,0.14441 -0.9691,4.44416 -1.86129,7.18723 l -0.40876,1.25677 -9.70218,-0.0486 c -5.33619,-0.0267 -11.6667,-0.12504 -14.0678,-0.21848 z m 14.01899,-16.38791 2.18824,-7.65914 -0.11553,-3.01828 c -0.11519,-3.00942 -0.11851,-3.02232 -1.12915,-4.39909 -1.53163,-2.0865 -3.03511,-2.66435 -6.93228,-2.66435 -2.9096,0 -3.08027,0.0322 -4.82055,0.90856 -3.49153,1.7583 -5.89441,5.6231 -7.0659,11.3648 -0.9963,4.88304 -0.79664,8.65704 0.5549,10.48896 0.35021,0.47467 1.32556,1.25458 2.16745,1.73314 l 1.53071,0.87009 5.71693,0.0172 5.71693,0.0172 z m 26.19768,16.39951 c -4.68273,-0.22719 -6.20908,-0.72636 -8.01442,-2.62098 -1.95179,-2.04832 -2.56891,-3.89654 -2.56891,-7.69359 0,-2.4728 0.24435,-3.96427 2.1233,-12.96024 1.16781,-5.59123 2.25395,-10.3233 2.41364,-10.51571 0.21835,-0.2631 1.32821,-0.34985 4.47567,-0.34985 2.30193,0 4.24978,0.10429 4.32856,0.23176 0.0788,0.12746 -0.74764,4.6771 -1.83647,10.11031 -2.23483,11.15163 -2.41439,13.08993 -1.32704,14.32514 0.84144,0.95584 2.23464,1.24758 5.99567,1.25549 2.21958,0.005 3.15655,-0.09 3.36402,-0.34002 0.15815,-0.19057 0.82068,-2.83971 1.47228,-5.88698 1.69675,-7.93502 2.70463,-12.46794 3.62922,-16.32226 l 0.80922,-3.37344 h 4.2093 4.20929 v 0.63316 c 0,0.81663 -0.24641,2.04895 -3.76193,18.81371 -1.70015,8.10764 -3.10673,14.21824 -3.33449,14.48594 -0.3568,0.41939 -0.98228,0.45855 -6.63677,0.41553 -3.43357,-0.0261 -7.73113,-0.11971 -9.55014,-0.20797 z m 57.53478,-0.35999 c -0.21482,-0.85593 6.66969,-33.00571 7.17703,-33.5158 0.34153,-0.34337 1.89683,-0.38387 11.53679,-0.30045 10.83256,0.0937 11.17708,0.11265 12.40373,0.68096 1.20985,0.56054 2.24236,1.5344 2.82251,2.6622 0.29532,0.57409 1.12933,4.08091 1.12933,4.74859 0,0.36419 -1.15092,0.41079 -10.14545,0.41079 -9.33077,0 -10.17817,0.0372 -10.55281,0.46302 -0.3624,0.41191 -2.63395,10.76915 -4.59468,20.94967 -0.89235,4.63325 -0.74487,4.51647 -5.70439,4.51647 -3.88002,0 -3.91907,-0.006 -4.07206,-0.61545 z m 28.10203,0.43906 c -0.32207,-0.32207 -0.15274,-1.50922 0.71077,-4.98298 l 0.85501,-3.43959 -2.10769,-7.3403 c -1.15923,-4.03717 -2.01772,-7.43045 -1.90775,-7.54063 0.10996,-0.11017 2.36308,-0.20032 5.00691,-0.20032 h 4.80698 l 0.57383,1.85209 c 0.31561,1.01864 0.6752,2.26164 0.79909,2.76221 l 0.22526,0.91013 1.86684,-2.62992 c 1.02676,-1.44646 3.632,-5.18977 5.78941,-8.31846 2.15741,-3.1287 4.69042,-6.73034 5.6289,-8.00365 l 1.70634,-2.3151 h 5.56007 5.56008 l -0.47359,0.7276 c -0.66098,1.01551 -4.38713,6.03717 -14.28266,19.24844 l -8.52168,11.37708 -0.96445,3.68342 c -0.53045,2.02587 -1.09572,3.84158 -1.25615,4.03489 -0.22188,0.26734 -1.38183,0.35148 -4.84542,0.35148 -2.50454,0 -4.63309,-0.0794 -4.7301,-0.17639 z M -313.69466,294.3879 c 0.097,-0.70774 0.48288,-2.56865 0.85749,-4.13538 l 0.68113,-2.84858 h 4.73942 c 4.33917,0 4.73902,0.0391 4.73463,0.46302 -0.008,0.7301 -1.47293,7.18831 -1.67745,7.39283 -0.10114,0.10114 -2.28262,0.23587 -4.84774,0.29939 l -4.66386,0.11551 z"
       style="fill:#ad764c;fill-opacity:1;stroke-width:1"
       sodipodi:nodetypes="ccccccsccsccsccccccscscccscccccccccsscssccccccscccccscccscscsccccscscccccccssscsccccccccsccscccccsccccssccccccccsscssccccssscccccccccccscccsccccscsccc" />
    <path
       style="fill:#89ad4c;fill-opacity:1;stroke-width:1"
       d="m -222.16113,341.84193 c 0.0771,-0.32742 0.39145,-1.905 0.69864,-3.50573 0.30719,-1.60073 0.60653,-3.13193 0.6652,-3.40268 0.0694,-0.32007 -0.0724,-0.53911 -0.40536,-0.62617 -0.28163,-0.0737 -0.51205,-0.22934 -0.51205,-0.34599 0,-0.56083 0.36744,-1.04912 0.78947,-1.04912 0.30796,0 0.65793,-0.44083 1.02218,-1.28756 0.64693,-1.50384 1.55666,-2.02406 3.04972,-1.74396 1.50265,0.2819 1.23336,1.6112 -0.3938,1.94399 -1.2076,0.24698 -1.40363,1.08753 -0.25364,1.08753 0.44723,0 0.81315,0.10933 0.81315,0.24295 0,0.69849 -0.38583,1.07997 -1.09231,1.07997 -0.92758,0 -1.05113,0.25143 -1.8202,3.70417 -0.9697,4.35353 -1.03136,4.49791 -1.92055,4.49791 -0.67459,0 -0.76153,-0.0808 -0.64045,-0.59531 z m -45.0619,-2.58249 c 0,-0.21958 0.62566,-3.22905 1.18813,-5.71501 0.11016,-0.48688 0.38412,-0.58179 2.13815,-0.74074 1.30519,-0.11827 2.13174,-0.0828 2.35328,0.10111 0.23684,0.19655 0.55933,0.20058 1.05235,0.0131 1.39249,-0.52942 2.37063,-0.34439 2.89789,0.5482 0.43031,0.72845 0.44925,0.99761 0.17222,2.44739 -0.64353,3.3678 -0.75123,3.61332 -1.58496,3.61332 -0.74271,0 -0.75483,-0.0232 -0.58696,-1.12448 0.0943,-0.61847 0.17224,-1.71979 0.17326,-2.4474 0.002,-1.23661 -0.0441,-1.32823 -0.70305,-1.40444 -0.81195,-0.0939 -0.83299,-0.0471 -1.31488,2.9258 -0.33235,2.05036 -0.33243,2.05052 -1.16095,2.05052 h -0.82858 l 0.36557,-2.30801 c 0.33881,-2.13905 0.33175,-2.33273 -0.0964,-2.64583 -0.2541,-0.18581 -0.56439,-0.33783 -0.68952,-0.33783 -0.34617,0 -0.88937,1.51743 -1.25497,3.50573 l -0.32838,1.78594 h -0.89608 c -0.49285,0 -0.89608,-0.12033 -0.89608,-0.26739 z m 11.16541,-0.0501 c -0.17759,-0.1776 -0.3175,-1.02919 -0.3175,-1.93258 0,-1.32435 0.13691,-1.83096 0.76059,-2.81438 0.65225,-1.0285 0.96314,-1.25619 2.18281,-1.59865 2.36158,-0.66308 4.20035,0.31244 4.20035,2.22841 0,1.44387 -0.92318,3.44702 -1.83754,3.98714 -0.91157,0.53848 -4.48707,0.63169 -4.98871,0.13006 z m 3.94114,-1.5526 c 0.6514,-0.46384 0.76845,-0.72679 0.76845,-1.72634 0,-1.02123 -0.0906,-1.2136 -0.67633,-1.4363 -1.10731,-0.421 -2.15077,0.28788 -2.44045,1.6579 -0.20844,0.98582 -0.16927,1.18275 0.31488,1.58301 0.72337,0.59805 1.10424,0.58338 2.03345,-0.0783 z m 3.68419,1.27478 c 0.005,-0.60455 1.50395,-8.41049 1.64088,-8.54742 0.0411,-0.0411 0.41236,-0.15942 0.82509,-0.26301 l 0.75041,-0.18834 -0.18602,1.48887 -0.18602,1.48887 1.57612,-0.16474 c 1.52784,-0.15969 1.59341,-0.14047 2.14002,0.62717 0.51714,0.72625 0.54021,0.92637 0.27822,2.41369 -0.18112,1.02821 -0.5665,2.00946 -1.05297,2.68101 l -0.76729,1.05922 h -2.51188 c -2.43011,0 -2.51171,-0.0194 -2.50656,-0.59532 z m 4.63838,-1.90973 c 0.21086,-0.50465 0.38338,-1.2653 0.38338,-1.69034 0,-0.67901 -0.11658,-0.79468 -0.96051,-0.953 -1.13667,-0.21324 -1.38317,-0.0181 -1.69958,1.34573 -0.46128,1.98816 -0.37709,2.21516 0.82151,2.21516 0.97297,0 1.10719,-0.0846 1.4552,-0.91755 z m 3.56037,1.79502 c 0.001,-0.40985 0.12701,-1.51568 0.2798,-2.4574 0.23705,-1.4611 0.21736,-1.75641 -0.13429,-2.01354 -0.22665,-0.16573 -0.41209,-0.55609 -0.41209,-0.86747 0,-0.51365 0.14285,-0.56615 1.54049,-0.56615 h 1.5405 l -0.68131,3.24115 c -0.661,3.14449 -0.70299,3.24364 -1.40821,3.32486 -0.64092,0.0738 -0.72665,-0.004 -0.72489,-0.66145 z m 3.43759,0.3681 c 0,-0.18807 0.29564,-1.8811 0.65698,-3.7623 0.57158,-2.9757 0.60597,-3.44892 0.26459,-3.63997 -0.21582,-0.12078 -0.3924,-0.57087 -0.3924,-1.0002 0,-0.7698 0.0201,-0.7806 1.45521,-0.7806 0.98478,0 1.45702,0.10691 1.46082,0.33073 0.003,0.1819 -0.4323,2.32502 -0.96754,4.7625 l -0.97317,4.43177 h -0.75224 c -0.43855,0 -0.75225,-0.14259 -0.75225,-0.34193 z m 3.9026,-0.0264 c -0.33359,-0.25324 -0.46302,-0.72549 -0.46302,-1.68945 0,-1.82053 0.78154,-3.54885 1.92409,-4.25498 1.11369,-0.6883 3.09597,-0.75659 4.03835,-0.13912 0.57001,0.37349 0.65215,0.62206 0.65215,1.97367 v 1.54637 l -2.18282,0.0769 c -2.03507,0.0716 -2.18853,0.11714 -2.26736,0.67216 -0.0813,0.57237 -0.007,0.59531 1.91823,0.59531 1.10153,0 2.00278,0.0926 2.00278,0.20571 0,0.11314 -0.18535,0.47033 -0.41188,0.79375 -0.3696,0.52769 -0.63438,0.58718 -2.57968,0.57963 -1.38183,-0.005 -2.33569,-0.13586 -2.63084,-0.3599 z m 4.10809,-3.82341 c 0.41235,-0.16296 0.42471,-0.24782 0.10063,-0.69102 -0.31207,-0.42678 -0.50807,-0.4655 -1.262,-0.24927 -1.24304,0.3565 -1.37661,1.1698 -0.18799,1.14466 0.48361,-0.0102 1.09083,-0.10219 1.34936,-0.20437 z m 11.83306,3.98089 c 0,-0.17707 0.75757,-3.85492 1.18883,-5.77157 0.10958,-0.48698 0.38309,-0.58176 2.13745,-0.74074 2.42268,-0.21954 2.75914,-0.0249 2.75914,1.59616 0,1.15384 -0.004,1.15823 -0.95435,1.15823 -0.75019,0 -0.92094,-0.0871 -0.79816,-0.40704 0.15541,-0.40499 -0.8025,-0.98501 -1.22058,-0.73906 -0.18339,0.10789 -0.59039,1.40081 -1.25614,3.99037 -0.25829,1.0047 -0.37255,1.12448 -1.07264,1.12448 -0.43095,0 -0.78355,-0.0949 -0.78355,-0.21083 z m 6.93208,-0.10667 c -0.17462,-0.17463 -0.3175,-0.99506 -0.3175,-1.82319 0,-1.98338 0.7299,-3.60081 1.95992,-4.34316 0.84909,-0.51245 1.12613,-0.54618 2.73361,-0.33283 0.98382,0.13057 1.89491,0.34156 2.02464,0.46885 0.13778,0.1352 -0.0141,1.50329 -0.36512,3.28964 l -0.601,3.05819 h -2.55852 c -1.63719,0 -2.67286,-0.11434 -2.87603,-0.3175 z m 4.24897,-2.85099 c 0.48192,-1.91313 0.21143,-2.35591 -1.19314,-1.95308 -0.69324,0.19881 -0.93683,0.4789 -1.32444,1.52283 -0.57781,1.55623 -0.32309,2.01124 1.12595,2.01124 0.99285,0 0.99358,-8e-4 1.39163,-1.58099 z m 2.84187,2.93303 c 0,-0.30026 1.02501,-5.31138 1.20328,-5.88263 0.17384,-0.55707 3.65973,-0.96204 4.22719,-0.49109 0.28072,0.23298 0.7005,0.20769 1.7683,-0.10653 l 1.40019,-0.41204 0.75979,0.75688 0.75979,0.75688 -0.31033,1.81481 c -0.57226,3.3466 -0.75279,3.79918 -1.5155,3.79918 h -0.68273 l 0.18571,-2.47695 c 0.18274,-2.43741 0.17592,-2.4795 -0.42699,-2.63716 -0.33699,-0.0881 -0.70441,-0.0685 -0.8165,0.0436 -0.11209,0.11209 -0.4118,1.26905 -0.66602,2.57102 -0.44528,2.28046 -0.48995,2.37039 -1.21873,2.45373 l -0.7565,0.0865 0.18017,-1.93859 c 0.0991,-1.06623 0.23916,-2.14686 0.31125,-2.40141 0.0918,-0.32427 -0.0855,-0.54514 -0.59234,-0.73786 -0.92894,-0.35317 -1.00923,-0.21725 -1.60105,2.71061 l -0.47028,2.32653 h -0.86935 c -0.47815,0 -0.86935,-0.10596 -0.86935,-0.23546 z m 11.16541,-0.082 c -0.17462,-0.17463 -0.3175,-1.00488 -0.3175,-1.84501 0,-2.00765 0.80291,-3.70309 2.03099,-4.28873 1.15075,-0.54875 3.09442,-0.54907 3.93145,-5.3e-4 0.56896,0.3728 0.65215,0.62288 0.65215,1.96063 v 1.53331 l -2.24896,0.18734 c -1.53837,0.12815 -2.24896,0.2931 -2.24896,0.52206 0,0.42519 0.8474,0.65281 2.4474,0.65741 1.29628,0.004 1.46145,0.18511 0.98288,1.07934 -0.23881,0.44622 -0.57096,0.51177 -2.59292,0.51177 -1.45091,0 -2.43788,-0.11885 -2.63653,-0.3175 z m 3.84969,-3.81802 c 0.92712,-0.24845 0.78617,-1.15615 -0.17954,-1.15615 -0.74987,0 -1.6064,0.57438 -1.6064,1.07723 0,0.27795 0.89559,0.31753 1.78594,0.0789 z m 3.78695,0.98387 c 0.0385,-2.98042 0.0716,-3.15991 0.60738,-3.30368 1.45235,-0.38969 1.48872,-0.33386 1.31816,2.02356 -0.18638,2.57618 0.0746,2.52643 1.04101,-0.19844 l 0.65685,-1.85209 1.34448,-0.0796 1.34449,-0.0796 0.0766,2.32857 0.0766,2.32856 0.89501,-2.3151 c 0.83662,-2.16403 0.94453,-2.31511 1.65365,-2.31511 1.02668,0 0.98871,0.31047 -0.4568,3.73508 l -1.21543,2.87951 -1.36426,-5.3e-4 -1.36426,-5.3e-4 -0.0845,-1.91407 c -0.0464,-1.05274 -0.1216,-1.95121 -0.16698,-1.99661 -0.0454,-0.0454 -0.41029,0.81613 -0.81089,1.91449 l -0.72835,1.99725 h -1.43184 -1.43183 z m 10.47541,2.66779 c -0.60835,-0.67222 -0.55916,-2.61429 0.1042,-4.11393 0.74139,-1.67602 2.13543,-2.40676 4.18739,-2.19498 1.67714,0.1731 1.94754,0.47286 2.16024,2.3949 0.15177,1.37149 -0.0729,2.01604 -1.23236,3.53624 -0.64264,0.84253 -0.70289,0.86163 -2.71939,0.86163 -1.6618,0 -2.14721,-0.094 -2.50008,-0.48386 z m 3.79067,-1.36482 c 0.96328,-0.68592 1.29752,-2.21627 0.64221,-2.94038 -0.94499,-1.0442 -2.08204,-0.48411 -2.87629,1.4168 -0.53035,1.2693 -0.51762,1.38594 0.18834,1.72642 0.86836,0.41879 1.22198,0.38373 2.04574,-0.20284 z m 3.88733,-0.8633 c 0.34762,-1.49159 0.68592,-2.96328 0.75178,-3.27042 0.10459,-0.48776 0.37437,-0.58151 2.13154,-0.74074 2.27046,-0.20574 2.75913,0.003 2.75913,1.17764 0,1.20302 -0.25911,1.57675 -1.09319,1.57675 -0.58805,0 -0.83435,-0.16402 -1.0337,-0.68836 -0.17885,-0.47041 -0.39306,-0.63795 -0.67655,-0.52917 -0.22816,0.0876 -0.46463,0.15919 -0.52549,0.15919 -0.0609,0 -0.11065,0.20026 -0.11065,0.44501 0,0.24475 -0.25117,1.37584 -0.55815,2.51354 -0.55112,2.04248 -0.56898,2.06854 -1.41745,2.06854 h -0.8593 z m 5.90704,2.34422 c 0,-0.40942 1.49664,-7.84687 1.74955,-8.69422 0.0908,-0.3043 0.40417,-0.46302 0.91411,-0.46302 0.42675,0 0.77592,0.0745 0.77592,0.16566 0,0.0911 -0.19144,1.28874 -0.42541,2.66139 -0.23398,1.37265 -0.38281,2.53415 -0.33073,2.5811 0.0521,0.047 0.46658,0.0286 0.92112,-0.0407 0.68356,-0.10426 0.93151,-0.35041 1.43429,-1.42385 0.47237,-1.00854 0.7452,-1.2978 1.22408,-1.2978 0.52952,0 0.61623,0.13216 0.61623,0.93918 0,1.09717 -0.56656,2.31127 -1.32718,2.84403 -0.47375,0.33183 -0.48939,0.4148 -0.1338,0.70991 0.2338,0.19404 0.40265,0.7644 0.40265,1.36011 0,0.94864 -0.0561,1.02594 -0.74506,1.02594 -0.6534,0 -0.8191,-0.17862 -1.34678,-1.45175 -0.51968,-1.25383 -0.66746,-1.41656 -1.08396,-1.19366 -0.26524,0.14195 -0.65064,0.76547 -0.85644,1.3856 -0.30139,0.90814 -0.51179,1.1438 -1.08139,1.21123 -0.49359,0.0584 -0.7072,-0.038 -0.7072,-0.31918 z m 7.14375,-0.26539 c 0,-0.34824 0.18833,-0.70543 0.41851,-0.79375 1.10087,-0.42245 1.99803,0.0442 1.76898,0.92004 -0.10189,0.38965 -0.37014,0.50686 -1.16002,0.50686 -0.90733,0 -1.02747,-0.074 -1.02747,-0.63315 z m -85.99038,-7.57043 c -0.4108,-0.76758 0.3396,-1.64543 1.3099,-1.53238 0.54835,0.0639 0.69085,0.24028 0.75818,0.93856 0.0683,0.70873 -0.009,0.8599 -0.44138,0.8599 -0.28836,0 -0.7035,0.0688 -0.92252,0.15281 -0.24349,0.0934 -0.5171,-0.0693 -0.70418,-0.41889 z m -120.1918,-5.01832 c -8.49157,-1.5444 -16.56107,-8.47557 -19.27695,-16.55762 -2.38628,-7.10121 -1.25363,-13.74877 3.22093,-18.90382 l 1.03346,-1.19062 -0.57368,1.5875 c -0.80296,2.22195 -0.97856,7.73544 -0.33925,10.65191 1.83693,8.37993 9.4681,16.02581 18.31342,18.34872 2.96983,0.77992 8.03647,0.96436 10.93134,0.39793 2.95492,-0.57817 6.48804,-2.32216 8.65676,-4.27306 0.90951,-0.81816 1.65365,-1.4096 1.65365,-1.31432 0,0.34934 -2.36943,3.82317 -3.34193,4.89961 -2.27988,2.52355 -6.0313,4.78644 -9.67002,5.83304 -2.17296,0.625 -8.36352,0.9289 -10.60773,0.52073 z m 5.62801,-14.52966 c -3.40564,-1.10234 -7.30251,-3.70924 -9.17602,-6.13852 -0.60733,-0.78749 -1.61527,-2.49709 -2.23985,-3.79911 -1.1223,-2.33954 -1.13684,-2.40659 -1.23995,-5.71582 -0.12728,-4.08521 0.18898,-5.35452 2.05676,-8.25489 0.72627,-1.12779 1.37163,-2.05052 1.43412,-2.05052 0.0625,0 -0.11202,0.72498 -0.3878,1.61107 -0.61401,1.9728 -0.66237,5.33276 -0.10744,7.46329 1.22017,4.68456 5.09708,9.29569 9.79247,11.64702 2.67601,1.34008 4.86501,1.86721 7.80521,1.87956 3.91804,0.0165 6.66088,-1.04937 10.30266,-4.00345 l 0.90995,-0.73812 -0.64537,1.17811 c -0.35495,0.64796 -1.40637,1.99 -2.33649,2.98232 -2.17031,2.31544 -4.95931,3.75848 -8.05146,4.16586 -3.12087,0.41117 -6.43161,0.31866 -8.11679,-0.2268 z m 6.69541,-12.29717 c -2.98888,-0.76144 -6.10686,-3.37485 -7.46072,-6.25336 -0.58775,-1.24963 -0.68374,-1.81028 -0.67949,-3.96875 0.004,-2.21119 0.0909,-2.67837 0.71984,-3.88388 0.92441,-1.77194 1.26699,-1.97137 0.93763,-0.54583 -0.64971,2.81213 0.54142,6.13176 3.16536,8.82166 1.83301,1.8791 3.43137,2.86711 5.51717,3.41039 2.99489,0.78007 5.82979,0.42166 7.57511,-0.95771 1.34754,-1.06499 1.24932,-0.57326 -0.20963,1.04943 -0.86861,0.96612 -1.6205,1.49462 -2.71198,1.90627 -1.87153,0.70584 -4.9859,0.89751 -6.85329,0.42178 z"
       id="path6385"
       inkscape:connector-curvature="0"
       sodipodi:nodetypes="csccsssssssscscccccccsscccsscscsccscccsccscccsccccccscccccccccsccsccsccccssccccsccsscccsscsccscccsscccccccccsccsscccsscscccccsccccscscccccccsccccscccccccssscsccsccsccscccssccccccccccccsccccccccccccccccscccccccscssccsscsccccssccccssccssscccccsccsscccscccscccsscsssccsccccscssccccccsscccccscccs" />
  </g>
</svg>
