<?xml version="1.0" encoding="UTF-8" standalone="no"?>
<svg
   xmlns:dc="http://purl.org/dc/elements/1.1/"
   xmlns:cc="http://creativecommons.org/ns#"
   xmlns:rdf="http://www.w3.org/1999/02/22-rdf-syntax-ns#"
   xmlns:svg="http://www.w3.org/2000/svg"
   xmlns="http://www.w3.org/2000/svg"
   xmlns:sodipodi="http://sodipodi.sourceforge.net/DTD/sodipodi-0.dtd"
   xmlns:inkscape="http://www.inkscape.org/namespaces/inkscape"
   width="589.827"
   height="361.238"
   version="1.2"
   viewBox="0 0 442.37 270.929"
   id="svg7185"
   sodipodi:docname="Node.js_logo.svg"
   inkscape:version="0.92.1 r15371">
  <metadata
     id="metadata7189">
    <rdf:RDF>
      <cc:Work
         rdf:about="">
        <dc:format>image/svg+xml</dc:format>
        <dc:type
           rdf:resource="http://purl.org/dc/dcmitype/StillImage" />
        <dc:title></dc:title>
      </cc:Work>
    </rdf:RDF>
  </metadata>
  <sodipodi:namedview
     pagecolor="#ffffff"
     bordercolor="#666666"
     borderopacity="1"
     objecttolerance="10"
     gridtolerance="10"
     guidetolerance="10"
     inkscape:pageopacity="0"
     inkscape:pageshadow="2"
     inkscape:window-width="1280"
     inkscape:window-height="656"
     id="namedview7187"
     showgrid="false"
     inkscape:zoom="0.87871762"
     inkscape:cx="256.53085"
     inkscape:cy="197.7815"
     inkscape:window-x="0"
     inkscape:window-y="27"
     inkscape:window-maximized="1"
     inkscape:current-layer="svg7185" />
  <defs
     id="defs7163">
    <linearGradient
       id="b"
       x1="-.348"
       x2="1.251"
       gradientTransform="matrix(-38.064915,77.652126,-77.652126,-38.064915,258.72325,244.62943)"
       gradientUnits="userSpaceOnUse">
      <stop
         offset=".3"
         stop-color="#3E863D"
         id="stop7132" />
      <stop
         offset=".5"
         stop-color="#55934F"
         id="stop7134" />
      <stop
         offset=".8"
         stop-color="#5AAD45"
         id="stop7136" />
    </linearGradient>
    <clipPath
       id="c">
      <path
         d="M195.398 307.086c.403.523.907.976 1.5 1.316l36.14 20.875 6.02 3.46c.9.52 1.926.74 2.934.665.336-.027.672-.09 1-.183l44.434-81.36c-.34-.37-.738-.68-1.184-.94l-27.586-15.93-14.582-8.39c-.414-.24-.863-.41-1.32-.53zm0 0"
         id="path7139" />
    </clipPath>
    <linearGradient
       id="d"
       x1="-.456"
       x2=".582"
       gradientTransform="rotate(-36.46 550.846 -214.337) scale(132.798)"
       gradientUnits="userSpaceOnUse">
      <stop
         offset=".57"
         stop-color="#3E863D"
         id="stop7142" />
      <stop
         offset=".72"
         stop-color="#619857"
         id="stop7144" />
      <stop
         offset="1"
         stop-color="#76AC64"
         id="stop7146" />
    </linearGradient>
    <clipPath
       id="e">
      <path
         d="M241.066 225.953c-.707.07-1.398.29-2.035.652l-42.01 24.247 45.3 82.51c.63-.09 1.25-.3 1.81-.624l42.13-24.336c1.3-.754 2.19-2.03 2.46-3.476l-46.18-78.89c-.34-.067-.68-.102-1.03-.102-.14 0-.28.007-.42.02"
         id="path7149" />
    </clipPath>
    <linearGradient
       id="f"
       x1=".043"
       x2=".984"
       gradientTransform="translate(192.862 279.652) scale(97.417)"
       gradientUnits="userSpaceOnUse">
      <stop
         offset=".16"
         stop-color="#6BBF47"
         id="stop7152" />
      <stop
         offset=".38"
         stop-color="#79B461"
         id="stop7154" />
      <stop
         offset=".47"
         stop-color="#75AC64"
         id="stop7156" />
      <stop
         offset=".7"
         stop-color="#659E5A"
         id="stop7158" />
      <stop
         offset=".9"
         stop-color="#3E863D"
         id="stop7160" />
    </linearGradient>
    <linearGradient
       id="b-7"
       x1="-0.34799999"
       x2="1.251"
       gradientTransform="matrix(-38.064915,77.652126,-77.652126,-38.064915,252.47095,256.47588)"
       gradientUnits="userSpaceOnUse">
      <stop
         offset=".3"
         stop-color="#3E863D"
         id="stop7132-5" />
      <stop
         offset=".5"
         stop-color="#55934F"
         id="stop7134-3" />
      <stop
         offset=".8"
         stop-color="#5AAD45"
         id="stop7136-5" />
    </linearGradient>
  </defs>
  <path
     id="path7193"
     d="m 439.827,107.488 c 1.574,-0.914 2.543,-2.602 2.543,-4.422 V 91.21 c 0,-1.824 -0.97,-3.507 -2.547,-4.425 l -42.1,-24.44 c -1.59,-0.92 -3.54,-0.92 -5.13,0 l -42.36,24.45 c -1.59,0.92 -2.56,2.6 -2.56,4.43 v 48.9 c 0,1.84 0.99,3.54 2.58,4.45 l 42.09,23.99 c 1.55,0.89 3.45,0.9 5.02,0.03 l 25.46,-14.15 c 0.8,-0.45 1.31,-1.3 1.31,-2.22 0,-0.92 -0.49,-1.78 -1.29,-2.23 l -42.62,-24.46 c -0.8,-0.45 -1.29,-1.3 -1.29,-2.21 v -15.34 c 0,-0.916 0.48,-1.76 1.28,-2.216 l 13.26,-7.65 c 0.79,-0.46 1.76,-0.46 2.55,0 l 13.27,7.65 c 0.79,0.45 1.28,1.3 1.28,2.21 v 12.06 c 0,0.91 0.49,1.76 1.28,2.22 0.79,0.45 1.77,0.45 2.56,-0.01 z M 297.4585,0 c -0.43875,0.004875 -0.87655,0.12306314 -1.26856,0.35156314 -0.78,0.45999999 -1.26123,1.29898846 -1.26123,2.20898846 V 67.561647 c 0,0.64 -0.34102,1.229808 -0.89502,1.549808 -0.55,0.319999 -1.23504,0.319999 -1.79005,0 l -10.60987,-6.11134 c -1.58,-0.914 -3.52632,-0.914 -5.11232,0 L 234.15223,87.4528 c -1.583,0.909999 -2.56055,2.600899 -2.56055,4.420905 v 48.920005 c 0,1.83 0.97755,3.5097 2.56055,4.4297 l 42.36922,24.47026 c 1.582,0.91 3.53118,0.91 5.11817,0 l 42.36922,-24.48051 c 1.58,-0.92001 2.56055,-2.5997 2.56055,-4.4297 V 18.862828 c 0,-1.856001 -1.01086,-3.562247 -2.63086,-4.469247 L 298.73438,0.32373106 C 298.33738,0.10273106 297.89725,-0.004875 297.4585,0 Z m -18.49515,98.247247 c 0.2225,0 0.44599,0.05786 0.646,0.172853 l 14.55032,8.39943 c 0.39999,0.23 0.63867,0.65235 0.63867,1.11035 l 0.006,16.79593 c 0,0.457 -0.24314,0.87996 -0.64014,1.10596 l -14.54739,8.38625 c -0.395,0.227 -0.88335,0.227 -1.27735,0 l -14.55031,-8.38625 c -0.4,-0.227 -0.64015,-0.64996 -0.64015,-1.10596 v -16.79593 c 0,-0.458 0.23989,-0.88035 0.62989,-1.11035 l 14.54007,-8.39943 c 0.19999,-0.114998 0.42203,-0.172853 0.64453,-0.172853 z M 94.936,90.55 c 0,-1.84 -0.97,-3.53 -2.558,-4.445 L 50.022,61.735 c -0.715,-0.42 -1.516,-0.64 -2.328,-0.67 h -0.438 c -0.812,0.03 -1.613,0.25 -2.34,0.67 L 2.562,86.105 C 0.984,87.025 0,88.715 0,90.555 l 0.093,65.64 c 0,0.91 0.47,1.76 1.27,2.21 0.78,0.48 1.76,0.48 2.54,0 l 25.18,-14.42 c 1.59,-0.946 2.56,-2.618 2.56,-4.44 V 108.88 c 0,-1.83 0.97,-3.52 2.555,-4.43 l 10.72,-6.174 c 0.796,-0.46 1.67,-0.688 2.56,-0.688 0.876,0 1.77,0.226 2.544,0.687 l 10.715,6.172 c 1.586,0.91 2.56,2.6 2.56,4.43 v 30.663 c 0,1.82 0.983,3.5 2.565,4.44 l 25.164,14.41 c 0.79,0.47 1.773,0.47 2.56,0 0.776,-0.45 1.268,-1.3 1.268,-2.21 z"
     style="fill:#9f8b63;fill-opacity:1" />
  <path
     d="M 439.827,107.488"
     id="path7169" />
  <path
     id="path7129"
     d="m 160.724,62.589 -42.13,24.317 c -1.578,0.91 -2.546,2.59 -2.546,4.406 v 48.668 c 0,1.817 0.968,3.496 2.546,4.406 l 42.133,24.336 c 1.575,0.907 3.517,0.907 5.09,0 l 42.126,-24.336 c 1.57,-0.91 2.54,-2.59 2.54,-4.406 V 91.312 c 0,-1.816 -0.97,-3.496 -2.55,-4.406 l -42.12,-24.317 c -0.79,-0.453 -1.67,-0.68 -2.55,-0.68 -0.88,0 -1.76,0.227 -2.55,0.68 M 394.538,105.2 c 0.3,-0.177 0.676,-0.177 0.98,0 l 8.13,4.69 c 0.304,0.176 0.49,0.5 0.49,0.85 v 9.39 c 0,0.35 -0.186,0.674 -0.49,0.85 l -8.13,4.69 c -0.304,0.177 -0.68,0.177 -0.98,0 l -8.125,-4.69 c -0.31,-0.176 -0.5,-0.5 -0.5,-0.85 v -9.39 c 0,-0.35 0.18,-0.674 0.49,-0.85 z m 0,0 M 230.987,239.164 c -17.48,0 -21.145,-8.024 -21.145,-14.754 0,-0.64 0.516,-1.15 1.157,-1.15 h 5.16 c 0.57,0 1.05,0.415 1.14,0.978 0.78,5.258 3.1,7.91 13.67,7.91 8.42,0 12,-1.902 12,-6.367 0,-2.57 -1.02,-4.48 -14.1,-5.76 -10.94,-1.08 -17.7,-3.49 -17.7,-12.24 0,-8.06 6.8,-12.86 18.19,-12.86 12.79,0 19.13,4.44 19.93,13.98 0.03,0.33 -0.09,0.65 -0.31,0.89 -0.22,0.23 -0.53,0.37 -0.85,0.37 h -5.19 c -0.54,0 -1.01,-0.38 -1.12,-0.9 -1.25,-5.53 -4.27,-7.3 -12.48,-7.3 -9.19,0 -10.26,3.2 -10.26,5.6 0,2.91 1.26,3.76 13.66,5.4 12.28,1.63 18.11,3.93 18.11,12.56 0,8.7 -7.26,13.69 -19.92,13.69 m 48.66,-48.89 h 1.34 c 1.1,0 1.31,-0.77 1.31,-1.22 0,-1.18 -0.81,-1.18 -1.26,-1.18 h -1.38 z m -1.63,-3.78 h 2.97 c 1.02,0 3.02,0 3.02,2.28 0,1.59 -1.02,1.92 -1.63,2.12 1.19,0.08 1.27,0.86 1.43,1.96 0.08,0.69 0.21,1.88 0.45,2.28 h -1.83 c -0.05,-0.4 -0.33,-2.6 -0.33,-2.72 -0.12,-0.49 -0.29,-0.73 -0.9,-0.73 h -1.51 v 3.46 h -1.67 z m -3.57,4.3 c 0,3.58 2.89,6.48 6.44,6.48 3.58,0 6.47,-2.96 6.47,-6.48 0,-3.59 -2.93,-6.44 -6.48,-6.44 -3.5,0 -6.44,2.81 -6.44,6.43 m 14.16,0.03 c 0,4.24 -3.47,7.7 -7.7,7.7 -4.2,0 -7.7,-3.42 -7.7,-7.7 0,-4.36 3.58,-7.7 7.7,-7.7 4.15,0 7.69,3.35 7.69,7.7 m -69.882,80.069 c -1.46,0 -2.91,-0.383 -4.19,-1.12 l -13.337,-7.896 c -1.992,-1.114 -1.02,-1.508 -0.363,-1.735 2.656,-0.93 3.195,-1.14 6.03,-2.75 0.298,-0.17 0.688,-0.11 0.993,0.07 l 10.246,6.08 c 0.37,0.2 0.895,0.2 1.238,0 l 39.95,-23.06 c 0.37,-0.21 0.61,-0.64 0.61,-1.08 v -46.1 c 0,-0.46 -0.24,-0.87 -0.618,-1.1 l -39.934,-23.04 c -0.37,-0.22 -0.86,-0.22 -1.23,0 l -39.926,23.04 c -0.387,0.22 -0.633,0.65 -0.633,1.09 v 46.1 c 0,0.44 0.24,0.86 0.62,1.07 l 10.94,6.32 c 5.94,2.97 9.57,-0.53 9.57,-4.05 v -45.5 c 0,-0.65 0.51,-1.15 1.16,-1.15 h 5.06 c 0.63,0 1.15,0.5 1.15,1.15 v 45.52 c 0,7.92 -4.32,12.47 -11.83,12.47 -2.31,0 -4.13,0 -9.21,-2.5 l -10.48,-6.04 c -2.59,-1.5 -4.19,-4.3 -4.19,-7.29 v -46.1 c 0,-3 1.6,-5.8 4.19,-7.28 l 39.99,-23.07 c 2.53,-1.43 5.89,-1.43 8.4,0 l 39.94,23.08 c 2.58,1.49 4.19,4.28 4.19,7.28 v 46.1 c 0,2.99 -1.61,5.78 -4.19,7.28 l -39.94,23.07 c -1.28,0.74 -2.73,1.12 -4.21,1.12"
     style="fill:#689f63;fill-opacity:1" />
</svg>
