<?xml version="1.0" encoding="UTF-8" standalone="no"?>
<!-- Created with Inkscape (http://www.inkscape.org/) -->

<svg
   xmlns:dc="http://purl.org/dc/elements/1.1/"
   xmlns:cc="http://creativecommons.org/ns#"
   xmlns:rdf="http://www.w3.org/1999/02/22-rdf-syntax-ns#"
   xmlns:svg="http://www.w3.org/2000/svg"
   xmlns="http://www.w3.org/2000/svg"
   xmlns:sodipodi="http://sodipodi.sourceforge.net/DTD/sodipodi-0.dtd"
   xmlns:inkscape="http://www.inkscape.org/namespaces/inkscape"
   width="547.28369"
   height="410.57996"
   viewBox="0 0 144.80214 108.63262"
   version="1.1"
   id="svg8457"
   inkscape:version="0.92.1 r15371"
   sodipodi:docname="svgSassInk.svg">
  <defs
     id="defs8451" />
  <sodipodi:namedview
     id="base"
     pagecolor="#ffffff"
     bordercolor="#666666"
     borderopacity="1.0"
     inkscape:pageopacity="0.0"
     inkscape:pageshadow="2"
     inkscape:zoom="0.35"
     inkscape:cx="278.02757"
     inkscape:cy="-74.709828"
     inkscape:document-units="px"
     inkscape:current-layer="layer1"
     showgrid="false"
     inkscape:window-width="1280"
     inkscape:window-height="656"
     inkscape:window-x="0"
     inkscape:window-y="27"
     inkscape:window-maximized="1"
     units="px"
     fit-margin-top="0"
     fit-margin-right="-0.2"
     fit-margin-left="0"
     fit-margin-bottom="0" />
  <metadata
     id="metadata8454">
    <rdf:RDF>
      <cc:Work
         rdf:about="">
        <dc:format>image/svg+xml</dc:format>
        <dc:type
           rdf:resource="http://purl.org/dc/dcmitype/StillImage" />
        <dc:title></dc:title>
      </cc:Work>
    </rdf:RDF>
  </metadata>
  <g
     inkscape:label="Layer 1"
     inkscape:groupmode="layer"
     id="layer1"
     transform="translate(-58.352229,-78.642067)">
    <path
       d="m 183.08377,141.09067 c -5.05354,0.0265 -9.44562,1.24354 -13.12333,3.04272 -1.34938,-2.6723 -2.69875,-5.05355 -2.93688,-6.7998 -0.26458,-2.03729 -0.58208,-3.28083 -0.26458,-5.715 0.3175,-2.43417 1.74625,-5.90021 1.71979,-6.16479 -0.0265,-0.26459 -0.3175,-1.50813 -3.22792,-1.53459 -2.91041,-0.0265 -5.42395,0.55563 -5.715,1.32292 -0.29104,0.76729 -0.84666,2.51354 -1.21708,4.31271 -0.50271,2.64583 -5.82083,12.09146 -8.86354,17.03917 -0.97896,-1.93146 -1.82562,-3.6248 -2.01083,-4.97417 -0.26459,-2.03729 -0.58209,-3.28083 -0.26459,-5.715 0.3175,-2.43417 1.74625,-5.90021 1.7198,-6.16479 -0.0265,-0.26459 -0.3175,-1.50813 -3.22792,-1.53459 -2.91042,-0.0265 -5.42396,0.55563 -5.715,1.32292 -0.29104,0.76729 -0.60854,2.56646 -1.21708,4.31271 -0.60855,1.74625 -7.67292,17.51542 -9.525,21.59 -0.9525,2.09021 -1.77271,3.75709 -2.3548,4.8948 0,0 0,0 0,0 0,0 -0.0265,0.0794 -0.10583,0.21166 -0.50271,0.97896 -0.79375,1.50813 -0.79375,1.50813 0,0 0,0 0,0.0265 -0.39687,0.71437 -0.82021,1.37583 -1.03187,1.37583 -0.15875,0 -0.4498,-1.905 0.0529,-4.49792 1.05833,-5.47687 3.57187,-13.99646 3.54541,-14.2875 0,-0.15875 0.47625,-1.64042 -1.64041,-2.40771 -2.06375,-0.76729 -2.80459,0.50271 -2.9898,0.50271 -0.1852,0 -0.3175,0.44979 -0.3175,0.44979 0,0 2.30188,-9.57792 -4.39208,-9.57792 -4.18042,0 -9.94833,4.5773 -12.80583,8.7048 -1.79917,0.97896 -5.63562,3.06917 -9.736674,5.31812 -1.56104,0.87313 -3.175,1.74625 -4.68312,2.56646 -0.10583,-0.10583 -0.21167,-0.23812 -0.3175,-0.34396 -8.09625,-8.65188 -23.07167,-14.76375 -22.43667,-26.37896 0.23812,-4.23333 1.69333,-15.34583 28.76021,-28.839582 22.277914,-10.980209 40.004994,-7.9375 43.074164,-1.190625 4.39208,9.630837 -9.49854,27.516667 -32.51729,30.109587 -8.784164,0.97895 -13.387914,-2.40771 -14.552084,-3.67771 -1.21708,-1.32292 -1.40229,-1.40229 -1.85208,-1.13771 -0.74084,0.39687 -0.26459,1.5875 0,2.27542 0.68791,1.79916 3.51895,4.97416 8.307914,6.5352 4.23333,1.37584 14.52562,2.14313 26.9875,-2.67229 13.94354,-5.3975 24.84437,-20.39937 21.64292,-32.967081 -3.20146,-12.752917 -24.36813,-16.959792 -44.39709,-9.8425 -11.906244,4.233334 -24.817914,10.900834 -34.104794,19.579171 -11.03312,10.31875 -12.77937,19.28812 -12.065,23.0452 2.56646,13.335 20.955,22.01334 28.31042,28.44272 -0.37042,0.21166 -0.71437,0.39687 -1.00542,0.55562 -3.6777,1.82563 -17.70062,9.15459 -21.19312,16.90688 -3.96875,8.78416 0.635,15.08125 3.67771,15.92791 9.44562,2.61938 19.15583,-2.09021 24.36812,-9.86895 5.21229,-7.77875 4.57729,-17.88584 2.16959,-22.51605 -0.0265,-0.0529 -0.0529,-0.10583 -0.10584,-0.15875 0.9525,-0.55562 1.93146,-1.1377 2.88396,-1.69333 1.87854,-1.11125 3.730634,-2.14312 5.318124,-2.98979 -0.89958,2.46062 -1.56104,5.3975 -1.87854,9.63083 -0.39687,4.97417 1.64042,11.43 4.31271,13.97 1.19062,1.11125 2.59292,1.13771 3.4925,1.13771 3.12208,0 4.52437,-2.59292 6.08542,-5.66208 1.905,-3.75709 3.62479,-8.12271 3.62479,-8.12271 0,0 -2.14313,11.80042 3.67771,11.80042 2.11666,0 4.25979,-2.75167 5.21229,-4.15396 0,0.0265 0,0.0265 0,0.0265 0,0 0.0529,-0.0794 0.15875,-0.26459 0.21166,-0.34396 0.34396,-0.55562 0.34396,-0.55562 0,0 0,-0.0265 0,-0.0529 0.84666,-1.48167 2.75166,-4.84188 5.5827,-10.42459 3.65125,-7.19666 7.17021,-16.1925 7.17021,-16.1925 0,0 0.3175,2.19604 1.40229,5.8473 0.635,2.14312 1.95792,4.49791 3.01625,6.77333 -0.84666,1.19062 -1.37583,1.85208 -1.37583,1.85208 0,0 0,0 0.0265,0.0265 -0.68792,0.89959 -1.42875,1.87854 -2.24896,2.83104 -2.88396,3.43959 -6.32354,7.38188 -6.79979,8.51959 -0.55562,1.34937 -0.42333,2.32833 0.635,3.12208 0.76729,0.58208 2.14313,0.66146 3.54542,0.58208 2.59291,-0.1852 4.41854,-0.8202 5.31812,-1.21708 1.40229,-0.50271 3.04271,-1.27 4.57729,-2.40771 2.83105,-2.09021 4.55084,-5.08 4.39209,-9.02229 -0.0794,-2.16958 -0.79375,-4.33917 -1.66688,-6.37646 0.26459,-0.37041 0.50271,-0.74083 0.76729,-1.11125 4.47146,-6.53521 7.9375,-13.70542 7.9375,-13.70542 0,0 0.3175,2.19604 1.40229,5.84729 0.52917,1.85209 1.61396,3.86292 2.56646,5.82084 -4.20687,3.41313 -6.79979,7.38188 -7.72583,9.97479 -1.66687,4.81542 -0.37042,6.985 2.09021,7.48771 1.11125,0.23813 2.69875,-0.29104 3.86291,-0.79375 1.48167,-0.47625 3.22792,-1.29646 4.89479,-2.51354 2.83105,-2.09021 5.55625,-5.00063 5.3975,-8.94292 -0.0794,-1.79916 -0.55562,-3.57187 -1.21708,-5.29166 3.57188,-1.48167 8.17563,-2.30188 14.04938,-1.61396 12.59416,1.48166 15.08125,9.33979 14.605,12.64708 -0.47625,3.30729 -3.12209,5.10646 -3.99521,5.66208 -0.87313,0.55563 -1.16417,0.74084 -1.08479,1.13771 0.10583,0.58209 0.52916,0.55563 1.27,0.44979 1.03187,-0.1852 6.61458,-2.67229 6.8527,-8.7577 0.39688,-7.77875 -7.01145,-16.27188 -20.10833,-16.19251 z m -97.154994,32.75542 c -4.18042,4.55084 -10.00125,6.27063 -12.5148,4.81542 -2.69875,-1.56104 -1.64041,-8.28146 3.4925,-13.09687 3.12209,-2.93688 7.14375,-5.66209 9.81605,-7.32896 0.60854,-0.37042 1.50812,-0.89959 2.59291,-1.56104 0.18521,-0.10584 0.29104,-0.15875 0.29104,-0.15875 v 0 c 0.21167,-0.1323 0.42334,-0.26459 0.635,-0.39688 1.87855,6.87917 0.0794,12.93813 -4.3127,17.72708 z m 30.427084,-20.69041 c -1.45521,3.54541 -4.49792,12.62062 -6.35,12.11791 -1.5875,-0.42333 -2.56646,-7.3025 -0.3175,-14.10229 1.1377,-3.41312 3.54541,-7.48771 4.9477,-9.07521 2.27542,-2.54 4.78896,-3.38667 5.3975,-2.35479 0.7673,1.34937 -2.77812,11.19188 -3.6777,13.41438 z m 25.10895,12.01208 c -0.60854,0.3175 -1.19062,0.52917 -1.4552,0.37042 -0.18521,-0.10584 0.26458,-0.52917 0.26458,-0.52917 0,0 3.14854,-3.38667 4.39208,-4.92125 0.71438,-0.89958 1.56104,-1.95792 2.46063,-3.14854 0,0.10583 0,0.23812 0,0.34396 0,4.04812 -3.91584,6.77333 -5.66209,7.88458 z m 19.3675,-4.41854 c -0.44979,-0.3175 -0.37041,-1.37583 1.13771,-4.68313 0.58208,-1.29645 1.95792,-3.46604 4.31271,-5.55625 0.26458,0.84667 0.44979,1.66688 0.42333,2.43417 -0.0265,5.10646 -3.67771,7.01146 -5.87375,7.80521 z"
       id="path2"
       inkscape:connector-curvature="0"
       style="fill:#cd6799;stroke-width:0.26458332" />
  </g>
</svg>
