<?xml version="1.0" encoding="UTF-8" standalone="no"?>
<svg
   xmlns:dc="http://purl.org/dc/elements/1.1/"
   xmlns:cc="http://creativecommons.org/ns#"
   xmlns:rdf="http://www.w3.org/1999/02/22-rdf-syntax-ns#"
   xmlns:svg="http://www.w3.org/2000/svg"
   xmlns="http://www.w3.org/2000/svg"
   id="svg5200"
   version="1.1"
   viewBox="0 0 200.89557 79.416183"
   height="79.416183mm"
   width="200.89557mm">
  <defs
     id="defs5194">
    <clipPath
       clipPathUnits="userSpaceOnUse"
       id="clipPath8301">
      <path
         d="m 12315.398,5804.9801 c -9.02,-11.4737 -16.244,-21.2514 -16.054,-21.7282 0.189,-0.4768 6.443,-6.3137 13.898,-12.9709 33.35,-29.7829 64.488,-65.392 87.503,-100.0663 l 6.75,-10.1702 -6.476,-9.8298 c -18.359,-27.8674 -39.017,-68.6684 -60.801,-120.0892 -3.789,-8.9427 -7.137,-17.2677 -7.44,-18.5 -0.496,-2.0139 1.78,-3.6492 22.505,-16.1687 13.37,-8.0767 23.395,-13.5382 23.862,-13 0.443,0.5105 5.445,12.1782 11.116,25.9282 16.658,40.387 36.422,82.053 45.742,96.4298 l 1.575,2.4297 2.481,-4.883 c 4.139,-8.1434 13.194,-29.2886 17.761,-41.4765 10.659,-28.4409 22.842,-74.6601 26.045,-98.8115 l 0.689,-5.1885 h -78.129 -78.129 l 0.04,-23.25 0.04,-23.25 10.082,-11 c 35.444,-38.6709 70.796,-82.8623 94.797,-118.5 9.103,-13.5159 28.044,-44.2129 28.044,-45.4498 0,-0.3026 -31.725,-0.5502 -70.5,-0.5502 h -70.5 v -26.5 -26.5 h 103.5 103.5 v 23.1567 23.1567 l -6.143,11.0933 c -30.234,54.6061 -64.243,104.8445 -98.984,146.2216 -6.255,7.4503 -12.444,14.8568 -13.752,16.4589 l -2.378,2.9128 h 67.628 67.629 v 22.9387 c 0,25.6139 -1.251,35.3523 -9.062,70.5613 -11.288,50.8871 -26.517,94.4351 -48.067,137.4512 l -10.746,21.4512 7.15,8.4219 c 12.706,14.9666 30.779,30.3778 48.84,41.6467 41.68,26.0068 93.93,39.5243 175.885,45.5035 29.256,2.1345 79.824,2.9845 178.75,3.0048 l 101.25,0.021 v 26.5 26.5 l -120.25,-6e-4 c -66.745,-4e-4 -128.482,-0.4435 -138.75,-0.9961 -125.35,-6.7455 -201.264,-30.0608 -258.758,-79.4718 -6.066,-5.2134 -13.906,-12.6621 -17.422,-16.5528 l -6.392,-7.074 -7.946,11.7976 c -16.623,24.6799 -43.774,56.0466 -68.555,79.1997 -16.526,15.4399 -33.377,30.1058 -34.557,30.0762 -0.479,-0.012 -8.25,-9.4094 -17.269,-20.8831 z m 247.898,-144.0951 v -26 h 88 88 v -90 -90 h -95 -95 v -26.5 -26.5 h 95 95 v -73.5 c 0,-40.425 -0.142,-73.5 -0.316,-73.5 -0.174,0 -7.487,1.123 -16.25,2.4956 -37.661,5.8984 -80.523,9.335 -127.184,10.1974 l -33.25,0.6144 v -27.553 -27.553 l 12.25,-0.5703 c 6.737,-0.3136 22.813,-0.8159 35.724,-1.1162 100.545,-2.3386 216.661,-20.1171 320.89,-49.1315 9,-2.5054 16.69,-4.1791 17.087,-3.7193 0.952,1.0992 14.485,51.2474 13.956,51.7125 -0.688,0.6047 -61.312,15.3287 -80.407,19.5286 -22.277,4.8998 -54.611,11.3182 -72.5,14.3915 l -13.5,2.3192 -0.256,77.6921 -0.256,77.692 h 94.506 94.506 v 26.5 26.5 h -94.5 -94.5 v 90 90 h 84 84 v 26 26 h -200 -200 z m -993.419,142.4235 v -193 h -78.5 -78.5 v -26 -26 h 78.5 78.5 v -45.5 -45.5 h -54.5 -54.5 v -7.5722 -7.5722 l -11.75,10.3686 c -21.19,18.6986 -39.011,33.7758 -39.924,33.7758 -0.492,0 -5.895,-11.0864 -12.004,-24.6365 l -11.109,-24.6365 13.144,-11.4888 c 57.735,-50.4659 112.978,-110.1736 160.978,-173.9882 l 10.718,-14.25 23.224,0.031 23.223,0.031 7,8.2076 c 38.287,44.8923 90.895,96.999 134.5,133.218 5.225,4.34 9.674,8.017 9.886,8.171 0.351,0.2545 -19.643,49.3426 -20.452,50.2142 -0.19,0.2049 -4.528,-3.1178 -9.64,-7.3837 l -9.294,-7.7562 -0.273,17.6337 -0.273,17.6337 h -51.977 -51.977 v 45.5 45.5 h 71.5 71.5 v 26 26 h -71.5 -71.5 v 193 193 h -27.5 -27.5 v -193 z m 136.978,-390.3553 c -1.363,-1.2955 -7.653,-7.0209 -13.978,-12.7232 -31.127,-28.063 -65.613,-62.9069 -88.008,-88.9215 -4.024,-4.675 -7.857,-9.0974 -8.518,-9.8276 -0.969,-1.0714 -2.223,0.086 -6.5,6 -18.341,25.3619 -49.669,63.1944 -74.591,90.0776 l -16.455,17.75 h 105.264 105.263 z m 373.022,498.1681 c -61.102,-41.0756 -109.368,-85.4402 -146.055,-134.2487 -3.953,-5.2602 -7.471,-9.5345 -7.817,-9.4983 -0.345,0.036 -3.553,3.6848 -7.128,8.108 -7.988,9.8841 -28.871,31.8603 -43.22,45.484 -29.775,28.27 -66.807,56.2449 -105.28,79.5313 -16.226,9.821 -35.93,20.8109 -37.313,20.8109 -0.525,0 -6.486,-10.0125 -13.247,-22.25 -6.761,-12.2375 -12.912,-23.2192 -13.668,-24.4037 -1.322,-2.0691 -0.991,-2.3601 8.426,-7.4129 63.378,-34.0052 117.767,-77.4266 163.382,-130.4334 5.206,-6.05 10.726,-12.6604 12.266,-14.6898 l 2.8,-3.6899 -8.224,-13.8101 c -45.696,-76.7317 -79.62,-177.2537 -98.948,-293.2043 -3.174,-19.0379 -6.974,-45.2585 -6.974,-48.1188 0,-1.3313 4.688,-2.6091 25.25,-6.8832 13.888,-2.8867 26.013,-5.4634 26.946,-5.7262 1.969,-0.555 1.561,-2.5267 5.814,28.1223 13.226,95.3181 36.085,178.5072 67.399,245.2842 8.196,17.4766 23.004,45.2158 24.138,45.2158 0.461,0 8.266,-12.0317 15.245,-23.5 46.97,-77.1926 80.179,-170.591 98.665,-277.4923 1.949,-11.2708 3.543,-21.0583 3.543,-21.75 0,-1.0048 -30.967,-1.2577 -154,-1.2577 h -154 v -26.5 -26.5 h 183 183 v 23.3015 c 0,21.9414 -0.201,24.495 -3.447,43.75 -22.63,134.2342 -66.388,250.5634 -129.821,345.1271 l -10.471,15.6095 9.62,12.8962 c 15.31,20.5256 23.999,30.3631 47.538,53.8245 29.626,29.5287 52.891,48.432 88.081,71.5692 9.9,6.5091 18.764,12.4169 19.698,13.1284 1.541,1.1732 0.33,3.5955 -13,26.0228 -8.084,13.601 -14.923,24.7171 -15.198,24.7024 -0.275,-0.015 -7.925,-5.0181 -17,-11.1188 z m -656.508,-34.7133 c -13.14,-7.039 -24.037,-13.2361 -24.216,-13.7713 -0.178,-0.5351 3.112,-7.0154 7.311,-14.4006 34.399,-60.4946 60.586,-130.8131 77.018,-206.8149 1.373,-6.351 2.638,-11.6889 2.811,-11.8618 0.314,-0.3137 50.736,10.568 51.223,11.0544 0.141,0.1409 -1.271,7.7774 -3.137,16.9698 -15.422,75.9594 -41.782,149.7514 -75.456,211.2249 -5.122,9.35 -9.841,17.7645 -10.487,18.6988 -1.058,1.5287 -3.567,0.4175 -25.067,-11.0993 z m 278.148,-22.8495 c -0.272,-0.9625 -2.818,-12.325 -5.658,-25.25 -6.406,-29.1572 -19.904,-83.3101 -28.041,-112.5 -5.371,-19.2686 -19.718,-67.2433 -21.397,-71.5498 -0.498,-1.2786 3.871,-2.7528 24.955,-8.4207 15.276,-4.1062 25.899,-6.5003 26.402,-5.9501 1.907,2.0847 19.389,60.4821 30.054,100.3912 9.203,34.441 26.824,109.6755 25.876,110.4823 -0.556,0.4739 -49.579,14.5471 -50.673,14.5471 -0.562,0 -1.246,-0.7875 -1.518,-1.75 z m -1266.812,-473.0133 v -364.5 h 107.5 107.5 v 21.5 21.5 h 95 95 v -35.5 -35.5 h 28 28 v 35.5 35.5 h 107 107 v 25.5 25.5 h -107 -107 v 17.5 17.5 h 96.5 96.5 v 143.4941 143.494 l -80.098,0.256 -80.098,0.2559 8.729,11.5 c 40.164,52.9125 102.459,106.332 176.186,151.0834 6.72,4.0791 12.232,7.6881 12.25,8.0199 0.02,0.3319 -5.357,11.6978 -11.942,25.2576 l -11.972,24.6543 -5.278,-3.2319 c -15.037,-9.2088 -49.527,-32.9206 -67.366,-46.3138 -53.552,-40.2069 -94.483,-79.6848 -125.761,-121.2986 l -7.15,-9.512 -0.254,136.1706 -0.253,136.1705 h -27.993 -27.993 l -0.253,-135.413 -0.254,-135.4131 -8,10.1366 c -9.504,12.0417 -35.776,38.7328 -50.5,51.3051 -33.196,28.3445 -68.646,53.8799 -114.758,82.6639 -26.324,16.4317 -55.513,33.7252 -56.903,33.7134 -1.014,-0.01 -26.051,-48.6317 -25.339,-49.2115 0.275,-0.2241 13.952,-8.4425 30.394,-18.263 79.887,-47.7161 142.392,-94.7651 176.446,-132.8154 5.687,-6.3542 11.688,-13.3869 13.336,-15.6281 l 2.997,-4.0749 h -80.587 -80.586 v -143.5 -143.5 h 97 97 v -17.5 -17.5 h -104.35 -104.35 l -2.818,6.75 c -17.027,40.7807 -43.279,93.6134 -60.547,121.8514 l -3.732,6.1014 4.994,6.3986 c 7.359,9.4303 24.862,36.0207 30.732,46.6877 13.849,25.167 22.038,49.073 26.622,77.7109 2.169,13.5561 3.044,50.1969 1.513,63.37 -4.807,41.3409 -23.521,65.5827 -58.693,76.0258 -13.085,3.8854 -25.272,5.092 -51.49,5.0983 l -24.62,0.01 -1.51,-8.75 c -1.39,-8.0524 -1.52,0.9164 -1.631,112.5 l -0.12,121.2499 h -27.5 -27.5 z m 109.227,86.0907 c 21.766,-4.7776 29.504,-15.3933 31.772,-43.5904 1.823,-22.6529 -2.102,-53.5327 -9.541,-75.0587 -7.93,-22.9439 -25.63,-51.0147 -53.57,-84.955 -5.213,-6.3324 -9.785,-12.0101 -10.16,-12.6171 -0.375,-0.6071 3.947,-9.151 9.605,-18.9866 29.748,-51.7186 56.607,-106.9337 72.67,-149.3922 2.749,-7.2638 4.997,-13.6083 4.997,-14.0988 0,-0.5106 -21.373,-0.8919 -50,-0.8919 h -50 v 201.1516 201.1516 l 23.75,-0.618 c 14.982,-0.3899 26.233,-1.1631 30.477,-2.0945 z m 295.773,-121.5907 v -36 h -70.5 -70.5 v 36 36 h 70.5 70.5 z m 194,0 v -36 h -69 -69 v 36 36 h 69 69 z m -194,-118 v -33 h -70.5 -70.5 v 33 33 h 70.5 70.5 z m 194,0 v -33 h -69 -69 v 33 33 h 69 69 z"
         style="fill:#000000"
         id="path8303" />
    </clipPath>
  </defs>
  <metadata
     id="metadata5197">
    <rdf:RDF>
      <cc:Work
         rdf:about="">
        <dc:format>image/svg+xml</dc:format>
        <dc:type
           rdf:resource="http://purl.org/dc/dcmitype/StillImage" />
        <dc:title></dc:title>
      </cc:Work>
    </rdf:RDF>
  </metadata>
  <g
     transform="translate(-9.9212628,-28.238332)"
     id="layer1">
    <g
       id="g8376"
       transform="matrix(0.29769155,0,0,0.29769155,-25.28605,-750.37389)"
       style="stroke-width:3.35918188">
      <path
         d="m 615.86778,2831.6473 c -2.38654,-3.0357 -4.29789,-5.6228 -4.24762,-5.7489 0.05,-0.1262 1.70471,-1.6705 3.67718,-3.4319 8.82386,-7.8801 17.06245,-17.3016 23.15184,-26.4759 l 1.78593,-2.6908 -1.71344,-2.6008 c -4.85748,-7.3733 -10.32325,-18.1686 -16.08693,-31.7736 -1.00251,-2.3661 -1.88833,-4.5688 -1.9685,-4.8948 -0.13123,-0.5329 0.47096,-0.9655 5.95445,-4.278 3.53748,-2.137 6.18993,-3.582 6.31349,-3.4396 0.11721,0.1351 1.44065,3.2222 2.9411,6.8602 4.40743,10.6857 9.63666,21.7098 12.10258,25.5137 l 0.41671,0.6429 0.65644,-1.292 c 1.09511,-2.1546 3.49091,-7.7493 4.69926,-10.974 2.82019,-7.525 6.04361,-19.7538 6.89107,-26.1439 l 0.1823,-1.3728 h -20.67163 -20.67163 l 0.0106,-6.1515 0.0106,-6.1516 2.66752,-2.9104 c 9.3779,-10.2317 18.73145,-21.924 25.08171,-31.3531 2.4085,-3.5761 7.41998,-11.698 7.41998,-12.0253 0,-0.08 -8.39391,-0.1456 -18.65313,-0.1456 h -18.65312 v -7.0114 -7.0115 h 27.38437 27.38438 v 6.1269 6.1269 l -1.62534,2.9351 c -7.99941,14.4479 -16.99763,27.7401 -26.18952,38.6878 -1.65497,1.9712 -3.29247,3.9308 -3.63855,4.3547 l -0.62918,0.7707 h 17.89325 17.8935 v 6.0692 c 0,6.777 -0.33099,9.3536 -2.39765,18.6694 -2.98662,13.4638 -7.01596,24.9859 -12.71773,36.3673 l -2.84321,5.6756 1.89177,2.2283 c 3.3618,3.9599 8.14361,8.0374 12.92225,11.019 11.02783,6.881 24.85231,10.4575 46.53624,12.0395 7.74065,0.5647 21.1201,0.7896 47.29427,0.795 l 26.78906,0.01 v 7.0114 7.0115 l -31.81614,-2e-4 c -17.65962,-1e-4 -33.9942,-0.1173 -36.71094,-0.2635 -33.16552,-1.7848 -53.2511,-7.9536 -68.46306,-21.0269 -1.60496,-1.3794 -3.67929,-3.3502 -4.60957,-4.3796 l -1.69121,-1.8717 -2.10238,3.1215 c -4.39817,6.5299 -11.58187,14.829 -18.13851,20.9549 -4.37251,4.0851 -8.831,7.9655 -9.14321,7.9576 -0.12673,0 -2.18281,-2.4895 -4.56909,-5.5253 z m 65.58968,-38.1252 v -6.8791 h 23.28334 23.28333 v -23.8125 -23.8125 H 702.88871 677.7533 v -7.0115 -7.0114 h 25.13541 25.13542 v -19.4469 c 0,-10.6958 -0.0376,-19.4469 -0.0836,-19.4469 -0.046,0 -1.98094,0.2971 -4.29948,0.6603 -9.96447,1.5606 -21.30504,2.4699 -33.65077,2.6981 l -8.79739,0.1625 v -7.29 -7.2901 l 3.24114,-0.1509 c 1.7825,-0.083 6.03594,-0.2159 9.45198,-0.2953 26.60253,-0.6188 57.32489,-5.3227 84.90215,-12.9994 2.38125,-0.6629 4.41589,-1.1057 4.52093,-0.9841 0.25188,0.2909 3.83249,13.5592 3.69253,13.6823 -0.18204,0.16 -16.22214,4.0557 -21.27436,5.1669 -5.89412,1.2965 -14.44916,2.9947 -19.18229,3.8078 l -3.57187,0.6136 -0.0677,20.5561 -0.0677,20.556 h 25.00471 25.00472 v 7.0114 7.0115 H 767.844 742.84088 v 23.8125 23.8125 h 22.225 22.225 v 6.8791 6.8792 h -52.91675 -52.91667 z m -262.84211,37.6829 v -51.0646 h -20.76979 -20.76979 v -6.8791 -6.8792 h 20.76979 20.76979 v -12.0385 -12.0386 h -14.41979 -14.41979 v -2.0034 -2.0035 l -3.10886,2.7433 c -5.60652,4.9474 -10.32166,8.9365 -10.56322,8.9365 -0.13018,0 -1.55972,-2.9332 -3.17606,-6.5184 l -2.93926,-6.5184 3.47769,-3.0397 c 15.27572,-13.3524 29.89209,-29.1501 42.59209,-46.0344 l 2.83581,-3.7703 6.14468,0.01 6.14442,0.01 1.85208,2.1716 c 10.13011,11.8777 24.04931,25.6643 35.58646,35.2473 1.38245,1.1483 2.55958,2.1211 2.61567,2.1619 0.0929,0.067 -5.19721,13.0552 -5.41126,13.2858 -0.0503,0.054 -1.19803,-0.8249 -2.55058,-1.9536 l -2.45904,-2.0522 -0.0722,4.6656 -0.0722,4.6656 h -13.75225 -13.75225 v 12.0386 12.0385 h 18.91771 18.91771 v 6.8792 6.8791 H 452.0852 433.16749 v 51.0646 51.0646 h -7.27604 -7.27604 v -51.0646 z m 36.2421,-103.2815 c -0.36063,-0.3427 -2.02486,-1.8576 -3.69835,-3.3663 -8.23568,-7.425 -17.3601,-16.6441 -23.28545,-23.5272 -1.06468,-1.2369 -2.07883,-2.407 -2.25372,-2.6002 -0.25638,-0.2835 -0.58817,0.023 -1.71979,1.5875 -4.85272,6.7104 -13.14159,16.7202 -19.73554,23.833 l -4.35372,4.6964 h 27.8511 27.85084 z m 98.6954,131.807 c -16.16657,-10.8679 -28.93695,-22.6061 -38.64372,-35.52 -1.0459,-1.3917 -1.9767,-2.5226 -2.06825,-2.5131 -0.0913,0.01 -0.94006,0.975 -1.88595,2.1453 -2.11349,2.6152 -7.63878,8.4297 -11.43529,12.0343 -7.87797,7.4798 -17.67602,14.8815 -27.85533,21.0426 -4.29313,2.5985 -9.50648,5.5063 -9.8724,5.5063 -0.1389,0 -1.71609,-2.6492 -3.50493,-5.887 -1.78885,-3.2379 -3.4163,-6.1434 -3.61633,-6.4568 -0.34978,-0.5475 -0.2622,-0.6245 2.22938,-1.9614 16.76876,-8.9972 31.15919,-20.4857 43.22815,-34.5105 1.37743,-1.6007 2.83793,-3.3497 3.24538,-3.8866 l 0.74084,-0.9763 -2.17594,-3.6539 c -12.0904,-20.302 -21.06612,-46.8984 -26.17999,-77.577 -0.83979,-5.0371 -1.8452,-11.9747 -1.8452,-12.7314 0,-0.3523 1.24036,-0.6904 6.68073,-1.8212 3.67453,-0.7638 6.8826,-1.4456 7.12946,-1.5151 0.52096,-0.1468 0.41301,-0.6685 1.53829,7.4407 3.49938,25.2196 9.54749,47.23 17.83265,64.8981 2.16852,4.624 6.08647,11.9634 6.38651,11.9634 0.12197,0 2.18705,-3.1834 4.03357,-6.2177 12.42748,-20.4239 21.21403,-45.1356 26.10512,-73.4199 0.51567,-2.982 0.93742,-5.5717 0.93742,-5.7547 0,-0.2658 -8.19335,-0.3327 -40.74584,-0.3327 h -40.74583 v -7.0115 -7.0115 h 48.41875 48.41875 v 6.1652 c 0,5.8054 -0.0532,6.481 -0.91202,11.5756 -5.98752,35.5161 -17.56516,66.2949 -34.34847,91.3148 l -2.77045,4.13 2.54529,3.4122 c 4.05077,5.4307 6.34973,8.0335 12.57776,14.241 7.83855,7.8128 13.99408,12.8143 23.30477,18.9361 2.61937,1.7222 4.96464,3.2853 5.21176,3.4735 0.40772,0.3104 0.0873,0.9513 -3.43958,6.8852 -2.1389,3.5986 -3.94838,6.5397 -4.02114,6.5359 -0.0728,0 -2.09682,-1.3278 -4.49792,-2.9419 z m -173.70107,-9.1846 c -3.47663,-1.8624 -6.35979,-3.502 -6.40715,-3.6436 -0.0471,-0.1416 0.82338,-1.8562 1.93437,-3.8102 9.1014,-16.0058 16.03004,-34.6109 20.37767,-54.7197 0.36328,-1.6804 0.69798,-3.0927 0.74375,-3.1385 0.0831,-0.083 13.4239,2.7961 13.55275,2.9248 0.0373,0.037 -0.33629,2.0578 -0.83,4.49 -4.0804,20.0975 -11.05482,39.6217 -19.9644,55.8865 -1.35519,2.4739 -2.60376,4.7002 -2.77468,4.9474 -0.27993,0.4045 -0.94377,0.1105 -6.63231,-2.9367 z m 73.59332,-6.0456 c -0.072,-0.2546 -0.74559,-3.2609 -1.49701,-6.6807 -1.69492,-7.7145 -5.26627,-22.0424 -7.41918,-29.7656 -1.42108,-5.0982 -5.21706,-17.7915 -5.66129,-18.9309 -0.13176,-0.3383 1.0242,-0.7283 6.60268,-2.228 4.04177,-1.0864 6.85244,-1.7198 6.98552,-1.5743 0.50456,0.5516 5.13001,16.0026 7.95179,26.5619 2.43496,9.1125 7.09719,29.0183 6.84636,29.2317 -0.14711,0.1254 -13.11778,3.849 -13.40723,3.849 -0.1487,0 -0.32967,-0.2084 -0.40164,-0.4631 z M 118.26776,2719.3489 v -96.4406 h 28.44271 28.44271 v 5.6885 5.6886 h 25.13542 25.13541 v -9.3927 -9.3927 h 7.40833 7.40834 v 9.3927 9.3927 h 28.31041 28.31042 v 6.7468 6.7469 h -28.31042 -28.31041 v 4.6302 4.6302 h 25.53229 25.53229 v 37.9662 37.9661 l -21.1926,0.068 -21.19259,0.068 2.30955,3.0427 c 10.62672,13.9998 27.10894,28.1337 46.61588,39.9742 1.778,1.0792 3.23638,2.0341 3.24114,2.1219 0.005,0.088 -1.41737,3.095 -3.15965,6.6827 l -3.16759,6.5231 -1.39648,-0.8551 c -3.97854,-2.4365 -13.10401,-8.7102 -17.82392,-12.2538 -14.16896,-10.6381 -24.99862,-21.0833 -33.27426,-32.0936 l -1.89177,-2.5167 -0.0672,36.0284 -0.0669,36.0285 h -7.40648 -7.40648 l -0.0669,-35.828 -0.0672,-35.8281 -2.11667,2.682 c -2.5146,3.186 -9.46573,10.2481 -13.36145,13.5745 -8.78311,7.4995 -18.16259,14.2557 -30.36306,21.8715 -6.96489,4.3475 -14.68781,8.9231 -15.05558,8.92 -0.26829,0 -6.89266,-12.8672 -6.70428,-13.0206 0.0728,-0.059 3.69147,-2.2337 8.04175,-4.8321 21.13676,-12.6248 37.67454,-25.0732 46.68467,-35.1407 1.50468,-1.6812 3.09245,-3.542 3.52848,-4.1349 l 0.79296,-1.0782 h -21.32207 -21.32171 v -37.9677 -37.9677 h 25.66458 25.66458 v -4.6302 -4.6302 h -27.60927 -27.60927 l -0.7456,1.786 c -4.50506,10.7898 -11.4509,24.7685 -16.01972,32.2398 l -0.98743,1.6143 1.32133,1.693 c 1.94707,2.4951 6.57807,9.5305 8.13118,12.3528 3.66421,6.6588 5.83088,12.9839 7.04373,20.561 0.57389,3.5867 0.8054,13.2813 0.40032,16.7666 -1.27185,10.9382 -6.22327,17.3521 -15.52919,20.1152 -3.46207,1.028 -6.68655,1.3473 -13.6234,1.3489 h -6.51404 l -0.39952,-2.3151 c -0.36777,-2.1305 -0.40217,0.2425 -0.43153,29.7656 l -0.0317,32.0808 h -7.27605 -7.27604 z m 28.89965,22.7782 c 5.75892,-1.2641 7.80626,-4.0728 8.40634,-11.5333 0.48233,-5.9936 -0.55616,-14.1639 -2.52439,-19.8593 -2.09815,-6.0706 -6.78127,-13.4976 -14.17373,-22.4777 -1.37927,-1.6754 -2.58895,-3.1776 -2.68817,-3.3383 -0.0992,-0.1606 1.04431,-2.4212 2.54133,-5.0235 7.87082,-13.6839 14.97726,-28.2929 19.22727,-39.5267 0.72734,-1.9219 1.32212,-3.6005 1.32212,-3.7303 0,-0.1351 -5.65494,-0.236 -13.22917,-0.236 h -13.22916 v 53.2214 53.2214 l 6.28385,-0.1636 c 3.96399,-0.1031 6.94081,-0.3077 8.06371,-0.5541 z m 78.2566,-32.1709 v -9.525 h -18.65312 -18.65313 v 9.525 9.525 h 18.65313 18.65312 z m 51.32917,0 v -9.525 h -18.25625 -18.25625 v 9.525 9.525 h 18.25625 18.25625 z m -51.32917,-31.2208 v -8.7313 h -18.65312 -18.65313 v 8.7313 8.7312 h 18.65313 18.65312 z m 51.32917,0 v -8.7313 h -18.25625 -18.25625 v 8.7313 8.7312 h 18.25625 18.25625 z"
         style="fill:#dbdbdb;fill-opacity:1;stroke-width:0.88878345"
         id="path8201-9-7-2" />
      <path
         transform="matrix(0.26458333,0,0,0.26458333,-2642.5812,1295.7463)"
         clip-path="url(#clipPath8301)"
         d="m 11503.438,5999.9498 c -9.708,0.8274 -21.642,-0.2981 -26.438,-10.2268 -10.286,-18.5883 -9.37,-41.1461 -7.05,-61.6175 -0.413,-10.3193 10.663,-15.122 15.975,-22.6842 7.132,-7.4399 14.098,-15.1341 21.335,-22.4142 5.492,1.3026 11.172,0.6857 16.578,0.8112 7.925,6.4448 11.152,17.1296 14.863,26.361 5.061,16.6104 6.876,34.5157 4.6,51.7377 -2.013,11.1965 -6.941,22.3996 -17.202,28.3296 -6.806,4.4351 -12.719,11.6096 -21.706,9.6666 z m -260.089,275.9757 c -22.778,4.4331 -37.695,-20.1501 -34.142,-40.3288 2.414,-53.6621 26.955,-107.6101 12.882,-161.212 -4.38,-16.675 -19.887,-30.0317 -37.856,-25.4458 -36.612,-2.2202 -57.556,34.4391 -68.927,63.8904 -21.917,49.0211 -29.231,104.2209 -56.62,150.7162 -12.313,14.3126 -34.458,24.0895 -53.055,19.0629 -16.018,-12.949 -1.834,-37.3784 3.223,-52.5213 30.799,-69.7227 53.913,-143.8628 96.114,-207.863 22.906,-35.0061 61.187,-69.921 106.363,-61.1483 30.211,8.1494 45.232,40.8307 57.031,67.081 25.961,73.5402 18.919,153.8433 10.789,229.9325 0.494,10.287 -5.35,18.2532 -16.422,16.5336 -6.429,0.8056 -12.907,1.1212 -19.38,1.3026 z m 97.517,-8.8451 c -22.986,-1.1094 -40.063,-20.8274 -41.182,-43.2235 -9.78,-62.2594 10.843,-126.4519 -5.269,-187.8474 -14.773,-40.244 -41.342,-87.9978 -88.811,-92.2644 -59.85,-0.8022 -106.879,46.7897 -137.822,93.3627 -20.389,28.5923 -30.742,62.1905 -39.564,95.6322 -18.571,46.2105 -36.722,93.267 -62.299,136.0812 -4.13,8.6288 -13.987,6.5493 -14.149,-2.7878 1.981,-34.7912 22.391,-65.8661 33.461,-98.3434 38.62,-93.6646 81.683,-193.7531 167.806,-253.5057 33.401,-23.1854 80.092,-15.421 108.39,12.3209 59.858,49.3371 69.443,131.6928 77.201,203.7957 4.441,46.1295 6.615,92.9618 12.888,138.6048 -3.55,-0.6084 -7.1,-1.2167 -10.65,-1.8253 z m -585.386,31.8507 c -45.298,-1.6263 -84.432,-39.2404 -93.173,-82.766 -24.23,-38.9237 -59.5,-70.2088 -81.458,-110.9425 -14.124,-26.7973 -35.131,-60.1663 -21.25,-91.0018 20.68,-38.3939 70.572,-36.3522 107.94,-39.9445 60.81,-2.9121 122.71,-24.7885 162.681,-72.5897 39.626,-36.9018 52.659,-91.0173 63.97,-141.8652 28.173,-107.2074 30.57,-222.1407 -2.979,-328.478 -13.441,-54.749 -1.674,-121.7075 44.034,-158.4553 22.826,-17.8555 60.11,-20.8508 79.962,3.2865 89.7,79.2057 189.255,146.6365 293.392,205.2835 22.484,21.6854 32.351,54.4579 36.494,84.7924 4.865,80.6435 -54.75,150.2955 -121.219,188.2005 -43.31,26.4134 -97.245,30.4526 -136.489,64.4254 -111.39,78.9854 -181.267,201.1961 -232.724,324.8705 -19.124,41.322 -33.436,84.6834 -49.486,127.0686 -9.672,17.9796 -29.387,28.7998 -49.695,28.1156 z m -25.2,-171.4933 c 7.591,-0.4782 11.718,-7.9566 19.872,-5.9029 14.018,-9.2181 32.641,-19.0468 36.833,-36.622 0.15,-21.092 -17.22,-41.9971 -36.775,-48.6262 -24.019,-2.9773 -58.957,-1.8945 -68.077,25.6316 -9.381,14.7238 -6.284,33.4728 7.899,43.9169 6.767,4.5422 14.57,7.3554 22.307,9.8362 6.886,2.4459 18.477,-3.1406 23.244,1.0052 -3.088,2.1247 -17.476,10.3531 -5.303,10.7612 z m 262.903,-304.2216 c 49.737,-5.9943 86.465,-45.3424 124.892,-73.7758 32.135,-29.7508 70.615,-51.5711 102.464,-81.4196 20.69,-19.1752 34.217,-44.9293 34.692,-73.445 0.263,-12.7112 5.622,-31.2907 0.318,-41.5144 -14.925,-14.5218 -21.547,-37.6473 -36.408,-53.2614 -52.655,-65.2836 -134.404,-101.2863 -215.452,-114.4041 0.31,-4.1237 -0.397,-10.5006 -6.776,-7.371 -6.477,11.8479 -30.273,-0.8677 -25.803,16.3505 -1.743,120.2755 -0.559,243.1154 -38.279,358.8254 -5.892,19.4238 8.049,40.1877 20.515,54.8945 10.381,10.547 25.124,16.0633 39.837,15.1209 z m -10.329,-22.5055 c -18.051,3.542 -24.966,-14.0969 -22.407,-29.1829 4.106,-123.3294 43.19,-244.4057 29.757,-368.5527 -1.739,-16.9754 26.749,-6.7587 36.44,-2.2552 75.468,39.548 165.702,74.4274 204.648,156.3307 17.238,34.3663 -0.554,73.1513 -29.063,95.1219 -55.988,48.9437 -111.842,100.1164 -176.368,137.5308 -13.547,6.0387 -28.053,10.7371 -43.007,11.0074 z m 1889.762,-82.2793 c -50.819,0.8745 -99.786,-27.5528 -131.416,-66.1746 -28.415,-34.6272 -39.015,-86.7205 -13.809,-126.0902 27.274,-46.3034 71.047,-86.7212 126.081,-94.3198 43.727,-7.1376 89.302,-4.5804 132.386,4.9772 22.198,8.2862 33.121,32.0067 31.428,54.7005 -0.269,47.9307 -0.757,95.9456 5.953,143.5305 3.997,30.641 -13.21,64.807 -45.199,71.2923 -34.436,8.3593 -70.104,10.7985 -105.423,12.0841 z m 5.537,-70.9192 c 10.367,1.6214 2.139,-8.2956 -3.544,-6.489 -4.963,0.063 -17.006,-2.0718 -18.394,2.9007 6.747,2.9501 14.607,3.3343 21.938,3.5881 z m -46.175,-3.0628 c 8.336,-1.916 -4.73,-10.5162 -7.104,-12.8655 -11.514,-7.9411 -24.708,-19.6204 -39.077,-19.5494 5.434,17.5873 28.819,30.1817 46.181,32.4149 z m 89.422,-5.5716 c 34.168,-12.1667 70.052,-42.3294 64.135,-82.4534 -2.661,-34.4932 -35.46,-64.3491 -69.673,-63.2728 -0.943,5.8784 12.047,7.8012 15.982,11.3699 25.142,9.765 42.497,37.6985 33.523,64.4176 -5.754,28.3976 -27.844,48.3967 -45.266,69.5975 0,0.6362 0.953,0.3686 1.299,0.3412 z m -145.326,-55.0158 c 5.76,-2.8958 9.894,-10.2297 0.341,-8.7657 -3.228,-9.346 11.441,-17.2184 15.594,-24.61 12.918,-15.8629 31.977,-29.1811 39.862,-48.0629 -3.735,-8.3169 -14.207,4.7765 -18.578,7.0548 -9.399,8.8486 -23.41,19.2489 -26.607,31.048 -3.367,13.4772 -18.724,28.4513 -12.109,43.327 0.462,0.2511 1.023,0.1663 1.497,0.01 z m 101.338,-79.3375 c 8.983,2.6801 10.263,-8.8716 0.998,-7.1123 -4.175,0.1171 -15.569,1.6059 -15.1,5.251 4.518,1.2007 9.363,1.875 14.102,1.8613 z m -2592.797,-117.5228 c -8.85,0.3052 -17.778,-1.7416 -25.894,-4.8157 1.931,-30.4488 28.024,-52.6366 54.881,-62.706 10.928,-6.3611 23.572,-4.6851 34.681,-10.2491 43.447,-16.7061 94.216,-23.2192 127.655,-58.6346 13.742,-14.3179 20.544,-33.5549 34.599,-47.6927 41.941,-53.88 60.548,-121.7555 69.518,-188.4191 8.235,-35.6246 4.631,-72.3903 7.839,-108.4771 3.264,-25.1947 16.853,-47.2718 23.005,-71.5641 3.008,-24.5076 15.919,-47.5052 32.779,-65.2507 9.639,-10.2268 23.541,-14.9299 37.392,-14.7235 31.133,-34.9497 66.026,-67.7144 107.202,-90.4676 8.224,-3.2823 20.235,-9.3007 27.992,-2.1677 5.207,13.9168 -1.054,29.5208 -6.764,42.3905 -15.703,21.688 -36.338,39.3782 -54.847,58.6325 -12.212,14.1259 -30.844,19.2362 -44.293,31.8699 -11.122,9.2497 -21.75,19.3814 -32.999,28.3056 -10.272,16.3125 -24.275,31.1779 -28.448,50.4763 -11.105,26.6073 -24.277,53.6343 -23.449,83.1874 -7.109,61.1178 -13.861,123.3276 -35.743,181.2737 -15.42,41.5738 -44.023,77.7609 -80.915,102.3559 -46.736,32.4163 -86.737,73.6046 -133.977,105.2953 -16.039,7.5779 -26.928,22.5459 -43.732,28.8861 -14.537,6.9065 -30.268,12.0874 -46.482,12.4947 z m 27.088,-201.9856 c -25.96,-0.2445 -57.489,-20.7378 -56.345,-48.8854 10.558,-26.743 43.802,-17.4354 65.523,-16.4096 37.927,9.4259 77.155,-16.4712 86.046,-53.8681 12.874,-47.742 -3.494,-106.3186 -45.221,-134.906 -31.488,-18.9474 -74.243,-8.895 -101.644,-36.6292 -14.552,-11.1096 -32.332,-35.9342 -12.729,-51.008 24.787,-22.533 60.529,-8.8068 89.782,-5.9024 72.179,12.5356 114.909,86.1402 120.449,154.3964 7.987,70.4263 -21.741,152.7425 -92.156,179.8677 -17.084,6.9315 -35.244,12.2179 -53.705,13.3446 z m 2.432,57.0557 c -24.537,1.4633 -47.462,-10.7334 -61.757,-30.0316 56.362,-30.2693 132.341,-6.1445 180.497,-54.5703 23.688,-31.5053 35.273,-71.3856 43.258,-109.5686 9.169,-79.6098 -15.276,-172.8074 -89.081,-214.7583 -32.651,-22.479 -72.869,-15.5716 -109.835,-20.3326 -17.495,-3.6788 -46.863,-17.4825 -37.358,-39.7209 11.75,-20.4344 36.098,-29.2249 58.733,-24.276 45.535,5.4531 93.534,0.7432 137.207,16.3478 49.802,19.8221 68.074,76.0039 70.306,125.2792 3.483,68.9677 -0.375,138.725 -11.474,206.8313 -20.894,64.1739 -77.814,111.9641 -139.042,136.512 -13.292,4.7879 -27.265,8.1493 -41.454,8.288 z m 2650.478,-588.9176 c -51.741,-13.3823 -92.728,-55.2874 -145.93,-65.1482 -8.449,2.3758 -25.034,-6.0771 -18.153,-15.5923 29.957,-11.0986 64.108,-3.711 95.515,-6.6475 23.402,2.7898 50.51,-8.0482 71.879,4.4909 12.746,19.4902 9.732,45.7375 9.534,68.1389 -1.49,6.0815 -5.681,14.5442 -12.845,14.7582 z m -753.026,1360.5063 c -24.432,2.3821 -50.726,-16.234 -47.437,-42.6494 4.581,-34.4138 22.364,-66.0879 23.311,-101.4408 12.089,-132.1733 -8.363,-265.4628 6.314,-397.4668 4.357,-22.4267 5.586,-58.4187 33.91,-63.8151 32.146,8.0407 42.337,48.7466 52.654,76.2608 24.012,82.069 13.78,172.0485 48.525,251.0847 18.47,49.4034 67.817,74.7179 96.63,116.5105 19.955,27.9319 17.361,70.8671 -11.962,91.5572 -23.481,19.6625 -54.251,25.2577 -83.333,30.0683 -37.024,18.964 -75.91,38.9578 -118.612,39.8906 z m -406.719,-469.9107 c -43.572,1.5778 -85.299,-22.937 -105.767,-61.421 -72.076,-101.6387 -140.947,-207.1627 -189.621,-322.1761 0.06,-14.7331 22.236,-14.6625 32.711,-12.0712 66.172,21.218 116.05,73.9029 164.326,121.4781 38.79,43.1952 82.3,82.0183 120.557,125.5724 21.234,32.1993 44.545,64.8991 56.652,101.7052 -11.047,31.6209 -47.264,47.1056 -78.858,46.9126 z m -1166.979,238.6266 c -53.864,3.3908 -98.429,-35.6439 -136.37,-68.9541 -34.053,-38.5626 -80.696,-60.9871 -127.963,-78.9902 -40.292,-17.4765 -93.253,-35.8603 -103.738,-84.4889 -3.443,-32.5612 -10.099,-66.5617 -3.435,-98.9622 22.125,-55.8088 85.099,-75.2134 131.909,-104.5618 39.473,-20.6016 75.268,-47.6266 102.522,-83.0275 10.635,-7.3346 22.52,-12.975 30.768,-24.2121 20.23,-19.1174 28.696,-46.3079 49.397,-65.3215 19.685,-22.0225 30.842,-50.2186 32.172,-79.484 2.349,-4.6772 9.551,-3.0497 9.47,-10.5394 0.389,-7.2822 7.899,-20.1465 2.771,-25.35 -14.525,7.8405 -7.162,-17.5752 2.774,-14.0178 4.181,-13.9477 7.839,-30.9746 5.097,-45.1326 -11.251,-3.0803 -0.776,-20.6595 -0.38,-27.932 13.547,-45.2596 18.785,-96.1064 54.13,-131.1078 40.228,-50.1971 99.325,-81.3444 139.167,-131.51 10.354,-25.136 23.669,-55.9393 54.315,-60.0768 34.256,-6.67 62.104,20.8156 94.677,23.0195 47.46,-2.998 90.993,-26.8806 137.73,-32.408 20.044,3.6252 12.214,31.2749 4.289,42.9085 -36.616,48.1633 -88.426,82.1425 -134.085,121.0871 -14.507,13.6703 -34.786,22.9681 -48.261,36.2587 -7.609,12.4648 -22.414,23.3055 -36.288,28.4948 -18.753,12.6535 -27.149,37.6552 -39.376,56.3284 -18.016,29.7894 -28.524,62.7276 -39.075,95.5073 -42.714,106.8746 -105.399,211.6555 -103.285,330.4405 -0.01,75.8855 1.605,152.5912 21.941,226.2215 12.34,58.2129 23.202,129.1215 -20.306,177.6033 -14.68,17.9762 -35.88,29.826 -59.595,27.3404 -6.989,0.3336 -13.981,0.5962 -20.972,0.8669 z m 5.665,-85.8559 c 13.609,0.4999 31.507,-3.1071 32.086,-20.0517 17.473,-34.1479 8.504,-74.0128 9.22,-110.8806 -4.936,-90.2492 -7.054,-180.9797 -16.809,-270.7766 -6.424,-27.226 -33.901,-48.417 -62.29,-41.7323 -29.513,8.0813 -50.108,34.6295 -76.778,48.9155 -56.029,39.8147 -123.203,74.7536 -154.176,139.3505 -19.618,38.779 -11.332,90.4481 25.137,116.3326 62.616,52.5449 122.739,118.0436 205.48,136.8193 12.521,2.6416 25.388,2.5552 38.13,2.0233 z m 1864.514,-422.6883 c -37.459,2.0403 -66.703,-31.6524 -67.596,-67.5895 -6.637,-38.9775 33.145,-64.1094 65.059,-74.4751 42.934,-9.3155 87.78,-9.6345 131.576,-8.9208 19.528,-3.0327 9.157,19.3849 10.141,31.0295 -9.666,65.5042 -74.182,117.6414 -139.18,119.9559 z m -670.368,-270.9 c -81.195,-0.8608 -145.499,-65.9971 -181.096,-133.654 -29.212,-57.2703 -40.91,-121.2974 -63.371,-181.241 -4.503,-20.3654 -21.61,-52.5894 2.747,-66.7329 27.613,-6.8355 57.302,-0.2871 85.593,-3.7846 87.621,-2.4796 175.85,-7.5828 263.021,-10.1408 -24.163,36.0135 -51.331,74.1992 -49.845,119.7487 -4.123,72.5925 6.741,145.8669 -3.264,218.0604 -5.927,22.1137 -19.775,44.8291 -39.809,56.3702 -4.534,1.2713 -9.311,1.2325 -13.976,1.3729 z m -77.066,-163.5506 c 20.682,-0.5892 33.355,-24.5628 24.381,-42.7588 -5.123,-22.9282 -31.248,-48.7734 -55.131,-34.2132 -23.775,14.3317 -33.782,57.7355 -4.192,71.1235 10.824,5.3458 23.068,6.2003 34.942,5.8485 z m 16.285,1414.6723 c -57.344,2.4917 -122.574,-20.2069 -147.605,-75.9021 -14.845,-32.0379 -11.806,-69.9664 -6.116,-103.9833 16.455,-73.1 58.841,-139.2748 66.365,-214.3853 0.601,-39.4063 2.966,-83.8685 -26.263,-114.6996 -45.862,-51.5517 -118.674,-63.237 -179.203,-88.9276 -20.505,-74.1288 -25.167,-156.7968 -72.41,-220.4424 -29.831,-40.2732 -80.77,-52.2798 -127.377,-60.6079 -87.577,-24.2738 -141.442,-103.97 -200.389,-166.9285 -25.123,-24.1412 -47.313,-59.3346 -84.09,-65.3928 -51.441,0.9226 -100.925,26.7081 -130.557,68.7872 -49.492,67.742 -68.649,157.9752 -48.793,239.734 18.066,92.9676 35.538,190.142 15.283,284.2126 -16.417,64.4577 -53.278,132.3568 -120.278,154.5444 -82.106,27.6572 -168.932,-3.1271 -247.225,-29.0328 -58.895,-26.369 -132.311,-18.2109 -182.384,-63.5979 -20.605,-20.9552 -14.999,-59.6111 6.771,-77.1727 26.31,-2.6049 52.06,10.922 76.68,18.9958 81.078,33.6049 148.641,96.8438 234.854,118.0369 35.015,4.8758 72.693,6.7916 106.607,-3.9982 71.626,-30.0905 106.44,-111.5199 102.813,-185.6564 1.331,-66.1823 -12.141,-131.1755 -27.712,-195.012 -26.537,-138.2723 29.315,-282.4053 122.302,-384.3502 69.38,-78.8027 141.223,-155.4618 204.347,-239.5377 56.291,-65.9905 109.21,-136.1774 175.54,-192.5745 34.386,-28.2276 89.101,-42.66 125.828,-10.4123 54.318,52.4535 91.089,119.9589 133.01,182.1063 30.905,46.5893 57.49,96.6488 90.512,141.434 65.336,56.8233 124.926,127.5473 209.16,156.3999 50.226,17.2599 117.498,5.1983 142.363,-46.5662 60.791,-105.2323 108.932,-220.6291 123.046,-342.0949 -0.164,-30.6043 -21.649,-59.3268 -9.216,-90.1679 6.708,-35.6907 43.871,-62.225 79.779,-52.3847 15.93,5.2892 38.314,9.3996 45.807,25.9815 4.9,37.6671 43.926,58.7514 75.302,72.7741 54.297,16.8137 112.038,38.2567 169.546,27.0515 40.621,-12.0858 84.065,11.6683 112.018,40.1599 28.209,34.1571 26.236,83.1503 21.276,124.6898 -7.749,42.4881 -40.96,74.6333 -71.188,102.9884 -25.457,24.7517 -61.558,6.8619 -90.844,1.543 -55.725,-12.2658 -106.558,-38.2802 -158.675,-60.266 -42.348,-18.7369 -91.608,-11.6912 -129.536,13.8728 -60.793,38.0413 -72.427,115.567 -108.683,172.4434 -19.599,27.6963 -38.536,56.2786 -60.136,82.3401 -28.429,17.4786 -65.241,20.5033 -97.659,15.2929 -68.069,-21.5141 -114.517,-78.6575 -166.279,-124.0665 -35.695,-17.2868 -65.42,-43.9174 -92.777,-72.3699 -50.316,-49.1512 -90.964,-107.0229 -125.325,-168.1151 -11.195,-22.0706 -34.775,-29.9943 -50.993,-47.3025 -33.236,-29.3144 -85.57,-41.2616 -126.055,-21.2088 -41.362,31.8586 -71.24,76.2819 -103.383,116.9173 -35.637,46.2159 -55.486,101.8615 -88.412,149.725 -16.291,35.449 -8.868,76.5531 -5.647,114.0191 19.864,70.0414 67.489,139.3518 141.305,158.5821 42.092,8.9258 86.694,12.0422 123.912,36.2334 69.643,39.6971 112.013,110.3791 152.086,177.0427 52.154,59.8767 116.888,107.6628 172.337,164.5161 23.119,21.5323 43.332,46.5905 53.105,77.0118 15.634,34.3174 54.57,44.0287 88.108,50.0852 -10.691,5.815 15.656,8.6795 11.005,-2.2799 18.33,-1.5565 36.642,-3.5325 53.376,-12.6483 13.973,-5.2563 26.914,-15.2485 28.484,-30.7032 25.773,-40.597 59.513,-77.2591 73.754,-124.3934 16.173,-52.379 34.09,-105.3667 39.396,-160.0995 -4.266,-69.5356 -11.837,-145.8614 27.658,-207.6199 15.861,-24.3801 44.914,-45.1634 74.51,-42.8352 2.792,9.5453 19.728,7.2772 27.397,11.2022 46.619,8.7666 98.065,17.9108 129.614,57.2576 47.983,46.7137 52.328,119.6768 90.88,172.3206 8.828,5.8427 4.958,-13.1186 4.186,-16.7202 -15.799,-66.8306 -53.392,-128.2171 -101.186,-176.9421 -55.451,-46.8358 -135.25,-73.665 -205.9,-47.0837 -45.851,14.7408 -61.413,68.2763 -64.79,111.3853 -4.842,45.6528 0.683,92.0586 -10.584,137.1535 -9.557,51.634 -6.764,105.692 -29.088,154.4938 -21.86,56.6383 -48.061,121.4447 -106.243,149.3148 -31.359,13.9128 -70.989,8.0343 -93.195,-19.4187 -29.819,-27.1513 -53.64,-59.9987 -78.035,-91.8774 -16.355,-23.6095 -40.463,-42.5882 -64.775,-57.5467 -22.903,-9.3479 -39.045,-32.3759 -57.509,-48.5989 -50.627,-50.7867 -83.64,-115.3167 -128.019,-170.9196 -9.297,-8.9626 -19.336,-18.4846 -22.264,-30.7153 -57.536,-49.67 -137.62,-57.076 -204.612,-88.9862 -46.21,-19.528 -91.664,-57.8846 -98.687,-110.0843 -1.02,-49.6938 -7.638,-102.5484 10.437,-149.9896 28.274,-40.4853 61.283,-77.7701 85.896,-120.9089 22.155,-36.0744 38.881,-78.9906 78.363,-100.1101 35.822,-24.4125 88.375,-23.4496 118.581,9.7968 64.019,65.8406 107.408,148.9205 172.359,214.1313 28.44,26.5748 53.822,56.2729 83.37,81.4608 17.471,17.7966 47.58,13.8734 60.686,37.0775 47.246,56.339 123.02,92.5623 197.285,80.1964 44.096,-9.9798 77.229,-47.9824 97.035,-86.8323 5.281,-19.8129 9.395,-40.0551 19.849,-58.4111 25.318,-57.1006 57.859,-121.5032 121.621,-142.4427 34.601,-15.4687 71.363,-0.147 102.329,16.325 62.17,28.0351 125.152,59.0816 193.012,69.6888 46.152,6.2717 79.285,-35.0128 105.388,-66.6803 24.356,-30.3803 41.463,-68.2487 35.394,-107.9491 -2.156,-45.0084 -4.775,-98.5564 -45.399,-127.1956 -36.138,-27.34 -85.118,-42.1007 -129.33,-27.4816 -20.136,1.5615 -42.719,7.7762 -62.091,1.6134 -11.148,-12.5337 -32.948,-4.3863 -47.771,-6.9231 -29.751,-1.5878 -62.575,-12.7259 -81.298,-36.6315 -2.993,-20.2375 -12.673,-38.2797 -29.251,-50.7025 -9.837,-12.0594 13.117,-18.2886 21.864,-16.5348 29.783,-0.243 54.023,17.9556 75.222,36.6268 52.249,34.4124 121.351,24.2447 176.088,1.4458 30.452,-13.1448 56.61,-33.9741 82.066,-54.6986 48.091,18.7035 81.667,59.505 125.227,85.6068 30.656,24.1336 68.478,36.7666 106.524,41.5901 64.252,23.8125 106.369,82.3835 151.91,129.1748 6.554,52.9554 10.351,106.3224 12.292,159.616 -77.995,75.2473 -134.875,168.5397 -208.426,247.8307 -59.304,70.8307 -129.747,134.7583 -172.13,217.9408 -23.699,56.2524 -23.488,119.5308 -47.983,175.7678 -10.083,23.5864 -24.416,59.6783 -55.752,56.9553 -34.262,-11.4682 -51.148,-48.6006 -65.845,-78.8336 -0.824,-7.2454 -4.425,-24.4757 -13.539,-13.4103 1.202,27.2249 22.42,50.2263 33.229,74.5685 2.18,16.2544 17.933,14.4247 26.608,24.6714 23.145,23.0555 69.586,18.9727 79.049,-15.6078 32.538,-87.8621 26.994,-191.399 88.432,-267.3062 68.393,-90.6166 154.179,-167.7977 215.788,-263.445 31.874,-43.9582 71.041,-82.6613 110.793,-119.4756 11.223,-8.9059 6.577,13.6103 8.531,18.9648 1.501,49.8933 10.574,100.6669 3.022,150.2712 -15.876,47.0278 -65.968,68.5059 -104.063,94.5829 -76.678,48.1708 -166.501,88.7394 -215.08,169.022 -37.666,68.3793 -58.299,156.7331 -17.958,228.5931 24.591,40.5854 62.231,75.2307 106.843,92.3435 31.102,12.3704 64.436,14.044 97.266,16.375 93.778,20.3039 173.366,115.389 158.198,213.5885 -5.989,37.1747 -28.918,72.8747 -65.682,85.5363 -72.133,35.9474 -136.647,91.8268 -217.157,108.2657 -9.83,1.6171 -25.824,4.2377 -26.887,-10.1246 -14.872,-60.1519 -80.443,-88.355 -137.064,-92.7311 -51.231,-4.0227 -103.816,-3.8569 -154.546,-0.2285 -64.32,25.9882 -95.033,97.405 -157.637,125.4928 -14.945,4.7049 -35.362,1.32 -46.303,-9.101 35.155,-92.2583 129.905,-148.445 223.698,-165.1502 46.534,-10.5382 105.364,1.0434 140.602,-38.4361 33.726,-35.6005 29.468,-92.4214 11.53,-134.6404 -21.504,-54.6692 -66.686,-97.3279 -120.13,-120.4714 -61.652,-39.4246 -84.399,-114.9037 -93.635,-183.5898 -14.091,-70.2473 -16.668,-146.4833 -55.293,-208.9275 -23.503,-35.0026 -64.062,-59.9688 -107.317,-54.0028 -58.996,0.8502 -111.883,53.4791 -112.67,112.6763 1.497,45.3201 1.964,90.8315 -1.953,136.201 -7.26,98.6375 -11.351,200.162 -46.113,293.7378 -22.56,33.3598 -51.825,62.3239 -69.362,99.1932 -42.712,76.3735 -61.702,162.4907 -82.033,246.6576 -12.761,36.5637 -55.656,50.246 -91.172,49.4628 -11.899,0.8859 -23.812,1.626 -35.742,1.9046 z m 13.769,-94.3373 c 38.734,-2.8479 58.745,-47.2112 58.944,-81.7822 -2.283,-36.2553 2.767,-76.5706 -16.479,-108.988 -12.07,-23.7254 -42.705,-22.3758 -63.226,-11.3727 -44.086,13.0216 -69.122,61.5587 -59.787,105.5631 7.665,40.5964 33.22,94.5531 80.548,96.5798 z m 1015.063,-69.05 c 56.422,1.6449 104.574,-44.789 116.003,-98.2299 14.244,-35.4292 -2.107,-73.8897 -19.924,-104.8604 -33.123,-46.7578 -96.183,-56.6089 -149.629,-56.9699 -24.522,0.081 -53.836,5.5643 -63.51,31.5815 -31.72,64.7298 -30.926,150.4704 16.946,207.1034 24.212,20.2107 56.042,26.7309 86.876,22.0006 4.412,-0.2156 8.825,-0.418 13.238,-0.6254 z m -950.519,-425.001 c 71.048,-0.5779 121.959,-65.303 140.109,-128.4354 13.433,-41.4348 7.834,-86.5083 1.303,-128.7271 -9.355,-38.4704 -43.893,-62.3204 -66.943,-92.058 -46.865,-40.2943 -100.874,-70.7907 -151.903,-105.0725 -70.184,-61.5033 -141.812,-121.4867 -213.02,-181.8773 -42.677,-34.6058 -76.751,-77.8336 -113.913,-117.7536 -22.042,-22.6899 -58.05,-25.6312 -85.966,-17.6513 -65.344,65.2695 -123.676,147.9338 -130.509,242.714 -4.347,46.6467 26.798,90.119 69.756,106.5976 59.85,30.3375 133.315,35.4851 183.922,82.5811 37.866,42.8595 58.719,97.7285 94.533,142.2908 64.627,87.9244 150.669,168.2036 258.52,196.8716 4.615,0.6869 9.411,0.7506 14.111,0.5201 z m 566.936,-121.645 c 10.993,-0.6924 9.373,-20.1225 2.56,-24.9083 -13.305,-3.3837 -9.563,17.347 -6.133,24.1484 1.008,0.793 2.357,0.8168 3.573,0.7599 z m 101.761,-97.0751 c 38.598,-0.943 57.084,-41.3371 79.317,-66.7175 100.46,-142.3057 225.953,-268.3593 302.588,-426.3769 32.116,-83.5411 -32.705,-190.3255 -122.619,-197.5032 -19.796,0.6756 -43.405,-6.7514 -54.69,14.5853 -19.515,13.9086 -21.2,37.7298 -31.214,57.5282 -28.108,61.9531 -42.732,133.1777 -89.808,184.5447 -33.936,36.847 -86.272,42.5821 -133.534,43.0138 -83.393,4.0447 -160.481,-48.928 -244.164,-37.0124 -45.693,8.4192 -76.978,59.715 -63,103.7544 13.294,5.5049 14.716,24.6082 27.301,32.2168 59.428,59.3157 154.785,75.5901 199.095,151.0161 20.704,50.2153 43.882,105.8821 93.329,134.1932 11.551,5.6815 24.645,7.5096 37.399,6.7575 z m -34.61,-490.344 c 11.496,-0.1324 -0.601,-8.5365 -5.651,-9.2532 -4.62,-10.3555 -15.472,-17.039 -27.432,-15.3045 -11.072,0.09 -11.16,15.417 0.789,13.2578 10.207,5.6456 19.744,12.0047 32.295,11.2998 z m 34.881,-14.1165 c 14.384,-19.5605 31.932,-41.26 34.181,-66.3337 1.246,-28.9862 -4.28,-59.377 -26.196,-80.1458 -7.396,-8.6112 -20.428,-18.3298 -30.793,-18.2222 16.467,11.042 36.611,23.7801 35.969,46.5914 5.203,39.9741 -8.411,78.7652 -14.332,117.4507 0.02,0.5943 0.627,1.0665 1.171,0.6596 z m -105.72,-8.9191 c 6.598,-4.6768 -7.446,-13.3667 -10.379,-17.2953 -23.48,-16.9692 -47.665,-33.4618 -64.272,-57.9263 -5.532,-11.4916 -16.464,-6.3301 -10.822,4.6713 15.835,33.4987 49.929,61.1143 85.473,70.5503 z m -91.628,-97.317 c 18.538,-15.7906 36.459,-36.1327 46.017,-58.4797 -14.348,-3.9507 -26.583,13.9281 -33.88,24.6007 -4.819,10.0596 -16.405,22.3866 -13.166,33.8348 0.333,0.093 0.69,0.1334 1.029,0.045 z m 68.836,-49.6074 c 12.756,-3.0389 -14.934,-13.5624 -6.59,-2.2596 1.841,1.4721 4.242,2.2581 6.59,2.2596 z m 15.738,-5.8606 c 8.314,1.1142 7.889,-8.1825 -0.298,-6.3527 -8.475,-0.084 -8.483,7.0801 0.298,6.3527 z m 63.791,-5.1658 c -0.01,-0.085 0.04,0.1338 0,0 z m -11.817,0.031 c 0.03,0.026 0,0.1409 0,0 z"
         style="opacity:1;fill:#1e655b;fill-opacity:1;stroke:none;stroke-width:12.69612026;stroke-linecap:butt;stroke-linejoin:round;stroke-miterlimit:4;stroke-dasharray:none;stroke-dashoffset:0;stroke-opacity:1;paint-order:normal"
         id="path7959-5-9-1" />
    </g>
  </g>
</svg>
